G04 #@! TF.GenerationSoftware,KiCad,Pcbnew,(5.0.1-3-g963ef8bb5)*
G04 #@! TF.CreationDate,2018-11-12T01:28:12+01:00*
G04 #@! TF.ProjectId,MCUmeter,4D43556D657465722E6B696361645F70,rev?*
G04 #@! TF.SameCoordinates,Original*
G04 #@! TF.FileFunction,Copper,L2,Bot,Signal*
G04 #@! TF.FilePolarity,Positive*
%FSLAX46Y46*%
G04 Gerber Fmt 4.6, Leading zero omitted, Abs format (unit mm)*
G04 Created by KiCad (PCBNEW (5.0.1-3-g963ef8bb5)) date 2018 November 12, Monday 01:28:12*
%MOMM*%
%LPD*%
G01*
G04 APERTURE LIST*
G04 #@! TA.AperFunction,ComponentPad*
%ADD10O,1.700000X1.700000*%
G04 #@! TD*
G04 #@! TA.AperFunction,ComponentPad*
%ADD11R,1.700000X1.700000*%
G04 #@! TD*
G04 #@! TA.AperFunction,ComponentPad*
%ADD12C,16.800000*%
G04 #@! TD*
G04 #@! TA.AperFunction,ComponentPad*
%ADD13C,1.450000*%
G04 #@! TD*
G04 #@! TA.AperFunction,ComponentPad*
%ADD14O,1.900000X1.200000*%
G04 #@! TD*
G04 #@! TA.AperFunction,BGAPad,CuDef*
%ADD15C,2.000000*%
G04 #@! TD*
G04 #@! TA.AperFunction,ViaPad*
%ADD16C,0.500000*%
G04 #@! TD*
G04 #@! TA.AperFunction,Conductor*
%ADD17C,0.250000*%
G04 #@! TD*
G04 #@! TA.AperFunction,Conductor*
%ADD18C,0.400000*%
G04 #@! TD*
G04 #@! TA.AperFunction,Conductor*
%ADD19C,0.254000*%
G04 #@! TD*
G04 APERTURE END LIST*
D10*
G04 #@! TO.P,J6,3*
G04 #@! TO.N,GND*
X113030000Y-72390000D03*
G04 #@! TO.P,J6,2*
G04 #@! TO.N,Net-(J6-Pad2)*
X113030000Y-69850000D03*
D11*
G04 #@! TO.P,J6,1*
G04 #@! TO.N,+3V3*
X113030000Y-67310000D03*
G04 #@! TD*
G04 #@! TO.P,J5,1*
G04 #@! TO.N,+3V3*
X108966000Y-67310000D03*
D10*
G04 #@! TO.P,J5,2*
G04 #@! TO.N,Net-(J5-Pad2)*
X108966000Y-69850000D03*
G04 #@! TO.P,J5,3*
G04 #@! TO.N,GND*
X108966000Y-72390000D03*
G04 #@! TD*
D12*
G04 #@! TO.P,H1,1*
G04 #@! TO.N,/HIGH*
X96520000Y-50800000D03*
G04 #@! TD*
G04 #@! TO.P,H2,1*
G04 #@! TO.N,/IN+*
X114808000Y-50800000D03*
G04 #@! TD*
G04 #@! TO.P,H3,1*
G04 #@! TO.N,/IN-*
X133096000Y-50800000D03*
G04 #@! TD*
G04 #@! TO.P,H4,1*
G04 #@! TO.N,GND*
X151384000Y-50800000D03*
G04 #@! TD*
D11*
G04 #@! TO.P,J9,1*
G04 #@! TO.N,Net-(J9-Pad1)*
X117348000Y-78232000D03*
D10*
G04 #@! TO.P,J9,2*
G04 #@! TO.N,/VBUS*
X117348000Y-80772000D03*
G04 #@! TD*
D13*
G04 #@! TO.P,USB,6*
G04 #@! TO.N,GND*
X92108000Y-75605000D03*
X92108000Y-80605000D03*
D14*
X89408000Y-74605000D03*
X89408000Y-81605000D03*
G04 #@! TD*
D15*
G04 #@! TO.P,PA2,1*
G04 #@! TO.N,Net-(TP1-Pad1)*
X138430000Y-68580000D03*
G04 #@! TD*
G04 #@! TO.P,PA3,1*
G04 #@! TO.N,Net-(TP2-Pad1)*
X135890000Y-66675000D03*
G04 #@! TD*
G04 #@! TO.P,PA4,1*
G04 #@! TO.N,Net-(TP3-Pad1)*
X133350000Y-68580000D03*
G04 #@! TD*
G04 #@! TO.P,PA5,1*
G04 #@! TO.N,Net-(TP4-Pad1)*
X131445000Y-74930000D03*
G04 #@! TD*
G04 #@! TO.P,PA6,1*
G04 #@! TO.N,Net-(TP5-Pad1)*
X133985000Y-77470000D03*
G04 #@! TD*
G04 #@! TO.P,PA7,1*
G04 #@! TO.N,Net-(TP6-Pad1)*
X131445000Y-80010000D03*
G04 #@! TD*
D11*
G04 #@! TO.P,DISPLAY,1*
G04 #@! TO.N,+3V3*
X132080000Y-62865000D03*
D10*
G04 #@! TO.P,DISPLAY,2*
G04 #@! TO.N,GND*
X134620000Y-62865000D03*
G04 #@! TO.P,DISPLAY,3*
G04 #@! TO.N,/SCL*
X137160000Y-62865000D03*
G04 #@! TO.P,DISPLAY,4*
G04 #@! TO.N,/SDA*
X139700000Y-62865000D03*
G04 #@! TD*
D11*
G04 #@! TO.P,BOOT,1*
G04 #@! TO.N,Net-(J3-Pad1)*
X116840000Y-72390000D03*
D10*
G04 #@! TO.P,BOOT,2*
G04 #@! TO.N,+3V3*
X116840000Y-69850000D03*
G04 #@! TD*
D16*
G04 #@! TO.N,GND*
X139065000Y-78740000D03*
X100330000Y-77470000D03*
X123190000Y-68158000D03*
X123825000Y-68158000D03*
X124460000Y-68158000D03*
X125095000Y-68158000D03*
X125730000Y-68158000D03*
X112776008Y-79756000D03*
X159512000Y-59944000D03*
X159512000Y-60960000D03*
X159512000Y-61976000D03*
X159512000Y-62992000D03*
X159512000Y-64008000D03*
X159512000Y-65024000D03*
X159512000Y-66040000D03*
X159512000Y-67056000D03*
X159512000Y-68072000D03*
X159512000Y-69088000D03*
X159512000Y-70104000D03*
X159512000Y-71120000D03*
X159512000Y-72136000D03*
X159512000Y-73152000D03*
X159512000Y-74168000D03*
X159512000Y-75184000D03*
X159512000Y-58928000D03*
X149352000Y-84328000D03*
X146304000Y-84328000D03*
X143256000Y-84328000D03*
X140208000Y-84328000D03*
X137160000Y-84328000D03*
X134112000Y-84328000D03*
X131064000Y-84328000D03*
X128016000Y-84328000D03*
X124968000Y-84328000D03*
X121920000Y-84328000D03*
X118872000Y-84328000D03*
X115824000Y-84328000D03*
X112776000Y-84328000D03*
X110744000Y-84328000D03*
X107696000Y-84328000D03*
X104648000Y-84328000D03*
X101600000Y-84328000D03*
X98552000Y-84328000D03*
X95504000Y-84328000D03*
X92456000Y-84328000D03*
X89408000Y-83820000D03*
X88392000Y-73152000D03*
X88392000Y-72136000D03*
X88392000Y-71120000D03*
X88392000Y-70104000D03*
X88392000Y-69088000D03*
X88392000Y-68072000D03*
X88392000Y-67056000D03*
X88392000Y-66040000D03*
X88392000Y-65024000D03*
X88392000Y-64008000D03*
X88392000Y-62992000D03*
X88392000Y-61976000D03*
X88392000Y-60960000D03*
X88392000Y-59944000D03*
X88392000Y-58928000D03*
X88392000Y-57912000D03*
X88392000Y-56896000D03*
X111760000Y-84328000D03*
X113792000Y-84328000D03*
X114808000Y-84328000D03*
X148336000Y-84328000D03*
X147320000Y-84328000D03*
X145288000Y-84328000D03*
X144272000Y-84328000D03*
X142240000Y-84328000D03*
X141224000Y-84328000D03*
X139192000Y-84328000D03*
X138176000Y-84328000D03*
X136144000Y-84328000D03*
X135128000Y-84328000D03*
X133096000Y-84328000D03*
X132080000Y-84328000D03*
X130048000Y-84328000D03*
X129032000Y-84328000D03*
X127000000Y-84328000D03*
X125984000Y-84328000D03*
X123952000Y-84328000D03*
X122936000Y-84328000D03*
X120904000Y-84328000D03*
X119888000Y-84328000D03*
X117856000Y-84328000D03*
X116840000Y-84328000D03*
X109728000Y-84328000D03*
X108712000Y-84328000D03*
X106680000Y-84328000D03*
X105664000Y-84328000D03*
X103632000Y-84328000D03*
X102616000Y-84328000D03*
X100584000Y-84328000D03*
X99568000Y-84328000D03*
X97536000Y-84328000D03*
X96520000Y-84328000D03*
X94488000Y-84328000D03*
X93472000Y-84328000D03*
X91440000Y-84328000D03*
X90424000Y-84328000D03*
X120396000Y-81280000D03*
X121412000Y-81280000D03*
X122428000Y-81280000D03*
X123444000Y-81280000D03*
X124460000Y-81280000D03*
X125476000Y-81280000D03*
X126492000Y-81280000D03*
X127508000Y-81280000D03*
X128524000Y-81280000D03*
X99568000Y-81280000D03*
X107696000Y-81466990D03*
X108712000Y-81466990D03*
X101600000Y-81466990D03*
X109728000Y-81466990D03*
X105664000Y-81466990D03*
X103632000Y-81466990D03*
X104648000Y-81466990D03*
X102616000Y-81466990D03*
X106680000Y-81466990D03*
X100584000Y-81466990D03*
X159512000Y-57912000D03*
X101600000Y-42672000D03*
X102616000Y-42672000D03*
X103632000Y-42672000D03*
X104648000Y-42672000D03*
X105664000Y-42672000D03*
X106680000Y-42672000D03*
X107696000Y-42672000D03*
X108712000Y-42672000D03*
X109728000Y-42672000D03*
X119380000Y-42672000D03*
X120396000Y-42672000D03*
X121412000Y-42672000D03*
X122428000Y-42672000D03*
X123444000Y-42672000D03*
X124460000Y-42672000D03*
X125476000Y-42672000D03*
X126492000Y-42672000D03*
X127508000Y-42672000D03*
X128524000Y-42672000D03*
X137668000Y-42672000D03*
X138684000Y-42672000D03*
X139700000Y-42672000D03*
X140716000Y-42672000D03*
X141732000Y-42672000D03*
X142748000Y-42672000D03*
X143764000Y-42672000D03*
X144780000Y-42672000D03*
X145796000Y-42672000D03*
X146812000Y-42672000D03*
X105156000Y-62484000D03*
X106172000Y-62484000D03*
X107188000Y-62484000D03*
X108204000Y-62484000D03*
X109220000Y-62484000D03*
X110236000Y-62484000D03*
X111252000Y-62484000D03*
X112268000Y-62484000D03*
X113284000Y-62484000D03*
X114300000Y-62484000D03*
G04 #@! TO.N,/VBUS*
X94615000Y-77470000D03*
X93345000Y-76835000D03*
X110744000Y-81788000D03*
X97536000Y-79755998D03*
G04 #@! TO.N,+3V3*
X139959043Y-73219010D03*
X121920000Y-71628000D03*
X131572000Y-72129957D03*
G04 #@! TO.N,/HIGH*
X125095000Y-66675000D03*
G04 #@! TO.N,Net-(D1-Pad2)*
X138176000Y-72520002D03*
X118872000Y-65532000D03*
G04 #@! TO.N,/SCL*
X141605000Y-69850000D03*
X129032000Y-69088000D03*
G04 #@! TO.N,/SDA*
X142622986Y-69857333D03*
X122428000Y-69088000D03*
X136144000Y-64007990D03*
G04 #@! TO.N,Net-(J3-Pad1)*
X141732000Y-72644000D03*
X120243406Y-70764594D03*
G04 #@! TO.N,/USB_DM*
X140970000Y-78740000D03*
X97155000Y-76835000D03*
G04 #@! TO.N,/USB_DP*
X141670013Y-78740000D03*
X96385989Y-79339943D03*
G04 #@! TO.N,Net-(SW1-Pad1)*
X101600000Y-72390000D03*
X139062641Y-73297552D03*
G04 #@! TO.N,Net-(TP1-Pad1)*
X139065000Y-69850000D03*
G04 #@! TO.N,Net-(TP2-Pad1)*
X136581587Y-69093400D03*
G04 #@! TO.N,Net-(TP3-Pad1)*
X136525000Y-69850000D03*
G04 #@! TO.N,Net-(TP4-Pad1)*
X136525000Y-76200000D03*
G04 #@! TO.N,Net-(TP5-Pad1)*
X137160000Y-78740000D03*
G04 #@! TO.N,Net-(TP6-Pad1)*
X137892478Y-78809815D03*
G04 #@! TO.N,/ALERT*
X138469370Y-76103088D03*
X125095000Y-74295000D03*
G04 #@! TD*
D17*
G04 #@! TO.N,/VBUS*
X93980000Y-76835000D02*
X93345000Y-76835000D01*
X94615000Y-77470000D02*
X93980000Y-76835000D01*
X110236000Y-82296000D02*
X99722449Y-82296000D01*
X99722449Y-82296000D02*
X97536000Y-80109551D01*
X97536000Y-80109551D02*
X97536000Y-79755998D01*
X110744000Y-81788000D02*
X110236000Y-82296000D01*
G04 #@! TO.N,+3V3*
X122421957Y-72129957D02*
X131572000Y-72129957D01*
X121920000Y-71628000D02*
X122421957Y-72129957D01*
X114130000Y-67310000D02*
X113030000Y-67310000D01*
X115502081Y-67310000D02*
X114130000Y-67310000D01*
X116840000Y-68647919D02*
X115502081Y-67310000D01*
X116840000Y-69850000D02*
X116840000Y-68647919D01*
X113030000Y-67310000D02*
X108966000Y-67310000D01*
D18*
G04 #@! TO.N,/HIGH*
X125095000Y-66675000D02*
X123063000Y-66675000D01*
X97536000Y-50800000D02*
X96520000Y-50800000D01*
X107188000Y-60452000D02*
X97536000Y-50800000D01*
X116840000Y-60452000D02*
X107188000Y-60452000D01*
X123063000Y-66675000D02*
X116840000Y-60452000D01*
D17*
G04 #@! TO.N,Net-(D1-Pad2)*
X118872000Y-67564000D02*
X118872000Y-65885553D01*
X122428000Y-71120000D02*
X118872000Y-67564000D01*
X118872000Y-65885553D02*
X118872000Y-65532000D01*
X136775998Y-71120000D02*
X122428000Y-71120000D01*
X138176000Y-72520002D02*
X136775998Y-71120000D01*
G04 #@! TO.N,/SCL*
X141205001Y-68180001D02*
X141205001Y-69450001D01*
X137160000Y-64135000D02*
X141205001Y-68180001D01*
X141205001Y-69450001D02*
X141605000Y-69850000D01*
X137160000Y-62865000D02*
X137160000Y-64135000D01*
X136420001Y-65091001D02*
X133028999Y-65091001D01*
X137160000Y-64351002D02*
X136420001Y-65091001D01*
X133028999Y-65091001D02*
X129032000Y-69088000D01*
X137160000Y-62865000D02*
X137160000Y-64351002D01*
G04 #@! TO.N,/SDA*
X142622986Y-68327986D02*
X142622986Y-69857333D01*
X139700000Y-65405000D02*
X142622986Y-68327986D01*
X139700000Y-62865000D02*
X139700000Y-65405000D01*
X122428000Y-69088000D02*
X128016000Y-69088000D01*
X135894001Y-64257989D02*
X136144000Y-64007990D01*
X128016000Y-69088000D02*
X132588000Y-64516000D01*
X132588000Y-64516000D02*
X135635990Y-64516000D01*
X135635990Y-64516000D02*
X135894001Y-64257989D01*
G04 #@! TO.N,Net-(J3-Pad1)*
X137509972Y-72704977D02*
X122183789Y-72704977D01*
X122183789Y-72704977D02*
X120243406Y-70764594D01*
X141732000Y-72644000D02*
X138903006Y-72644000D01*
X138395006Y-73152000D02*
X137956995Y-73152000D01*
X137956995Y-73152000D02*
X137509972Y-72704977D01*
X138903006Y-72644000D02*
X138395006Y-73152000D01*
G04 #@! TO.N,/USB_DM*
X97155000Y-77188553D02*
X97155000Y-76835000D01*
X99381600Y-82746011D02*
X96960992Y-80325403D01*
X136963989Y-82746011D02*
X99381600Y-82746011D01*
X140970000Y-78740000D02*
X136963989Y-82746011D01*
X96960992Y-77382561D02*
X97155000Y-77188553D01*
X96960992Y-80325403D02*
X96960992Y-77382561D01*
G04 #@! TO.N,/USB_DP*
X137567544Y-83196022D02*
X99195200Y-83196022D01*
X141670013Y-79093553D02*
X137567544Y-83196022D01*
X96385989Y-80386811D02*
X96385989Y-79339943D01*
X141670013Y-78740000D02*
X141670013Y-79093553D01*
X99195200Y-83196022D02*
X96385989Y-80386811D01*
G04 #@! TO.N,Net-(SW1-Pad1)*
X137323572Y-73154988D02*
X137828584Y-73660000D01*
X137828584Y-73660000D02*
X138700193Y-73660000D01*
X101600000Y-72390000D02*
X102775001Y-73565001D01*
X138700193Y-73660000D02*
X139062641Y-73297552D01*
X102775001Y-73565001D02*
X125542141Y-73565001D01*
X125542141Y-73565001D02*
X125952155Y-73154988D01*
X125952155Y-73154988D02*
X137323572Y-73154988D01*
G04 #@! TO.N,Net-(TP1-Pad1)*
X139065000Y-69215000D02*
X138430000Y-68580000D01*
X139065000Y-69850000D02*
X139065000Y-69215000D01*
G04 #@! TO.N,Net-(TP2-Pad1)*
X135890000Y-68401813D02*
X136581587Y-69093400D01*
X135890000Y-66675000D02*
X135890000Y-68401813D01*
G04 #@! TO.N,Net-(TP3-Pad1)*
X135255000Y-68580000D02*
X133350000Y-68580000D01*
X136525000Y-69850000D02*
X135255000Y-68580000D01*
G04 #@! TO.N,Net-(TP4-Pad1)*
X135255000Y-74930000D02*
X131445000Y-74930000D01*
X136525000Y-76200000D02*
X135255000Y-74930000D01*
G04 #@! TO.N,Net-(TP5-Pad1)*
X133985000Y-79375000D02*
X133985000Y-77470000D01*
X136525000Y-79375000D02*
X133985000Y-79375000D01*
X137160000Y-78740000D02*
X136525000Y-79375000D01*
G04 #@! TO.N,Net-(TP6-Pad1)*
X137045846Y-80010000D02*
X137892478Y-79163368D01*
X131445000Y-80010000D02*
X137045846Y-80010000D01*
X137892478Y-79163368D02*
X137892478Y-78809815D01*
G04 #@! TO.N,/ALERT*
X126138555Y-73604999D02*
X125448553Y-74295000D01*
X125448553Y-74295000D02*
X125095000Y-74295000D01*
X138469370Y-76103088D02*
X135971281Y-73604999D01*
X135971281Y-73604999D02*
X126138555Y-73604999D01*
G04 #@! TD*
D19*
G04 #@! TO.N,GND*
G36*
X127978084Y-43140497D02*
X125436497Y-45682084D01*
X124061000Y-49002827D01*
X124061000Y-52597173D01*
X125436497Y-55917916D01*
X127978084Y-58459503D01*
X131298827Y-59835000D01*
X134893173Y-59835000D01*
X138213916Y-58459503D01*
X139382628Y-57290791D01*
X145072814Y-57290791D01*
X146072578Y-58326611D01*
X149357195Y-59786274D01*
X152950374Y-59877859D01*
X156305088Y-58587423D01*
X156695422Y-58326611D01*
X157695186Y-57290791D01*
X151384000Y-50979605D01*
X145072814Y-57290791D01*
X139382628Y-57290791D01*
X140755503Y-55917916D01*
X142131000Y-52597173D01*
X142131000Y-52366374D01*
X142306141Y-52366374D01*
X143596577Y-55721088D01*
X143857389Y-56111422D01*
X144893209Y-57111186D01*
X151204395Y-50800000D01*
X144893209Y-44488814D01*
X143857389Y-45488578D01*
X142397726Y-48773195D01*
X142306141Y-52366374D01*
X142131000Y-52366374D01*
X142131000Y-49002827D01*
X140755503Y-45682084D01*
X138213916Y-43140497D01*
X136957325Y-42620000D01*
X147483485Y-42620000D01*
X146462912Y-43012577D01*
X146072578Y-43273389D01*
X145072814Y-44309209D01*
X151384000Y-50620395D01*
X157695186Y-44309209D01*
X156695422Y-43273389D01*
X155225129Y-42620000D01*
X157172052Y-42620000D01*
X157740253Y-42706851D01*
X158251198Y-42908022D01*
X158704868Y-43217385D01*
X159078729Y-43619576D01*
X159354194Y-44094598D01*
X159521467Y-44631340D01*
X159564000Y-44998941D01*
X159564000Y-46899485D01*
X159171423Y-45878912D01*
X158910611Y-45488578D01*
X157874791Y-44488814D01*
X151563605Y-50800000D01*
X157874791Y-57111186D01*
X158910611Y-56111422D01*
X159564000Y-54641128D01*
X159564001Y-81988046D01*
X159477149Y-82556253D01*
X159275980Y-83067194D01*
X158966614Y-83520868D01*
X158564424Y-83894729D01*
X158089401Y-84170195D01*
X157552660Y-84337467D01*
X157185059Y-84380000D01*
X90844693Y-84380000D01*
X90259870Y-84314401D01*
X89741835Y-84134003D01*
X89276636Y-83843315D01*
X88887403Y-83456790D01*
X88593475Y-82993633D01*
X88490444Y-82704287D01*
X88931000Y-82840000D01*
X89281000Y-82840000D01*
X89281000Y-81732000D01*
X89535000Y-81732000D01*
X89535000Y-82840000D01*
X89885000Y-82840000D01*
X90347947Y-82697390D01*
X90721080Y-82388474D01*
X90947592Y-81960281D01*
X90951462Y-81922609D01*
X90826731Y-81732000D01*
X89535000Y-81732000D01*
X89281000Y-81732000D01*
X89261000Y-81732000D01*
X89261000Y-81558398D01*
X91334207Y-81558398D01*
X91399122Y-81796753D01*
X91909146Y-81977312D01*
X92449444Y-81948949D01*
X92816878Y-81796753D01*
X92881793Y-81558398D01*
X92108000Y-80784605D01*
X91334207Y-81558398D01*
X89261000Y-81558398D01*
X89261000Y-81478000D01*
X89281000Y-81478000D01*
X89281000Y-80370000D01*
X89535000Y-80370000D01*
X89535000Y-81478000D01*
X90826731Y-81478000D01*
X90931424Y-81318012D01*
X91154602Y-81378793D01*
X91928395Y-80605000D01*
X92287605Y-80605000D01*
X93061398Y-81378793D01*
X93299753Y-81313878D01*
X93480312Y-80803854D01*
X93451949Y-80263556D01*
X93299753Y-79896122D01*
X93061398Y-79831207D01*
X92287605Y-80605000D01*
X91928395Y-80605000D01*
X91154602Y-79831207D01*
X90916247Y-79896122D01*
X90735688Y-80406146D01*
X90761505Y-80897945D01*
X90721080Y-80821526D01*
X90347947Y-80512610D01*
X89885000Y-80370000D01*
X89535000Y-80370000D01*
X89281000Y-80370000D01*
X88931000Y-80370000D01*
X88468053Y-80512610D01*
X88340000Y-80618625D01*
X88340000Y-79651602D01*
X91334207Y-79651602D01*
X92108000Y-80425395D01*
X92881793Y-79651602D01*
X92816878Y-79413247D01*
X92306854Y-79232688D01*
X91766556Y-79261051D01*
X91399122Y-79413247D01*
X91334207Y-79651602D01*
X88340000Y-79651602D01*
X88340000Y-79163906D01*
X95500989Y-79163906D01*
X95500989Y-79515980D01*
X95625990Y-79817759D01*
X95625989Y-80311963D01*
X95611101Y-80386811D01*
X95625989Y-80461658D01*
X95625989Y-80461662D01*
X95670085Y-80683347D01*
X95838060Y-80934740D01*
X95901519Y-80977142D01*
X98604873Y-83680498D01*
X98647271Y-83743951D01*
X98710724Y-83786349D01*
X98710726Y-83786351D01*
X98776429Y-83830252D01*
X98898663Y-83911926D01*
X99120348Y-83956022D01*
X99120352Y-83956022D01*
X99195199Y-83970910D01*
X99270046Y-83956022D01*
X137492697Y-83956022D01*
X137567544Y-83970910D01*
X137642391Y-83956022D01*
X137642396Y-83956022D01*
X137864081Y-83911926D01*
X138115473Y-83743951D01*
X138157875Y-83680492D01*
X142154489Y-79683880D01*
X142217942Y-79641482D01*
X142260340Y-79578029D01*
X142260342Y-79578027D01*
X142370444Y-79413247D01*
X142385917Y-79390090D01*
X142414327Y-79247265D01*
X142420280Y-79241312D01*
X142555013Y-78916037D01*
X142555013Y-78563963D01*
X142420280Y-78238688D01*
X142171325Y-77989733D01*
X141846050Y-77855000D01*
X141493976Y-77855000D01*
X141320007Y-77927060D01*
X141146037Y-77855000D01*
X140793963Y-77855000D01*
X140468688Y-77989733D01*
X140219733Y-78238688D01*
X140094733Y-78540465D01*
X136649188Y-81986011D01*
X118204033Y-81986011D01*
X118418625Y-81842625D01*
X118746839Y-81351418D01*
X118862092Y-80772000D01*
X118746839Y-80192582D01*
X118418625Y-79701375D01*
X118400381Y-79689184D01*
X118422532Y-79684778D01*
X129810000Y-79684778D01*
X129810000Y-80335222D01*
X130058914Y-80936153D01*
X130518847Y-81396086D01*
X131119778Y-81645000D01*
X131770222Y-81645000D01*
X132371153Y-81396086D01*
X132831086Y-80936153D01*
X132899909Y-80770000D01*
X136970999Y-80770000D01*
X137045846Y-80784888D01*
X137120693Y-80770000D01*
X137120698Y-80770000D01*
X137342383Y-80725904D01*
X137593775Y-80557929D01*
X137636177Y-80494471D01*
X138376954Y-79753695D01*
X138440407Y-79711297D01*
X138482805Y-79647844D01*
X138482807Y-79647842D01*
X138588095Y-79490267D01*
X138608382Y-79459905D01*
X138636792Y-79317080D01*
X138642745Y-79311127D01*
X138777478Y-78985852D01*
X138777478Y-78633778D01*
X138642745Y-78308503D01*
X138393790Y-78059548D01*
X138068515Y-77924815D01*
X137716441Y-77924815D01*
X137610513Y-77968692D01*
X137336037Y-77855000D01*
X136983963Y-77855000D01*
X136658688Y-77989733D01*
X136409733Y-78238688D01*
X136284733Y-78540466D01*
X136210199Y-78615000D01*
X135152239Y-78615000D01*
X135371086Y-78396153D01*
X135620000Y-77795222D01*
X135620000Y-77144778D01*
X135371086Y-76543847D01*
X134911153Y-76083914D01*
X134310222Y-75835000D01*
X133659778Y-75835000D01*
X133058847Y-76083914D01*
X132598914Y-76543847D01*
X132350000Y-77144778D01*
X132350000Y-77795222D01*
X132598914Y-78396153D01*
X133058847Y-78856086D01*
X133225000Y-78924909D01*
X133225000Y-79250000D01*
X132899909Y-79250000D01*
X132831086Y-79083847D01*
X132371153Y-78623914D01*
X131770222Y-78375000D01*
X131119778Y-78375000D01*
X130518847Y-78623914D01*
X130058914Y-79083847D01*
X129810000Y-79684778D01*
X118422532Y-79684778D01*
X118445765Y-79680157D01*
X118655809Y-79539809D01*
X118796157Y-79329765D01*
X118845440Y-79082000D01*
X118845440Y-77382000D01*
X118796157Y-77134235D01*
X118655809Y-76924191D01*
X118445765Y-76783843D01*
X118198000Y-76734560D01*
X116498000Y-76734560D01*
X116250235Y-76783843D01*
X116040191Y-76924191D01*
X115899843Y-77134235D01*
X115850560Y-77382000D01*
X115850560Y-79082000D01*
X115899843Y-79329765D01*
X116040191Y-79539809D01*
X116250235Y-79680157D01*
X116295619Y-79689184D01*
X116277375Y-79701375D01*
X115949161Y-80192582D01*
X115833908Y-80772000D01*
X115949161Y-81351418D01*
X116277375Y-81842625D01*
X116491967Y-81986011D01*
X111619898Y-81986011D01*
X111629000Y-81964037D01*
X111629000Y-81611963D01*
X111494267Y-81286688D01*
X111245312Y-81037733D01*
X110920037Y-80903000D01*
X110567963Y-80903000D01*
X110242688Y-81037733D01*
X109993733Y-81286688D01*
X109890465Y-81536000D01*
X100037251Y-81536000D01*
X98421000Y-79919750D01*
X98421000Y-79579961D01*
X98286267Y-79254686D01*
X98037312Y-79005731D01*
X97720992Y-78874707D01*
X97720992Y-77709449D01*
X97870904Y-77485090D01*
X97899314Y-77342265D01*
X97905267Y-77336312D01*
X98040000Y-77011037D01*
X98040000Y-76658963D01*
X97905267Y-76333688D01*
X97656312Y-76084733D01*
X97331037Y-75950000D01*
X96978963Y-75950000D01*
X96653688Y-76084733D01*
X96404733Y-76333688D01*
X96270000Y-76658963D01*
X96270000Y-77011037D01*
X96279641Y-77034313D01*
X96245089Y-77086024D01*
X96186104Y-77382561D01*
X96200993Y-77457413D01*
X96200993Y-78458654D01*
X95884677Y-78589676D01*
X95635722Y-78838631D01*
X95500989Y-79163906D01*
X88340000Y-79163906D01*
X88340000Y-76558398D01*
X91334207Y-76558398D01*
X91399122Y-76796753D01*
X91909146Y-76977312D01*
X92449444Y-76948949D01*
X92460000Y-76944577D01*
X92460000Y-77011037D01*
X92594733Y-77336312D01*
X92843688Y-77585267D01*
X93168963Y-77720000D01*
X93521037Y-77720000D01*
X93711363Y-77641165D01*
X93739733Y-77669534D01*
X93864733Y-77971312D01*
X94113688Y-78220267D01*
X94438963Y-78355000D01*
X94791037Y-78355000D01*
X95116312Y-78220267D01*
X95365267Y-77971312D01*
X95500000Y-77646037D01*
X95500000Y-77293963D01*
X95365267Y-76968688D01*
X95116312Y-76719733D01*
X94814534Y-76594733D01*
X94570331Y-76350530D01*
X94527929Y-76287071D01*
X94276537Y-76119096D01*
X94054852Y-76075000D01*
X94054847Y-76075000D01*
X93980000Y-76060112D01*
X93905153Y-76075000D01*
X93822814Y-76075000D01*
X93521037Y-75950000D01*
X93428573Y-75950000D01*
X93480312Y-75803854D01*
X93451949Y-75263556D01*
X93299753Y-74896122D01*
X93061398Y-74831207D01*
X92287605Y-75605000D01*
X92301748Y-75619143D01*
X92122143Y-75798748D01*
X92108000Y-75784605D01*
X91334207Y-76558398D01*
X88340000Y-76558398D01*
X88340000Y-75591375D01*
X88468053Y-75697390D01*
X88931000Y-75840000D01*
X89281000Y-75840000D01*
X89281000Y-74732000D01*
X89535000Y-74732000D01*
X89535000Y-75840000D01*
X89885000Y-75840000D01*
X90347947Y-75697390D01*
X90721080Y-75388474D01*
X90784158Y-75269232D01*
X90735688Y-75406146D01*
X90764051Y-75946444D01*
X90916247Y-76313878D01*
X91154602Y-76378793D01*
X91928395Y-75605000D01*
X91154602Y-74831207D01*
X90931424Y-74891988D01*
X90826731Y-74732000D01*
X89535000Y-74732000D01*
X89281000Y-74732000D01*
X89261000Y-74732000D01*
X89261000Y-74651602D01*
X91334207Y-74651602D01*
X92108000Y-75425395D01*
X92881793Y-74651602D01*
X92816878Y-74413247D01*
X92306854Y-74232688D01*
X91766556Y-74261051D01*
X91399122Y-74413247D01*
X91334207Y-74651602D01*
X89261000Y-74651602D01*
X89261000Y-74478000D01*
X89281000Y-74478000D01*
X89281000Y-73370000D01*
X89535000Y-73370000D01*
X89535000Y-74478000D01*
X90826731Y-74478000D01*
X90951462Y-74287391D01*
X90947592Y-74249719D01*
X90721080Y-73821526D01*
X90347947Y-73512610D01*
X89885000Y-73370000D01*
X89535000Y-73370000D01*
X89281000Y-73370000D01*
X88931000Y-73370000D01*
X88468053Y-73512610D01*
X88340000Y-73618625D01*
X88340000Y-72213963D01*
X100715000Y-72213963D01*
X100715000Y-72566037D01*
X100849733Y-72891312D01*
X101098688Y-73140267D01*
X101400465Y-73265267D01*
X102184674Y-74049477D01*
X102227072Y-74112930D01*
X102290525Y-74155328D01*
X102290527Y-74155330D01*
X102378477Y-74214096D01*
X102478464Y-74280905D01*
X102700149Y-74325001D01*
X102700153Y-74325001D01*
X102775000Y-74339889D01*
X102849847Y-74325001D01*
X124210000Y-74325001D01*
X124210000Y-74471037D01*
X124344733Y-74796312D01*
X124593688Y-75045267D01*
X124918963Y-75180000D01*
X125271037Y-75180000D01*
X125596312Y-75045267D01*
X125602265Y-75039314D01*
X125745090Y-75010904D01*
X125996482Y-74842929D01*
X126038883Y-74779471D01*
X126453356Y-74364999D01*
X129909320Y-74364999D01*
X129810000Y-74604778D01*
X129810000Y-75255222D01*
X130058914Y-75856153D01*
X130518847Y-76316086D01*
X131119778Y-76565000D01*
X131770222Y-76565000D01*
X132371153Y-76316086D01*
X132831086Y-75856153D01*
X132899909Y-75690000D01*
X134940199Y-75690000D01*
X135649733Y-76399535D01*
X135774733Y-76701312D01*
X136023688Y-76950267D01*
X136348963Y-77085000D01*
X136701037Y-77085000D01*
X137026312Y-76950267D01*
X137275267Y-76701312D01*
X137410000Y-76376037D01*
X137410000Y-76118521D01*
X137594104Y-76302624D01*
X137719103Y-76604400D01*
X137968058Y-76853355D01*
X138293333Y-76988088D01*
X138645407Y-76988088D01*
X138970682Y-76853355D01*
X139219637Y-76604400D01*
X139354370Y-76279125D01*
X139354370Y-75927051D01*
X139219637Y-75601776D01*
X138970682Y-75352821D01*
X138668906Y-75227822D01*
X137868110Y-74427026D01*
X137903432Y-74420000D01*
X138625346Y-74420000D01*
X138700193Y-74434888D01*
X138775040Y-74420000D01*
X138775045Y-74420000D01*
X138996730Y-74375904D01*
X139248122Y-74207929D01*
X139275181Y-74167432D01*
X139563953Y-74047819D01*
X139588379Y-74023393D01*
X139783006Y-74104010D01*
X140135080Y-74104010D01*
X140460355Y-73969277D01*
X140709310Y-73720322D01*
X140840335Y-73404000D01*
X141254186Y-73404000D01*
X141555963Y-73529000D01*
X141908037Y-73529000D01*
X142233312Y-73394267D01*
X142482267Y-73145312D01*
X142617000Y-72820037D01*
X142617000Y-72467963D01*
X142482267Y-72142688D01*
X142233312Y-71893733D01*
X141908037Y-71759000D01*
X141555963Y-71759000D01*
X141254186Y-71884000D01*
X138977852Y-71884000D01*
X138903005Y-71869112D01*
X138828158Y-71884000D01*
X138828154Y-71884000D01*
X138797646Y-71890069D01*
X138677312Y-71769735D01*
X138375535Y-71644735D01*
X137366329Y-70635530D01*
X137323927Y-70572071D01*
X137162422Y-70464157D01*
X137275267Y-70351312D01*
X137410000Y-70026037D01*
X137410000Y-69872239D01*
X137503847Y-69966086D01*
X138104778Y-70215000D01*
X138258271Y-70215000D01*
X138314733Y-70351312D01*
X138563688Y-70600267D01*
X138888963Y-70735000D01*
X139241037Y-70735000D01*
X139566312Y-70600267D01*
X139815267Y-70351312D01*
X139950000Y-70026037D01*
X139950000Y-69673963D01*
X139848289Y-69428409D01*
X140065000Y-68905222D01*
X140065000Y-68254778D01*
X139966022Y-68015824D01*
X140445001Y-68494803D01*
X140445002Y-69375150D01*
X140430113Y-69450001D01*
X140489098Y-69746538D01*
X140613144Y-69932185D01*
X140657073Y-69997930D01*
X140720529Y-70040330D01*
X140729733Y-70049534D01*
X140854733Y-70351312D01*
X141103688Y-70600267D01*
X141428963Y-70735000D01*
X141781037Y-70735000D01*
X142106312Y-70600267D01*
X142110327Y-70596253D01*
X142121674Y-70607600D01*
X142446949Y-70742333D01*
X142799023Y-70742333D01*
X143124298Y-70607600D01*
X143373253Y-70358645D01*
X143507986Y-70033370D01*
X143507986Y-69681296D01*
X143382986Y-69379519D01*
X143382986Y-68402832D01*
X143397874Y-68327985D01*
X143382986Y-68253138D01*
X143382986Y-68253134D01*
X143338890Y-68031449D01*
X143272450Y-67932015D01*
X143213315Y-67843512D01*
X143213313Y-67843510D01*
X143170915Y-67780057D01*
X143107462Y-67737659D01*
X140460000Y-65090199D01*
X140460000Y-64143178D01*
X140770625Y-63935625D01*
X141098839Y-63444418D01*
X141214092Y-62865000D01*
X141098839Y-62285582D01*
X140770625Y-61794375D01*
X140279418Y-61466161D01*
X139846256Y-61380000D01*
X139553744Y-61380000D01*
X139120582Y-61466161D01*
X138629375Y-61794375D01*
X138430000Y-62092761D01*
X138230625Y-61794375D01*
X137739418Y-61466161D01*
X137306256Y-61380000D01*
X137013744Y-61380000D01*
X136580582Y-61466161D01*
X136089375Y-61794375D01*
X135876157Y-62113478D01*
X135815183Y-61983642D01*
X135386924Y-61593355D01*
X134976890Y-61423524D01*
X134747000Y-61544845D01*
X134747000Y-62738000D01*
X134767000Y-62738000D01*
X134767000Y-62992000D01*
X134747000Y-62992000D01*
X134747000Y-63012000D01*
X134493000Y-63012000D01*
X134493000Y-62992000D01*
X134473000Y-62992000D01*
X134473000Y-62738000D01*
X134493000Y-62738000D01*
X134493000Y-61544845D01*
X134263110Y-61423524D01*
X133853076Y-61593355D01*
X133548739Y-61870708D01*
X133528157Y-61767235D01*
X133387809Y-61557191D01*
X133177765Y-61416843D01*
X132930000Y-61367560D01*
X131230000Y-61367560D01*
X130982235Y-61416843D01*
X130772191Y-61557191D01*
X130631843Y-61767235D01*
X130582560Y-62015000D01*
X130582560Y-63715000D01*
X130631843Y-63962765D01*
X130772191Y-64172809D01*
X130982235Y-64313157D01*
X131230000Y-64362440D01*
X131666757Y-64362440D01*
X127701199Y-68328000D01*
X122905814Y-68328000D01*
X122604037Y-68203000D01*
X122251963Y-68203000D01*
X121926688Y-68337733D01*
X121677733Y-68586688D01*
X121543000Y-68911963D01*
X121543000Y-69160198D01*
X119632000Y-67249199D01*
X119632000Y-66009814D01*
X119757000Y-65708037D01*
X119757000Y-65355963D01*
X119622267Y-65030688D01*
X119373312Y-64781733D01*
X119048037Y-64647000D01*
X118695963Y-64647000D01*
X118370688Y-64781733D01*
X118121733Y-65030688D01*
X117987000Y-65355963D01*
X117987000Y-65708037D01*
X118112001Y-66009817D01*
X118112000Y-67489153D01*
X118097112Y-67564000D01*
X118112000Y-67638847D01*
X118112000Y-67638851D01*
X118156096Y-67860536D01*
X118324071Y-68111929D01*
X118387530Y-68154331D01*
X120112792Y-69879594D01*
X120067369Y-69879594D01*
X119742094Y-70014327D01*
X119493139Y-70263282D01*
X119358406Y-70588557D01*
X119358406Y-70940631D01*
X119493139Y-71265906D01*
X119742094Y-71514861D01*
X120043872Y-71639861D01*
X121209011Y-72805001D01*
X118337440Y-72805001D01*
X118337440Y-71540000D01*
X118288157Y-71292235D01*
X118147809Y-71082191D01*
X117937765Y-70941843D01*
X117892381Y-70932816D01*
X117910625Y-70920625D01*
X118238839Y-70429418D01*
X118354092Y-69850000D01*
X118238839Y-69270582D01*
X117910625Y-68779375D01*
X117599714Y-68571631D01*
X117555904Y-68351382D01*
X117387929Y-68099990D01*
X117324473Y-68057590D01*
X116092412Y-66825530D01*
X116050010Y-66762071D01*
X115798618Y-66594096D01*
X115576933Y-66550000D01*
X115576928Y-66550000D01*
X115502081Y-66535112D01*
X115427234Y-66550000D01*
X114527440Y-66550000D01*
X114527440Y-66460000D01*
X114478157Y-66212235D01*
X114337809Y-66002191D01*
X114127765Y-65861843D01*
X113880000Y-65812560D01*
X112180000Y-65812560D01*
X111932235Y-65861843D01*
X111722191Y-66002191D01*
X111581843Y-66212235D01*
X111532560Y-66460000D01*
X111532560Y-66550000D01*
X110463440Y-66550000D01*
X110463440Y-66460000D01*
X110414157Y-66212235D01*
X110273809Y-66002191D01*
X110063765Y-65861843D01*
X109816000Y-65812560D01*
X108116000Y-65812560D01*
X107868235Y-65861843D01*
X107658191Y-66002191D01*
X107517843Y-66212235D01*
X107468560Y-66460000D01*
X107468560Y-68160000D01*
X107517843Y-68407765D01*
X107658191Y-68617809D01*
X107868235Y-68758157D01*
X107913619Y-68767184D01*
X107895375Y-68779375D01*
X107567161Y-69270582D01*
X107451908Y-69850000D01*
X107567161Y-70429418D01*
X107895375Y-70920625D01*
X108214478Y-71133843D01*
X108084642Y-71194817D01*
X107694355Y-71623076D01*
X107524524Y-72033110D01*
X107645845Y-72263000D01*
X108839000Y-72263000D01*
X108839000Y-72243000D01*
X109093000Y-72243000D01*
X109093000Y-72263000D01*
X110286155Y-72263000D01*
X110407476Y-72033110D01*
X110237645Y-71623076D01*
X109847358Y-71194817D01*
X109717522Y-71133843D01*
X110036625Y-70920625D01*
X110364839Y-70429418D01*
X110480092Y-69850000D01*
X110364839Y-69270582D01*
X110036625Y-68779375D01*
X110018381Y-68767184D01*
X110063765Y-68758157D01*
X110273809Y-68617809D01*
X110414157Y-68407765D01*
X110463440Y-68160000D01*
X110463440Y-68070000D01*
X111532560Y-68070000D01*
X111532560Y-68160000D01*
X111581843Y-68407765D01*
X111722191Y-68617809D01*
X111932235Y-68758157D01*
X111977619Y-68767184D01*
X111959375Y-68779375D01*
X111631161Y-69270582D01*
X111515908Y-69850000D01*
X111631161Y-70429418D01*
X111959375Y-70920625D01*
X112278478Y-71133843D01*
X112148642Y-71194817D01*
X111758355Y-71623076D01*
X111588524Y-72033110D01*
X111709845Y-72263000D01*
X112903000Y-72263000D01*
X112903000Y-72243000D01*
X113157000Y-72243000D01*
X113157000Y-72263000D01*
X114350155Y-72263000D01*
X114471476Y-72033110D01*
X114301645Y-71623076D01*
X113911358Y-71194817D01*
X113781522Y-71133843D01*
X114100625Y-70920625D01*
X114428839Y-70429418D01*
X114544092Y-69850000D01*
X114428839Y-69270582D01*
X114100625Y-68779375D01*
X114082381Y-68767184D01*
X114127765Y-68758157D01*
X114337809Y-68617809D01*
X114478157Y-68407765D01*
X114527440Y-68160000D01*
X114527440Y-68070000D01*
X115187280Y-68070000D01*
X115845673Y-68728394D01*
X115769375Y-68779375D01*
X115441161Y-69270582D01*
X115325908Y-69850000D01*
X115441161Y-70429418D01*
X115769375Y-70920625D01*
X115787619Y-70932816D01*
X115742235Y-70941843D01*
X115532191Y-71082191D01*
X115391843Y-71292235D01*
X115342560Y-71540000D01*
X115342560Y-72805001D01*
X114447407Y-72805001D01*
X114471476Y-72746890D01*
X114350155Y-72517000D01*
X113157000Y-72517000D01*
X113157000Y-72537000D01*
X112903000Y-72537000D01*
X112903000Y-72517000D01*
X111709845Y-72517000D01*
X111588524Y-72746890D01*
X111612593Y-72805001D01*
X110383407Y-72805001D01*
X110407476Y-72746890D01*
X110286155Y-72517000D01*
X109093000Y-72517000D01*
X109093000Y-72537000D01*
X108839000Y-72537000D01*
X108839000Y-72517000D01*
X107645845Y-72517000D01*
X107524524Y-72746890D01*
X107548593Y-72805001D01*
X103089804Y-72805001D01*
X102475267Y-72190465D01*
X102350267Y-71888688D01*
X102101312Y-71639733D01*
X101776037Y-71505000D01*
X101423963Y-71505000D01*
X101098688Y-71639733D01*
X100849733Y-71888688D01*
X100715000Y-72213963D01*
X88340000Y-72213963D01*
X88340000Y-54661325D01*
X88860497Y-55917916D01*
X91402084Y-58459503D01*
X94722827Y-59835000D01*
X98317173Y-59835000D01*
X101637916Y-58459503D01*
X102826275Y-57271144D01*
X106539417Y-60984286D01*
X106585999Y-61054001D01*
X106862199Y-61238552D01*
X107105763Y-61287000D01*
X107105766Y-61287000D01*
X107187999Y-61303357D01*
X107270232Y-61287000D01*
X116494133Y-61287000D01*
X122414415Y-67207283D01*
X122460999Y-67277001D01*
X122737199Y-67461552D01*
X122980763Y-67510000D01*
X122980767Y-67510000D01*
X123063000Y-67526357D01*
X123145233Y-67510000D01*
X124798252Y-67510000D01*
X124918963Y-67560000D01*
X125271037Y-67560000D01*
X125596312Y-67425267D01*
X125845267Y-67176312D01*
X125980000Y-66851037D01*
X125980000Y-66498963D01*
X125845267Y-66173688D01*
X125596312Y-65924733D01*
X125271037Y-65790000D01*
X124918963Y-65790000D01*
X124798252Y-65840000D01*
X123408868Y-65840000D01*
X117488587Y-59919720D01*
X117442001Y-59849999D01*
X117165801Y-59665448D01*
X117063591Y-59645117D01*
X119925916Y-58459503D01*
X122467503Y-55917916D01*
X123843000Y-52597173D01*
X123843000Y-49002827D01*
X122467503Y-45682084D01*
X119925916Y-43140497D01*
X118669325Y-42620000D01*
X129234675Y-42620000D01*
X127978084Y-43140497D01*
X127978084Y-43140497D01*
G37*
X127978084Y-43140497D02*
X125436497Y-45682084D01*
X124061000Y-49002827D01*
X124061000Y-52597173D01*
X125436497Y-55917916D01*
X127978084Y-58459503D01*
X131298827Y-59835000D01*
X134893173Y-59835000D01*
X138213916Y-58459503D01*
X139382628Y-57290791D01*
X145072814Y-57290791D01*
X146072578Y-58326611D01*
X149357195Y-59786274D01*
X152950374Y-59877859D01*
X156305088Y-58587423D01*
X156695422Y-58326611D01*
X157695186Y-57290791D01*
X151384000Y-50979605D01*
X145072814Y-57290791D01*
X139382628Y-57290791D01*
X140755503Y-55917916D01*
X142131000Y-52597173D01*
X142131000Y-52366374D01*
X142306141Y-52366374D01*
X143596577Y-55721088D01*
X143857389Y-56111422D01*
X144893209Y-57111186D01*
X151204395Y-50800000D01*
X144893209Y-44488814D01*
X143857389Y-45488578D01*
X142397726Y-48773195D01*
X142306141Y-52366374D01*
X142131000Y-52366374D01*
X142131000Y-49002827D01*
X140755503Y-45682084D01*
X138213916Y-43140497D01*
X136957325Y-42620000D01*
X147483485Y-42620000D01*
X146462912Y-43012577D01*
X146072578Y-43273389D01*
X145072814Y-44309209D01*
X151384000Y-50620395D01*
X157695186Y-44309209D01*
X156695422Y-43273389D01*
X155225129Y-42620000D01*
X157172052Y-42620000D01*
X157740253Y-42706851D01*
X158251198Y-42908022D01*
X158704868Y-43217385D01*
X159078729Y-43619576D01*
X159354194Y-44094598D01*
X159521467Y-44631340D01*
X159564000Y-44998941D01*
X159564000Y-46899485D01*
X159171423Y-45878912D01*
X158910611Y-45488578D01*
X157874791Y-44488814D01*
X151563605Y-50800000D01*
X157874791Y-57111186D01*
X158910611Y-56111422D01*
X159564000Y-54641128D01*
X159564001Y-81988046D01*
X159477149Y-82556253D01*
X159275980Y-83067194D01*
X158966614Y-83520868D01*
X158564424Y-83894729D01*
X158089401Y-84170195D01*
X157552660Y-84337467D01*
X157185059Y-84380000D01*
X90844693Y-84380000D01*
X90259870Y-84314401D01*
X89741835Y-84134003D01*
X89276636Y-83843315D01*
X88887403Y-83456790D01*
X88593475Y-82993633D01*
X88490444Y-82704287D01*
X88931000Y-82840000D01*
X89281000Y-82840000D01*
X89281000Y-81732000D01*
X89535000Y-81732000D01*
X89535000Y-82840000D01*
X89885000Y-82840000D01*
X90347947Y-82697390D01*
X90721080Y-82388474D01*
X90947592Y-81960281D01*
X90951462Y-81922609D01*
X90826731Y-81732000D01*
X89535000Y-81732000D01*
X89281000Y-81732000D01*
X89261000Y-81732000D01*
X89261000Y-81558398D01*
X91334207Y-81558398D01*
X91399122Y-81796753D01*
X91909146Y-81977312D01*
X92449444Y-81948949D01*
X92816878Y-81796753D01*
X92881793Y-81558398D01*
X92108000Y-80784605D01*
X91334207Y-81558398D01*
X89261000Y-81558398D01*
X89261000Y-81478000D01*
X89281000Y-81478000D01*
X89281000Y-80370000D01*
X89535000Y-80370000D01*
X89535000Y-81478000D01*
X90826731Y-81478000D01*
X90931424Y-81318012D01*
X91154602Y-81378793D01*
X91928395Y-80605000D01*
X92287605Y-80605000D01*
X93061398Y-81378793D01*
X93299753Y-81313878D01*
X93480312Y-80803854D01*
X93451949Y-80263556D01*
X93299753Y-79896122D01*
X93061398Y-79831207D01*
X92287605Y-80605000D01*
X91928395Y-80605000D01*
X91154602Y-79831207D01*
X90916247Y-79896122D01*
X90735688Y-80406146D01*
X90761505Y-80897945D01*
X90721080Y-80821526D01*
X90347947Y-80512610D01*
X89885000Y-80370000D01*
X89535000Y-80370000D01*
X89281000Y-80370000D01*
X88931000Y-80370000D01*
X88468053Y-80512610D01*
X88340000Y-80618625D01*
X88340000Y-79651602D01*
X91334207Y-79651602D01*
X92108000Y-80425395D01*
X92881793Y-79651602D01*
X92816878Y-79413247D01*
X92306854Y-79232688D01*
X91766556Y-79261051D01*
X91399122Y-79413247D01*
X91334207Y-79651602D01*
X88340000Y-79651602D01*
X88340000Y-79163906D01*
X95500989Y-79163906D01*
X95500989Y-79515980D01*
X95625990Y-79817759D01*
X95625989Y-80311963D01*
X95611101Y-80386811D01*
X95625989Y-80461658D01*
X95625989Y-80461662D01*
X95670085Y-80683347D01*
X95838060Y-80934740D01*
X95901519Y-80977142D01*
X98604873Y-83680498D01*
X98647271Y-83743951D01*
X98710724Y-83786349D01*
X98710726Y-83786351D01*
X98776429Y-83830252D01*
X98898663Y-83911926D01*
X99120348Y-83956022D01*
X99120352Y-83956022D01*
X99195199Y-83970910D01*
X99270046Y-83956022D01*
X137492697Y-83956022D01*
X137567544Y-83970910D01*
X137642391Y-83956022D01*
X137642396Y-83956022D01*
X137864081Y-83911926D01*
X138115473Y-83743951D01*
X138157875Y-83680492D01*
X142154489Y-79683880D01*
X142217942Y-79641482D01*
X142260340Y-79578029D01*
X142260342Y-79578027D01*
X142370444Y-79413247D01*
X142385917Y-79390090D01*
X142414327Y-79247265D01*
X142420280Y-79241312D01*
X142555013Y-78916037D01*
X142555013Y-78563963D01*
X142420280Y-78238688D01*
X142171325Y-77989733D01*
X141846050Y-77855000D01*
X141493976Y-77855000D01*
X141320007Y-77927060D01*
X141146037Y-77855000D01*
X140793963Y-77855000D01*
X140468688Y-77989733D01*
X140219733Y-78238688D01*
X140094733Y-78540465D01*
X136649188Y-81986011D01*
X118204033Y-81986011D01*
X118418625Y-81842625D01*
X118746839Y-81351418D01*
X118862092Y-80772000D01*
X118746839Y-80192582D01*
X118418625Y-79701375D01*
X118400381Y-79689184D01*
X118422532Y-79684778D01*
X129810000Y-79684778D01*
X129810000Y-80335222D01*
X130058914Y-80936153D01*
X130518847Y-81396086D01*
X131119778Y-81645000D01*
X131770222Y-81645000D01*
X132371153Y-81396086D01*
X132831086Y-80936153D01*
X132899909Y-80770000D01*
X136970999Y-80770000D01*
X137045846Y-80784888D01*
X137120693Y-80770000D01*
X137120698Y-80770000D01*
X137342383Y-80725904D01*
X137593775Y-80557929D01*
X137636177Y-80494471D01*
X138376954Y-79753695D01*
X138440407Y-79711297D01*
X138482805Y-79647844D01*
X138482807Y-79647842D01*
X138588095Y-79490267D01*
X138608382Y-79459905D01*
X138636792Y-79317080D01*
X138642745Y-79311127D01*
X138777478Y-78985852D01*
X138777478Y-78633778D01*
X138642745Y-78308503D01*
X138393790Y-78059548D01*
X138068515Y-77924815D01*
X137716441Y-77924815D01*
X137610513Y-77968692D01*
X137336037Y-77855000D01*
X136983963Y-77855000D01*
X136658688Y-77989733D01*
X136409733Y-78238688D01*
X136284733Y-78540466D01*
X136210199Y-78615000D01*
X135152239Y-78615000D01*
X135371086Y-78396153D01*
X135620000Y-77795222D01*
X135620000Y-77144778D01*
X135371086Y-76543847D01*
X134911153Y-76083914D01*
X134310222Y-75835000D01*
X133659778Y-75835000D01*
X133058847Y-76083914D01*
X132598914Y-76543847D01*
X132350000Y-77144778D01*
X132350000Y-77795222D01*
X132598914Y-78396153D01*
X133058847Y-78856086D01*
X133225000Y-78924909D01*
X133225000Y-79250000D01*
X132899909Y-79250000D01*
X132831086Y-79083847D01*
X132371153Y-78623914D01*
X131770222Y-78375000D01*
X131119778Y-78375000D01*
X130518847Y-78623914D01*
X130058914Y-79083847D01*
X129810000Y-79684778D01*
X118422532Y-79684778D01*
X118445765Y-79680157D01*
X118655809Y-79539809D01*
X118796157Y-79329765D01*
X118845440Y-79082000D01*
X118845440Y-77382000D01*
X118796157Y-77134235D01*
X118655809Y-76924191D01*
X118445765Y-76783843D01*
X118198000Y-76734560D01*
X116498000Y-76734560D01*
X116250235Y-76783843D01*
X116040191Y-76924191D01*
X115899843Y-77134235D01*
X115850560Y-77382000D01*
X115850560Y-79082000D01*
X115899843Y-79329765D01*
X116040191Y-79539809D01*
X116250235Y-79680157D01*
X116295619Y-79689184D01*
X116277375Y-79701375D01*
X115949161Y-80192582D01*
X115833908Y-80772000D01*
X115949161Y-81351418D01*
X116277375Y-81842625D01*
X116491967Y-81986011D01*
X111619898Y-81986011D01*
X111629000Y-81964037D01*
X111629000Y-81611963D01*
X111494267Y-81286688D01*
X111245312Y-81037733D01*
X110920037Y-80903000D01*
X110567963Y-80903000D01*
X110242688Y-81037733D01*
X109993733Y-81286688D01*
X109890465Y-81536000D01*
X100037251Y-81536000D01*
X98421000Y-79919750D01*
X98421000Y-79579961D01*
X98286267Y-79254686D01*
X98037312Y-79005731D01*
X97720992Y-78874707D01*
X97720992Y-77709449D01*
X97870904Y-77485090D01*
X97899314Y-77342265D01*
X97905267Y-77336312D01*
X98040000Y-77011037D01*
X98040000Y-76658963D01*
X97905267Y-76333688D01*
X97656312Y-76084733D01*
X97331037Y-75950000D01*
X96978963Y-75950000D01*
X96653688Y-76084733D01*
X96404733Y-76333688D01*
X96270000Y-76658963D01*
X96270000Y-77011037D01*
X96279641Y-77034313D01*
X96245089Y-77086024D01*
X96186104Y-77382561D01*
X96200993Y-77457413D01*
X96200993Y-78458654D01*
X95884677Y-78589676D01*
X95635722Y-78838631D01*
X95500989Y-79163906D01*
X88340000Y-79163906D01*
X88340000Y-76558398D01*
X91334207Y-76558398D01*
X91399122Y-76796753D01*
X91909146Y-76977312D01*
X92449444Y-76948949D01*
X92460000Y-76944577D01*
X92460000Y-77011037D01*
X92594733Y-77336312D01*
X92843688Y-77585267D01*
X93168963Y-77720000D01*
X93521037Y-77720000D01*
X93711363Y-77641165D01*
X93739733Y-77669534D01*
X93864733Y-77971312D01*
X94113688Y-78220267D01*
X94438963Y-78355000D01*
X94791037Y-78355000D01*
X95116312Y-78220267D01*
X95365267Y-77971312D01*
X95500000Y-77646037D01*
X95500000Y-77293963D01*
X95365267Y-76968688D01*
X95116312Y-76719733D01*
X94814534Y-76594733D01*
X94570331Y-76350530D01*
X94527929Y-76287071D01*
X94276537Y-76119096D01*
X94054852Y-76075000D01*
X94054847Y-76075000D01*
X93980000Y-76060112D01*
X93905153Y-76075000D01*
X93822814Y-76075000D01*
X93521037Y-75950000D01*
X93428573Y-75950000D01*
X93480312Y-75803854D01*
X93451949Y-75263556D01*
X93299753Y-74896122D01*
X93061398Y-74831207D01*
X92287605Y-75605000D01*
X92301748Y-75619143D01*
X92122143Y-75798748D01*
X92108000Y-75784605D01*
X91334207Y-76558398D01*
X88340000Y-76558398D01*
X88340000Y-75591375D01*
X88468053Y-75697390D01*
X88931000Y-75840000D01*
X89281000Y-75840000D01*
X89281000Y-74732000D01*
X89535000Y-74732000D01*
X89535000Y-75840000D01*
X89885000Y-75840000D01*
X90347947Y-75697390D01*
X90721080Y-75388474D01*
X90784158Y-75269232D01*
X90735688Y-75406146D01*
X90764051Y-75946444D01*
X90916247Y-76313878D01*
X91154602Y-76378793D01*
X91928395Y-75605000D01*
X91154602Y-74831207D01*
X90931424Y-74891988D01*
X90826731Y-74732000D01*
X89535000Y-74732000D01*
X89281000Y-74732000D01*
X89261000Y-74732000D01*
X89261000Y-74651602D01*
X91334207Y-74651602D01*
X92108000Y-75425395D01*
X92881793Y-74651602D01*
X92816878Y-74413247D01*
X92306854Y-74232688D01*
X91766556Y-74261051D01*
X91399122Y-74413247D01*
X91334207Y-74651602D01*
X89261000Y-74651602D01*
X89261000Y-74478000D01*
X89281000Y-74478000D01*
X89281000Y-73370000D01*
X89535000Y-73370000D01*
X89535000Y-74478000D01*
X90826731Y-74478000D01*
X90951462Y-74287391D01*
X90947592Y-74249719D01*
X90721080Y-73821526D01*
X90347947Y-73512610D01*
X89885000Y-73370000D01*
X89535000Y-73370000D01*
X89281000Y-73370000D01*
X88931000Y-73370000D01*
X88468053Y-73512610D01*
X88340000Y-73618625D01*
X88340000Y-72213963D01*
X100715000Y-72213963D01*
X100715000Y-72566037D01*
X100849733Y-72891312D01*
X101098688Y-73140267D01*
X101400465Y-73265267D01*
X102184674Y-74049477D01*
X102227072Y-74112930D01*
X102290525Y-74155328D01*
X102290527Y-74155330D01*
X102378477Y-74214096D01*
X102478464Y-74280905D01*
X102700149Y-74325001D01*
X102700153Y-74325001D01*
X102775000Y-74339889D01*
X102849847Y-74325001D01*
X124210000Y-74325001D01*
X124210000Y-74471037D01*
X124344733Y-74796312D01*
X124593688Y-75045267D01*
X124918963Y-75180000D01*
X125271037Y-75180000D01*
X125596312Y-75045267D01*
X125602265Y-75039314D01*
X125745090Y-75010904D01*
X125996482Y-74842929D01*
X126038883Y-74779471D01*
X126453356Y-74364999D01*
X129909320Y-74364999D01*
X129810000Y-74604778D01*
X129810000Y-75255222D01*
X130058914Y-75856153D01*
X130518847Y-76316086D01*
X131119778Y-76565000D01*
X131770222Y-76565000D01*
X132371153Y-76316086D01*
X132831086Y-75856153D01*
X132899909Y-75690000D01*
X134940199Y-75690000D01*
X135649733Y-76399535D01*
X135774733Y-76701312D01*
X136023688Y-76950267D01*
X136348963Y-77085000D01*
X136701037Y-77085000D01*
X137026312Y-76950267D01*
X137275267Y-76701312D01*
X137410000Y-76376037D01*
X137410000Y-76118521D01*
X137594104Y-76302624D01*
X137719103Y-76604400D01*
X137968058Y-76853355D01*
X138293333Y-76988088D01*
X138645407Y-76988088D01*
X138970682Y-76853355D01*
X139219637Y-76604400D01*
X139354370Y-76279125D01*
X139354370Y-75927051D01*
X139219637Y-75601776D01*
X138970682Y-75352821D01*
X138668906Y-75227822D01*
X137868110Y-74427026D01*
X137903432Y-74420000D01*
X138625346Y-74420000D01*
X138700193Y-74434888D01*
X138775040Y-74420000D01*
X138775045Y-74420000D01*
X138996730Y-74375904D01*
X139248122Y-74207929D01*
X139275181Y-74167432D01*
X139563953Y-74047819D01*
X139588379Y-74023393D01*
X139783006Y-74104010D01*
X140135080Y-74104010D01*
X140460355Y-73969277D01*
X140709310Y-73720322D01*
X140840335Y-73404000D01*
X141254186Y-73404000D01*
X141555963Y-73529000D01*
X141908037Y-73529000D01*
X142233312Y-73394267D01*
X142482267Y-73145312D01*
X142617000Y-72820037D01*
X142617000Y-72467963D01*
X142482267Y-72142688D01*
X142233312Y-71893733D01*
X141908037Y-71759000D01*
X141555963Y-71759000D01*
X141254186Y-71884000D01*
X138977852Y-71884000D01*
X138903005Y-71869112D01*
X138828158Y-71884000D01*
X138828154Y-71884000D01*
X138797646Y-71890069D01*
X138677312Y-71769735D01*
X138375535Y-71644735D01*
X137366329Y-70635530D01*
X137323927Y-70572071D01*
X137162422Y-70464157D01*
X137275267Y-70351312D01*
X137410000Y-70026037D01*
X137410000Y-69872239D01*
X137503847Y-69966086D01*
X138104778Y-70215000D01*
X138258271Y-70215000D01*
X138314733Y-70351312D01*
X138563688Y-70600267D01*
X138888963Y-70735000D01*
X139241037Y-70735000D01*
X139566312Y-70600267D01*
X139815267Y-70351312D01*
X139950000Y-70026037D01*
X139950000Y-69673963D01*
X139848289Y-69428409D01*
X140065000Y-68905222D01*
X140065000Y-68254778D01*
X139966022Y-68015824D01*
X140445001Y-68494803D01*
X140445002Y-69375150D01*
X140430113Y-69450001D01*
X140489098Y-69746538D01*
X140613144Y-69932185D01*
X140657073Y-69997930D01*
X140720529Y-70040330D01*
X140729733Y-70049534D01*
X140854733Y-70351312D01*
X141103688Y-70600267D01*
X141428963Y-70735000D01*
X141781037Y-70735000D01*
X142106312Y-70600267D01*
X142110327Y-70596253D01*
X142121674Y-70607600D01*
X142446949Y-70742333D01*
X142799023Y-70742333D01*
X143124298Y-70607600D01*
X143373253Y-70358645D01*
X143507986Y-70033370D01*
X143507986Y-69681296D01*
X143382986Y-69379519D01*
X143382986Y-68402832D01*
X143397874Y-68327985D01*
X143382986Y-68253138D01*
X143382986Y-68253134D01*
X143338890Y-68031449D01*
X143272450Y-67932015D01*
X143213315Y-67843512D01*
X143213313Y-67843510D01*
X143170915Y-67780057D01*
X143107462Y-67737659D01*
X140460000Y-65090199D01*
X140460000Y-64143178D01*
X140770625Y-63935625D01*
X141098839Y-63444418D01*
X141214092Y-62865000D01*
X141098839Y-62285582D01*
X140770625Y-61794375D01*
X140279418Y-61466161D01*
X139846256Y-61380000D01*
X139553744Y-61380000D01*
X139120582Y-61466161D01*
X138629375Y-61794375D01*
X138430000Y-62092761D01*
X138230625Y-61794375D01*
X137739418Y-61466161D01*
X137306256Y-61380000D01*
X137013744Y-61380000D01*
X136580582Y-61466161D01*
X136089375Y-61794375D01*
X135876157Y-62113478D01*
X135815183Y-61983642D01*
X135386924Y-61593355D01*
X134976890Y-61423524D01*
X134747000Y-61544845D01*
X134747000Y-62738000D01*
X134767000Y-62738000D01*
X134767000Y-62992000D01*
X134747000Y-62992000D01*
X134747000Y-63012000D01*
X134493000Y-63012000D01*
X134493000Y-62992000D01*
X134473000Y-62992000D01*
X134473000Y-62738000D01*
X134493000Y-62738000D01*
X134493000Y-61544845D01*
X134263110Y-61423524D01*
X133853076Y-61593355D01*
X133548739Y-61870708D01*
X133528157Y-61767235D01*
X133387809Y-61557191D01*
X133177765Y-61416843D01*
X132930000Y-61367560D01*
X131230000Y-61367560D01*
X130982235Y-61416843D01*
X130772191Y-61557191D01*
X130631843Y-61767235D01*
X130582560Y-62015000D01*
X130582560Y-63715000D01*
X130631843Y-63962765D01*
X130772191Y-64172809D01*
X130982235Y-64313157D01*
X131230000Y-64362440D01*
X131666757Y-64362440D01*
X127701199Y-68328000D01*
X122905814Y-68328000D01*
X122604037Y-68203000D01*
X122251963Y-68203000D01*
X121926688Y-68337733D01*
X121677733Y-68586688D01*
X121543000Y-68911963D01*
X121543000Y-69160198D01*
X119632000Y-67249199D01*
X119632000Y-66009814D01*
X119757000Y-65708037D01*
X119757000Y-65355963D01*
X119622267Y-65030688D01*
X119373312Y-64781733D01*
X119048037Y-64647000D01*
X118695963Y-64647000D01*
X118370688Y-64781733D01*
X118121733Y-65030688D01*
X117987000Y-65355963D01*
X117987000Y-65708037D01*
X118112001Y-66009817D01*
X118112000Y-67489153D01*
X118097112Y-67564000D01*
X118112000Y-67638847D01*
X118112000Y-67638851D01*
X118156096Y-67860536D01*
X118324071Y-68111929D01*
X118387530Y-68154331D01*
X120112792Y-69879594D01*
X120067369Y-69879594D01*
X119742094Y-70014327D01*
X119493139Y-70263282D01*
X119358406Y-70588557D01*
X119358406Y-70940631D01*
X119493139Y-71265906D01*
X119742094Y-71514861D01*
X120043872Y-71639861D01*
X121209011Y-72805001D01*
X118337440Y-72805001D01*
X118337440Y-71540000D01*
X118288157Y-71292235D01*
X118147809Y-71082191D01*
X117937765Y-70941843D01*
X117892381Y-70932816D01*
X117910625Y-70920625D01*
X118238839Y-70429418D01*
X118354092Y-69850000D01*
X118238839Y-69270582D01*
X117910625Y-68779375D01*
X117599714Y-68571631D01*
X117555904Y-68351382D01*
X117387929Y-68099990D01*
X117324473Y-68057590D01*
X116092412Y-66825530D01*
X116050010Y-66762071D01*
X115798618Y-66594096D01*
X115576933Y-66550000D01*
X115576928Y-66550000D01*
X115502081Y-66535112D01*
X115427234Y-66550000D01*
X114527440Y-66550000D01*
X114527440Y-66460000D01*
X114478157Y-66212235D01*
X114337809Y-66002191D01*
X114127765Y-65861843D01*
X113880000Y-65812560D01*
X112180000Y-65812560D01*
X111932235Y-65861843D01*
X111722191Y-66002191D01*
X111581843Y-66212235D01*
X111532560Y-66460000D01*
X111532560Y-66550000D01*
X110463440Y-66550000D01*
X110463440Y-66460000D01*
X110414157Y-66212235D01*
X110273809Y-66002191D01*
X110063765Y-65861843D01*
X109816000Y-65812560D01*
X108116000Y-65812560D01*
X107868235Y-65861843D01*
X107658191Y-66002191D01*
X107517843Y-66212235D01*
X107468560Y-66460000D01*
X107468560Y-68160000D01*
X107517843Y-68407765D01*
X107658191Y-68617809D01*
X107868235Y-68758157D01*
X107913619Y-68767184D01*
X107895375Y-68779375D01*
X107567161Y-69270582D01*
X107451908Y-69850000D01*
X107567161Y-70429418D01*
X107895375Y-70920625D01*
X108214478Y-71133843D01*
X108084642Y-71194817D01*
X107694355Y-71623076D01*
X107524524Y-72033110D01*
X107645845Y-72263000D01*
X108839000Y-72263000D01*
X108839000Y-72243000D01*
X109093000Y-72243000D01*
X109093000Y-72263000D01*
X110286155Y-72263000D01*
X110407476Y-72033110D01*
X110237645Y-71623076D01*
X109847358Y-71194817D01*
X109717522Y-71133843D01*
X110036625Y-70920625D01*
X110364839Y-70429418D01*
X110480092Y-69850000D01*
X110364839Y-69270582D01*
X110036625Y-68779375D01*
X110018381Y-68767184D01*
X110063765Y-68758157D01*
X110273809Y-68617809D01*
X110414157Y-68407765D01*
X110463440Y-68160000D01*
X110463440Y-68070000D01*
X111532560Y-68070000D01*
X111532560Y-68160000D01*
X111581843Y-68407765D01*
X111722191Y-68617809D01*
X111932235Y-68758157D01*
X111977619Y-68767184D01*
X111959375Y-68779375D01*
X111631161Y-69270582D01*
X111515908Y-69850000D01*
X111631161Y-70429418D01*
X111959375Y-70920625D01*
X112278478Y-71133843D01*
X112148642Y-71194817D01*
X111758355Y-71623076D01*
X111588524Y-72033110D01*
X111709845Y-72263000D01*
X112903000Y-72263000D01*
X112903000Y-72243000D01*
X113157000Y-72243000D01*
X113157000Y-72263000D01*
X114350155Y-72263000D01*
X114471476Y-72033110D01*
X114301645Y-71623076D01*
X113911358Y-71194817D01*
X113781522Y-71133843D01*
X114100625Y-70920625D01*
X114428839Y-70429418D01*
X114544092Y-69850000D01*
X114428839Y-69270582D01*
X114100625Y-68779375D01*
X114082381Y-68767184D01*
X114127765Y-68758157D01*
X114337809Y-68617809D01*
X114478157Y-68407765D01*
X114527440Y-68160000D01*
X114527440Y-68070000D01*
X115187280Y-68070000D01*
X115845673Y-68728394D01*
X115769375Y-68779375D01*
X115441161Y-69270582D01*
X115325908Y-69850000D01*
X115441161Y-70429418D01*
X115769375Y-70920625D01*
X115787619Y-70932816D01*
X115742235Y-70941843D01*
X115532191Y-71082191D01*
X115391843Y-71292235D01*
X115342560Y-71540000D01*
X115342560Y-72805001D01*
X114447407Y-72805001D01*
X114471476Y-72746890D01*
X114350155Y-72517000D01*
X113157000Y-72517000D01*
X113157000Y-72537000D01*
X112903000Y-72537000D01*
X112903000Y-72517000D01*
X111709845Y-72517000D01*
X111588524Y-72746890D01*
X111612593Y-72805001D01*
X110383407Y-72805001D01*
X110407476Y-72746890D01*
X110286155Y-72517000D01*
X109093000Y-72517000D01*
X109093000Y-72537000D01*
X108839000Y-72537000D01*
X108839000Y-72517000D01*
X107645845Y-72517000D01*
X107524524Y-72746890D01*
X107548593Y-72805001D01*
X103089804Y-72805001D01*
X102475267Y-72190465D01*
X102350267Y-71888688D01*
X102101312Y-71639733D01*
X101776037Y-71505000D01*
X101423963Y-71505000D01*
X101098688Y-71639733D01*
X100849733Y-71888688D01*
X100715000Y-72213963D01*
X88340000Y-72213963D01*
X88340000Y-54661325D01*
X88860497Y-55917916D01*
X91402084Y-58459503D01*
X94722827Y-59835000D01*
X98317173Y-59835000D01*
X101637916Y-58459503D01*
X102826275Y-57271144D01*
X106539417Y-60984286D01*
X106585999Y-61054001D01*
X106862199Y-61238552D01*
X107105763Y-61287000D01*
X107105766Y-61287000D01*
X107187999Y-61303357D01*
X107270232Y-61287000D01*
X116494133Y-61287000D01*
X122414415Y-67207283D01*
X122460999Y-67277001D01*
X122737199Y-67461552D01*
X122980763Y-67510000D01*
X122980767Y-67510000D01*
X123063000Y-67526357D01*
X123145233Y-67510000D01*
X124798252Y-67510000D01*
X124918963Y-67560000D01*
X125271037Y-67560000D01*
X125596312Y-67425267D01*
X125845267Y-67176312D01*
X125980000Y-66851037D01*
X125980000Y-66498963D01*
X125845267Y-66173688D01*
X125596312Y-65924733D01*
X125271037Y-65790000D01*
X124918963Y-65790000D01*
X124798252Y-65840000D01*
X123408868Y-65840000D01*
X117488587Y-59919720D01*
X117442001Y-59849999D01*
X117165801Y-59665448D01*
X117063591Y-59645117D01*
X119925916Y-58459503D01*
X122467503Y-55917916D01*
X123843000Y-52597173D01*
X123843000Y-49002827D01*
X122467503Y-45682084D01*
X119925916Y-43140497D01*
X118669325Y-42620000D01*
X129234675Y-42620000D01*
X127978084Y-43140497D01*
G36*
X109690084Y-43140497D02*
X107148497Y-45682084D01*
X105773000Y-49002827D01*
X105773000Y-52597173D01*
X107148497Y-55917916D01*
X109690084Y-58459503D01*
X112484529Y-59617000D01*
X107533869Y-59617000D01*
X104007144Y-56090275D01*
X104179503Y-55917916D01*
X105555000Y-52597173D01*
X105555000Y-49002827D01*
X104179503Y-45682084D01*
X101637916Y-43140497D01*
X100381325Y-42620000D01*
X110946675Y-42620000D01*
X109690084Y-43140497D01*
X109690084Y-43140497D01*
G37*
X109690084Y-43140497D02*
X107148497Y-45682084D01*
X105773000Y-49002827D01*
X105773000Y-52597173D01*
X107148497Y-55917916D01*
X109690084Y-58459503D01*
X112484529Y-59617000D01*
X107533869Y-59617000D01*
X104007144Y-56090275D01*
X104179503Y-55917916D01*
X105555000Y-52597173D01*
X105555000Y-49002827D01*
X104179503Y-45682084D01*
X101637916Y-43140497D01*
X100381325Y-42620000D01*
X110946675Y-42620000D01*
X109690084Y-43140497D01*
G04 #@! TD*
M02*
