M48
;DRILL file {KiCad (5.0.1-3-g963ef8bb5)} date 2018 November 12, Monday 01:28:15
;FORMAT={-:-/ absolute / metric / decimal}
FMAT,2
METRIC,TZ
T1C0.300
T2C0.600
T3C0.850
T4C1.000
T5C8.400
%
G90
G05
M71
T1
X88.392Y-56.896
X88.392Y-57.912
X88.392Y-58.928
X88.392Y-59.944
X88.392Y-60.96
X88.392Y-61.976
X88.392Y-62.992
X88.392Y-64.008
X88.392Y-65.024
X88.392Y-66.04
X88.392Y-67.056
X88.392Y-68.072
X88.392Y-69.088
X88.392Y-70.104
X88.392Y-71.12
X88.392Y-72.136
X88.392Y-73.152
X89.408Y-83.82
X90.424Y-84.328
X91.44Y-84.328
X92.456Y-84.328
X93.345Y-76.835
X93.472Y-84.328
X94.488Y-84.328
X94.615Y-77.47
X95.504Y-84.328
X96.386Y-79.34
X96.52Y-84.328
X97.155Y-76.835
X97.536Y-79.756
X97.536Y-84.328
X98.552Y-84.328
X99.568Y-81.28
X99.568Y-84.328
X100.33Y-77.47
X100.584Y-81.467
X100.584Y-84.328
X101.6Y-42.672
X101.6Y-72.39
X101.6Y-81.467
X101.6Y-84.328
X102.616Y-42.672
X102.616Y-81.467
X102.616Y-84.328
X103.632Y-42.672
X103.632Y-81.467
X103.632Y-84.328
X104.648Y-42.672
X104.648Y-81.467
X104.648Y-84.328
X105.156Y-62.484
X105.664Y-42.672
X105.664Y-81.467
X105.664Y-84.328
X106.172Y-62.484
X106.68Y-42.672
X106.68Y-81.467
X106.68Y-84.328
X107.188Y-62.484
X107.696Y-42.672
X107.696Y-81.467
X107.696Y-84.328
X108.204Y-62.484
X108.712Y-42.672
X108.712Y-81.467
X108.712Y-84.328
X109.22Y-62.484
X109.728Y-42.672
X109.728Y-81.467
X109.728Y-84.328
X110.236Y-62.484
X110.744Y-81.788
X110.744Y-84.328
X111.252Y-62.484
X111.76Y-84.328
X112.268Y-62.484
X112.776Y-84.328
X112.776Y-79.756
X113.284Y-62.484
X113.792Y-84.328
X114.3Y-62.484
X114.808Y-84.328
X115.824Y-84.328
X116.84Y-84.328
X117.856Y-84.328
X118.872Y-65.532
X118.872Y-84.328
X119.38Y-42.672
X119.888Y-84.328
X120.243Y-70.765
X120.396Y-42.672
X120.396Y-81.28
X120.904Y-84.328
X121.412Y-42.672
X121.412Y-81.28
X121.92Y-71.628
X121.92Y-84.328
X122.428Y-42.672
X122.428Y-69.088
X122.428Y-81.28
X122.936Y-84.328
X123.19Y-68.158
X123.444Y-42.672
X123.444Y-81.28
X123.825Y-68.158
X123.952Y-84.328
X124.46Y-42.672
X124.46Y-68.158
X124.46Y-81.28
X124.968Y-84.328
X125.095Y-66.675
X125.095Y-68.158
X125.095Y-74.295
X125.476Y-42.672
X125.476Y-81.28
X125.73Y-68.158
X125.984Y-84.328
X126.492Y-42.672
X126.492Y-81.28
X127.Y-84.328
X127.508Y-42.672
X127.508Y-81.28
X128.016Y-84.328
X128.524Y-42.672
X128.524Y-81.28
X129.032Y-69.088
X129.032Y-84.328
X130.048Y-84.328
X131.064Y-84.328
X131.572Y-72.13
X132.08Y-84.328
X133.096Y-84.328
X134.112Y-84.328
X135.128Y-84.328
X136.144Y-64.008
X136.144Y-84.328
X136.525Y-69.85
X136.525Y-76.2
X136.582Y-69.093
X137.16Y-78.74
X137.16Y-84.328
X137.668Y-42.672
X137.892Y-78.81
X138.176Y-72.52
X138.176Y-84.328
X138.469Y-76.103
X138.684Y-42.672
X139.063Y-73.298
X139.065Y-69.85
X139.065Y-78.74
X139.192Y-84.328
X139.7Y-42.672
X139.959Y-73.219
X140.208Y-84.328
X140.716Y-42.672
X140.97Y-78.74
X141.224Y-84.328
X141.605Y-69.85
X141.67Y-78.74
X141.732Y-42.672
X141.732Y-72.644
X142.24Y-84.328
X142.623Y-69.857
X142.748Y-42.672
X143.256Y-84.328
X143.764Y-42.672
X144.272Y-84.328
X144.78Y-42.672
X145.288Y-84.328
X145.796Y-42.672
X146.304Y-84.328
X146.812Y-42.672
X147.32Y-84.328
X148.336Y-84.328
X149.352Y-84.328
X159.512Y-57.912
X159.512Y-58.928
X159.512Y-59.944
X159.512Y-60.96
X159.512Y-61.976
X159.512Y-62.992
X159.512Y-64.008
X159.512Y-65.024
X159.512Y-66.04
X159.512Y-67.056
X159.512Y-68.072
X159.512Y-69.088
X159.512Y-70.104
X159.512Y-71.12
X159.512Y-72.136
X159.512Y-73.152
X159.512Y-74.168
X159.512Y-75.184
T3
X92.108Y-75.605
X92.108Y-80.605
T4
X113.03Y-67.31
X113.03Y-69.85
X113.03Y-72.39
X108.966Y-67.31
X108.966Y-69.85
X108.966Y-72.39
X132.08Y-62.865
X134.62Y-62.865
X137.16Y-62.865
X139.7Y-62.865
X117.348Y-78.232
X117.348Y-80.772
X116.84Y-69.85
X116.84Y-72.39
T5
X133.096Y-50.8
X114.808Y-50.8
X96.52Y-50.8
X151.384Y-50.8
T2
X89.058Y-74.605G85X89.758Y-74.605
G05
X89.758Y-81.605G85X89.058Y-81.605
G05
T0
M30
