G04 #@! TF.GenerationSoftware,KiCad,Pcbnew,(5.0.1-3-g963ef8bb5)*
G04 #@! TF.CreationDate,2018-11-12T01:28:12+01:00*
G04 #@! TF.ProjectId,MCUmeter,4D43556D657465722E6B696361645F70,rev?*
G04 #@! TF.SameCoordinates,Original*
G04 #@! TF.FileFunction,Copper,L1,Top,Signal*
G04 #@! TF.FilePolarity,Positive*
%FSLAX46Y46*%
G04 Gerber Fmt 4.6, Leading zero omitted, Abs format (unit mm)*
G04 Created by KiCad (PCBNEW (5.0.1-3-g963ef8bb5)) date 2018 November 12, Monday 01:28:12*
%MOMM*%
%LPD*%
G01*
G04 APERTURE LIST*
G04 #@! TA.AperFunction,ComponentPad*
%ADD10O,1.700000X1.700000*%
G04 #@! TD*
G04 #@! TA.AperFunction,ComponentPad*
%ADD11R,1.700000X1.700000*%
G04 #@! TD*
G04 #@! TA.AperFunction,ComponentPad*
%ADD12C,16.800000*%
G04 #@! TD*
G04 #@! TA.AperFunction,Conductor*
%ADD13C,0.100000*%
G04 #@! TD*
G04 #@! TA.AperFunction,SMDPad,CuDef*
%ADD14C,0.875000*%
G04 #@! TD*
G04 #@! TA.AperFunction,SMDPad,CuDef*
%ADD15R,2.400000X0.740000*%
G04 #@! TD*
G04 #@! TA.AperFunction,SMDPad,CuDef*
%ADD16R,1.900000X1.500000*%
G04 #@! TD*
G04 #@! TA.AperFunction,ComponentPad*
%ADD17C,1.450000*%
G04 #@! TD*
G04 #@! TA.AperFunction,SMDPad,CuDef*
%ADD18R,1.350000X0.400000*%
G04 #@! TD*
G04 #@! TA.AperFunction,ComponentPad*
%ADD19O,1.900000X1.200000*%
G04 #@! TD*
G04 #@! TA.AperFunction,SMDPad,CuDef*
%ADD20R,1.900000X1.200000*%
G04 #@! TD*
G04 #@! TA.AperFunction,SMDPad,CuDef*
%ADD21R,1.000000X2.750000*%
G04 #@! TD*
G04 #@! TA.AperFunction,SMDPad,CuDef*
%ADD22R,1.060000X0.650000*%
G04 #@! TD*
G04 #@! TA.AperFunction,SMDPad,CuDef*
%ADD23R,0.450000X1.450000*%
G04 #@! TD*
G04 #@! TA.AperFunction,SMDPad,CuDef*
%ADD24R,1.500000X0.450000*%
G04 #@! TD*
G04 #@! TA.AperFunction,ViaPad*
%ADD25C,0.500000*%
G04 #@! TD*
G04 #@! TA.AperFunction,Conductor*
%ADD26C,0.250000*%
G04 #@! TD*
G04 #@! TA.AperFunction,Conductor*
%ADD27C,0.400000*%
G04 #@! TD*
G04 #@! TA.AperFunction,Conductor*
%ADD28C,3.000000*%
G04 #@! TD*
G04 #@! TA.AperFunction,Conductor*
%ADD29C,0.254000*%
G04 #@! TD*
G04 APERTURE END LIST*
D10*
G04 #@! TO.P,J6,3*
G04 #@! TO.N,GND*
X113030000Y-72390000D03*
G04 #@! TO.P,J6,2*
G04 #@! TO.N,Net-(J6-Pad2)*
X113030000Y-69850000D03*
D11*
G04 #@! TO.P,J6,1*
G04 #@! TO.N,+3V3*
X113030000Y-67310000D03*
G04 #@! TD*
G04 #@! TO.P,J5,1*
G04 #@! TO.N,+3V3*
X108966000Y-67310000D03*
D10*
G04 #@! TO.P,J5,2*
G04 #@! TO.N,Net-(J5-Pad2)*
X108966000Y-69850000D03*
G04 #@! TO.P,J5,3*
G04 #@! TO.N,GND*
X108966000Y-72390000D03*
G04 #@! TD*
D12*
G04 #@! TO.P,H1,1*
G04 #@! TO.N,/HIGH*
X96520000Y-50800000D03*
G04 #@! TD*
G04 #@! TO.P,H2,1*
G04 #@! TO.N,/IN+*
X114808000Y-50800000D03*
G04 #@! TD*
G04 #@! TO.P,H3,1*
G04 #@! TO.N,/IN-*
X133096000Y-50800000D03*
G04 #@! TD*
G04 #@! TO.P,H4,1*
G04 #@! TO.N,GND*
X151384000Y-50800000D03*
G04 #@! TD*
D11*
G04 #@! TO.P,J9,1*
G04 #@! TO.N,Net-(J9-Pad1)*
X117348000Y-78232000D03*
D10*
G04 #@! TO.P,J9,2*
G04 #@! TO.N,/VBUS*
X117348000Y-80772000D03*
G04 #@! TD*
D13*
G04 #@! TO.N,GND*
G04 #@! TO.C,C1*
G36*
X114577691Y-77998553D02*
X114598926Y-78001703D01*
X114619750Y-78006919D01*
X114639962Y-78014151D01*
X114659368Y-78023330D01*
X114677781Y-78034366D01*
X114695024Y-78047154D01*
X114710930Y-78061570D01*
X114725346Y-78077476D01*
X114738134Y-78094719D01*
X114749170Y-78113132D01*
X114758349Y-78132538D01*
X114765581Y-78152750D01*
X114770797Y-78173574D01*
X114773947Y-78194809D01*
X114775000Y-78216250D01*
X114775000Y-78653750D01*
X114773947Y-78675191D01*
X114770797Y-78696426D01*
X114765581Y-78717250D01*
X114758349Y-78737462D01*
X114749170Y-78756868D01*
X114738134Y-78775281D01*
X114725346Y-78792524D01*
X114710930Y-78808430D01*
X114695024Y-78822846D01*
X114677781Y-78835634D01*
X114659368Y-78846670D01*
X114639962Y-78855849D01*
X114619750Y-78863081D01*
X114598926Y-78868297D01*
X114577691Y-78871447D01*
X114556250Y-78872500D01*
X114043750Y-78872500D01*
X114022309Y-78871447D01*
X114001074Y-78868297D01*
X113980250Y-78863081D01*
X113960038Y-78855849D01*
X113940632Y-78846670D01*
X113922219Y-78835634D01*
X113904976Y-78822846D01*
X113889070Y-78808430D01*
X113874654Y-78792524D01*
X113861866Y-78775281D01*
X113850830Y-78756868D01*
X113841651Y-78737462D01*
X113834419Y-78717250D01*
X113829203Y-78696426D01*
X113826053Y-78675191D01*
X113825000Y-78653750D01*
X113825000Y-78216250D01*
X113826053Y-78194809D01*
X113829203Y-78173574D01*
X113834419Y-78152750D01*
X113841651Y-78132538D01*
X113850830Y-78113132D01*
X113861866Y-78094719D01*
X113874654Y-78077476D01*
X113889070Y-78061570D01*
X113904976Y-78047154D01*
X113922219Y-78034366D01*
X113940632Y-78023330D01*
X113960038Y-78014151D01*
X113980250Y-78006919D01*
X114001074Y-78001703D01*
X114022309Y-77998553D01*
X114043750Y-77997500D01*
X114556250Y-77997500D01*
X114577691Y-77998553D01*
X114577691Y-77998553D01*
G37*
D14*
G04 #@! TD*
G04 #@! TO.P,C1,2*
G04 #@! TO.N,GND*
X114300000Y-78435000D03*
D13*
G04 #@! TO.N,/VBUS*
G04 #@! TO.C,C1*
G36*
X114577691Y-79573553D02*
X114598926Y-79576703D01*
X114619750Y-79581919D01*
X114639962Y-79589151D01*
X114659368Y-79598330D01*
X114677781Y-79609366D01*
X114695024Y-79622154D01*
X114710930Y-79636570D01*
X114725346Y-79652476D01*
X114738134Y-79669719D01*
X114749170Y-79688132D01*
X114758349Y-79707538D01*
X114765581Y-79727750D01*
X114770797Y-79748574D01*
X114773947Y-79769809D01*
X114775000Y-79791250D01*
X114775000Y-80228750D01*
X114773947Y-80250191D01*
X114770797Y-80271426D01*
X114765581Y-80292250D01*
X114758349Y-80312462D01*
X114749170Y-80331868D01*
X114738134Y-80350281D01*
X114725346Y-80367524D01*
X114710930Y-80383430D01*
X114695024Y-80397846D01*
X114677781Y-80410634D01*
X114659368Y-80421670D01*
X114639962Y-80430849D01*
X114619750Y-80438081D01*
X114598926Y-80443297D01*
X114577691Y-80446447D01*
X114556250Y-80447500D01*
X114043750Y-80447500D01*
X114022309Y-80446447D01*
X114001074Y-80443297D01*
X113980250Y-80438081D01*
X113960038Y-80430849D01*
X113940632Y-80421670D01*
X113922219Y-80410634D01*
X113904976Y-80397846D01*
X113889070Y-80383430D01*
X113874654Y-80367524D01*
X113861866Y-80350281D01*
X113850830Y-80331868D01*
X113841651Y-80312462D01*
X113834419Y-80292250D01*
X113829203Y-80271426D01*
X113826053Y-80250191D01*
X113825000Y-80228750D01*
X113825000Y-79791250D01*
X113826053Y-79769809D01*
X113829203Y-79748574D01*
X113834419Y-79727750D01*
X113841651Y-79707538D01*
X113850830Y-79688132D01*
X113861866Y-79669719D01*
X113874654Y-79652476D01*
X113889070Y-79636570D01*
X113904976Y-79622154D01*
X113922219Y-79609366D01*
X113940632Y-79598330D01*
X113960038Y-79589151D01*
X113980250Y-79581919D01*
X114001074Y-79576703D01*
X114022309Y-79573553D01*
X114043750Y-79572500D01*
X114556250Y-79572500D01*
X114577691Y-79573553D01*
X114577691Y-79573553D01*
G37*
D14*
G04 #@! TD*
G04 #@! TO.P,C1,1*
G04 #@! TO.N,/VBUS*
X114300000Y-80010000D03*
D13*
G04 #@! TO.N,+3V3*
G04 #@! TO.C,C2*
G36*
X139305191Y-68106053D02*
X139326426Y-68109203D01*
X139347250Y-68114419D01*
X139367462Y-68121651D01*
X139386868Y-68130830D01*
X139405281Y-68141866D01*
X139422524Y-68154654D01*
X139438430Y-68169070D01*
X139452846Y-68184976D01*
X139465634Y-68202219D01*
X139476670Y-68220632D01*
X139485849Y-68240038D01*
X139493081Y-68260250D01*
X139498297Y-68281074D01*
X139501447Y-68302309D01*
X139502500Y-68323750D01*
X139502500Y-68836250D01*
X139501447Y-68857691D01*
X139498297Y-68878926D01*
X139493081Y-68899750D01*
X139485849Y-68919962D01*
X139476670Y-68939368D01*
X139465634Y-68957781D01*
X139452846Y-68975024D01*
X139438430Y-68990930D01*
X139422524Y-69005346D01*
X139405281Y-69018134D01*
X139386868Y-69029170D01*
X139367462Y-69038349D01*
X139347250Y-69045581D01*
X139326426Y-69050797D01*
X139305191Y-69053947D01*
X139283750Y-69055000D01*
X138846250Y-69055000D01*
X138824809Y-69053947D01*
X138803574Y-69050797D01*
X138782750Y-69045581D01*
X138762538Y-69038349D01*
X138743132Y-69029170D01*
X138724719Y-69018134D01*
X138707476Y-69005346D01*
X138691570Y-68990930D01*
X138677154Y-68975024D01*
X138664366Y-68957781D01*
X138653330Y-68939368D01*
X138644151Y-68919962D01*
X138636919Y-68899750D01*
X138631703Y-68878926D01*
X138628553Y-68857691D01*
X138627500Y-68836250D01*
X138627500Y-68323750D01*
X138628553Y-68302309D01*
X138631703Y-68281074D01*
X138636919Y-68260250D01*
X138644151Y-68240038D01*
X138653330Y-68220632D01*
X138664366Y-68202219D01*
X138677154Y-68184976D01*
X138691570Y-68169070D01*
X138707476Y-68154654D01*
X138724719Y-68141866D01*
X138743132Y-68130830D01*
X138762538Y-68121651D01*
X138782750Y-68114419D01*
X138803574Y-68109203D01*
X138824809Y-68106053D01*
X138846250Y-68105000D01*
X139283750Y-68105000D01*
X139305191Y-68106053D01*
X139305191Y-68106053D01*
G37*
D14*
G04 #@! TD*
G04 #@! TO.P,C2,1*
G04 #@! TO.N,+3V3*
X139065000Y-68580000D03*
D13*
G04 #@! TO.N,GND*
G04 #@! TO.C,C2*
G36*
X140880191Y-68106053D02*
X140901426Y-68109203D01*
X140922250Y-68114419D01*
X140942462Y-68121651D01*
X140961868Y-68130830D01*
X140980281Y-68141866D01*
X140997524Y-68154654D01*
X141013430Y-68169070D01*
X141027846Y-68184976D01*
X141040634Y-68202219D01*
X141051670Y-68220632D01*
X141060849Y-68240038D01*
X141068081Y-68260250D01*
X141073297Y-68281074D01*
X141076447Y-68302309D01*
X141077500Y-68323750D01*
X141077500Y-68836250D01*
X141076447Y-68857691D01*
X141073297Y-68878926D01*
X141068081Y-68899750D01*
X141060849Y-68919962D01*
X141051670Y-68939368D01*
X141040634Y-68957781D01*
X141027846Y-68975024D01*
X141013430Y-68990930D01*
X140997524Y-69005346D01*
X140980281Y-69018134D01*
X140961868Y-69029170D01*
X140942462Y-69038349D01*
X140922250Y-69045581D01*
X140901426Y-69050797D01*
X140880191Y-69053947D01*
X140858750Y-69055000D01*
X140421250Y-69055000D01*
X140399809Y-69053947D01*
X140378574Y-69050797D01*
X140357750Y-69045581D01*
X140337538Y-69038349D01*
X140318132Y-69029170D01*
X140299719Y-69018134D01*
X140282476Y-69005346D01*
X140266570Y-68990930D01*
X140252154Y-68975024D01*
X140239366Y-68957781D01*
X140228330Y-68939368D01*
X140219151Y-68919962D01*
X140211919Y-68899750D01*
X140206703Y-68878926D01*
X140203553Y-68857691D01*
X140202500Y-68836250D01*
X140202500Y-68323750D01*
X140203553Y-68302309D01*
X140206703Y-68281074D01*
X140211919Y-68260250D01*
X140219151Y-68240038D01*
X140228330Y-68220632D01*
X140239366Y-68202219D01*
X140252154Y-68184976D01*
X140266570Y-68169070D01*
X140282476Y-68154654D01*
X140299719Y-68141866D01*
X140318132Y-68130830D01*
X140337538Y-68121651D01*
X140357750Y-68114419D01*
X140378574Y-68109203D01*
X140399809Y-68106053D01*
X140421250Y-68105000D01*
X140858750Y-68105000D01*
X140880191Y-68106053D01*
X140880191Y-68106053D01*
G37*
D14*
G04 #@! TD*
G04 #@! TO.P,C2,2*
G04 #@! TO.N,GND*
X140640000Y-68580000D03*
D13*
G04 #@! TO.N,+3V3*
G04 #@! TO.C,C3*
G36*
X141515191Y-79536053D02*
X141536426Y-79539203D01*
X141557250Y-79544419D01*
X141577462Y-79551651D01*
X141596868Y-79560830D01*
X141615281Y-79571866D01*
X141632524Y-79584654D01*
X141648430Y-79599070D01*
X141662846Y-79614976D01*
X141675634Y-79632219D01*
X141686670Y-79650632D01*
X141695849Y-79670038D01*
X141703081Y-79690250D01*
X141708297Y-79711074D01*
X141711447Y-79732309D01*
X141712500Y-79753750D01*
X141712500Y-80266250D01*
X141711447Y-80287691D01*
X141708297Y-80308926D01*
X141703081Y-80329750D01*
X141695849Y-80349962D01*
X141686670Y-80369368D01*
X141675634Y-80387781D01*
X141662846Y-80405024D01*
X141648430Y-80420930D01*
X141632524Y-80435346D01*
X141615281Y-80448134D01*
X141596868Y-80459170D01*
X141577462Y-80468349D01*
X141557250Y-80475581D01*
X141536426Y-80480797D01*
X141515191Y-80483947D01*
X141493750Y-80485000D01*
X141056250Y-80485000D01*
X141034809Y-80483947D01*
X141013574Y-80480797D01*
X140992750Y-80475581D01*
X140972538Y-80468349D01*
X140953132Y-80459170D01*
X140934719Y-80448134D01*
X140917476Y-80435346D01*
X140901570Y-80420930D01*
X140887154Y-80405024D01*
X140874366Y-80387781D01*
X140863330Y-80369368D01*
X140854151Y-80349962D01*
X140846919Y-80329750D01*
X140841703Y-80308926D01*
X140838553Y-80287691D01*
X140837500Y-80266250D01*
X140837500Y-79753750D01*
X140838553Y-79732309D01*
X140841703Y-79711074D01*
X140846919Y-79690250D01*
X140854151Y-79670038D01*
X140863330Y-79650632D01*
X140874366Y-79632219D01*
X140887154Y-79614976D01*
X140901570Y-79599070D01*
X140917476Y-79584654D01*
X140934719Y-79571866D01*
X140953132Y-79560830D01*
X140972538Y-79551651D01*
X140992750Y-79544419D01*
X141013574Y-79539203D01*
X141034809Y-79536053D01*
X141056250Y-79535000D01*
X141493750Y-79535000D01*
X141515191Y-79536053D01*
X141515191Y-79536053D01*
G37*
D14*
G04 #@! TD*
G04 #@! TO.P,C3,2*
G04 #@! TO.N,+3V3*
X141275000Y-80010000D03*
D13*
G04 #@! TO.N,GND*
G04 #@! TO.C,C3*
G36*
X139940191Y-79536053D02*
X139961426Y-79539203D01*
X139982250Y-79544419D01*
X140002462Y-79551651D01*
X140021868Y-79560830D01*
X140040281Y-79571866D01*
X140057524Y-79584654D01*
X140073430Y-79599070D01*
X140087846Y-79614976D01*
X140100634Y-79632219D01*
X140111670Y-79650632D01*
X140120849Y-79670038D01*
X140128081Y-79690250D01*
X140133297Y-79711074D01*
X140136447Y-79732309D01*
X140137500Y-79753750D01*
X140137500Y-80266250D01*
X140136447Y-80287691D01*
X140133297Y-80308926D01*
X140128081Y-80329750D01*
X140120849Y-80349962D01*
X140111670Y-80369368D01*
X140100634Y-80387781D01*
X140087846Y-80405024D01*
X140073430Y-80420930D01*
X140057524Y-80435346D01*
X140040281Y-80448134D01*
X140021868Y-80459170D01*
X140002462Y-80468349D01*
X139982250Y-80475581D01*
X139961426Y-80480797D01*
X139940191Y-80483947D01*
X139918750Y-80485000D01*
X139481250Y-80485000D01*
X139459809Y-80483947D01*
X139438574Y-80480797D01*
X139417750Y-80475581D01*
X139397538Y-80468349D01*
X139378132Y-80459170D01*
X139359719Y-80448134D01*
X139342476Y-80435346D01*
X139326570Y-80420930D01*
X139312154Y-80405024D01*
X139299366Y-80387781D01*
X139288330Y-80369368D01*
X139279151Y-80349962D01*
X139271919Y-80329750D01*
X139266703Y-80308926D01*
X139263553Y-80287691D01*
X139262500Y-80266250D01*
X139262500Y-79753750D01*
X139263553Y-79732309D01*
X139266703Y-79711074D01*
X139271919Y-79690250D01*
X139279151Y-79670038D01*
X139288330Y-79650632D01*
X139299366Y-79632219D01*
X139312154Y-79614976D01*
X139326570Y-79599070D01*
X139342476Y-79584654D01*
X139359719Y-79571866D01*
X139378132Y-79560830D01*
X139397538Y-79551651D01*
X139417750Y-79544419D01*
X139438574Y-79539203D01*
X139459809Y-79536053D01*
X139481250Y-79535000D01*
X139918750Y-79535000D01*
X139940191Y-79536053D01*
X139940191Y-79536053D01*
G37*
D14*
G04 #@! TD*
G04 #@! TO.P,C3,1*
G04 #@! TO.N,GND*
X139700000Y-80010000D03*
D13*
G04 #@! TO.N,+3V3*
G04 #@! TO.C,C4*
G36*
X106957691Y-79573553D02*
X106978926Y-79576703D01*
X106999750Y-79581919D01*
X107019962Y-79589151D01*
X107039368Y-79598330D01*
X107057781Y-79609366D01*
X107075024Y-79622154D01*
X107090930Y-79636570D01*
X107105346Y-79652476D01*
X107118134Y-79669719D01*
X107129170Y-79688132D01*
X107138349Y-79707538D01*
X107145581Y-79727750D01*
X107150797Y-79748574D01*
X107153947Y-79769809D01*
X107155000Y-79791250D01*
X107155000Y-80228750D01*
X107153947Y-80250191D01*
X107150797Y-80271426D01*
X107145581Y-80292250D01*
X107138349Y-80312462D01*
X107129170Y-80331868D01*
X107118134Y-80350281D01*
X107105346Y-80367524D01*
X107090930Y-80383430D01*
X107075024Y-80397846D01*
X107057781Y-80410634D01*
X107039368Y-80421670D01*
X107019962Y-80430849D01*
X106999750Y-80438081D01*
X106978926Y-80443297D01*
X106957691Y-80446447D01*
X106936250Y-80447500D01*
X106423750Y-80447500D01*
X106402309Y-80446447D01*
X106381074Y-80443297D01*
X106360250Y-80438081D01*
X106340038Y-80430849D01*
X106320632Y-80421670D01*
X106302219Y-80410634D01*
X106284976Y-80397846D01*
X106269070Y-80383430D01*
X106254654Y-80367524D01*
X106241866Y-80350281D01*
X106230830Y-80331868D01*
X106221651Y-80312462D01*
X106214419Y-80292250D01*
X106209203Y-80271426D01*
X106206053Y-80250191D01*
X106205000Y-80228750D01*
X106205000Y-79791250D01*
X106206053Y-79769809D01*
X106209203Y-79748574D01*
X106214419Y-79727750D01*
X106221651Y-79707538D01*
X106230830Y-79688132D01*
X106241866Y-79669719D01*
X106254654Y-79652476D01*
X106269070Y-79636570D01*
X106284976Y-79622154D01*
X106302219Y-79609366D01*
X106320632Y-79598330D01*
X106340038Y-79589151D01*
X106360250Y-79581919D01*
X106381074Y-79576703D01*
X106402309Y-79573553D01*
X106423750Y-79572500D01*
X106936250Y-79572500D01*
X106957691Y-79573553D01*
X106957691Y-79573553D01*
G37*
D14*
G04 #@! TD*
G04 #@! TO.P,C4,1*
G04 #@! TO.N,+3V3*
X106680000Y-80010000D03*
D13*
G04 #@! TO.N,GND*
G04 #@! TO.C,C4*
G36*
X106957691Y-77998553D02*
X106978926Y-78001703D01*
X106999750Y-78006919D01*
X107019962Y-78014151D01*
X107039368Y-78023330D01*
X107057781Y-78034366D01*
X107075024Y-78047154D01*
X107090930Y-78061570D01*
X107105346Y-78077476D01*
X107118134Y-78094719D01*
X107129170Y-78113132D01*
X107138349Y-78132538D01*
X107145581Y-78152750D01*
X107150797Y-78173574D01*
X107153947Y-78194809D01*
X107155000Y-78216250D01*
X107155000Y-78653750D01*
X107153947Y-78675191D01*
X107150797Y-78696426D01*
X107145581Y-78717250D01*
X107138349Y-78737462D01*
X107129170Y-78756868D01*
X107118134Y-78775281D01*
X107105346Y-78792524D01*
X107090930Y-78808430D01*
X107075024Y-78822846D01*
X107057781Y-78835634D01*
X107039368Y-78846670D01*
X107019962Y-78855849D01*
X106999750Y-78863081D01*
X106978926Y-78868297D01*
X106957691Y-78871447D01*
X106936250Y-78872500D01*
X106423750Y-78872500D01*
X106402309Y-78871447D01*
X106381074Y-78868297D01*
X106360250Y-78863081D01*
X106340038Y-78855849D01*
X106320632Y-78846670D01*
X106302219Y-78835634D01*
X106284976Y-78822846D01*
X106269070Y-78808430D01*
X106254654Y-78792524D01*
X106241866Y-78775281D01*
X106230830Y-78756868D01*
X106221651Y-78737462D01*
X106214419Y-78717250D01*
X106209203Y-78696426D01*
X106206053Y-78675191D01*
X106205000Y-78653750D01*
X106205000Y-78216250D01*
X106206053Y-78194809D01*
X106209203Y-78173574D01*
X106214419Y-78152750D01*
X106221651Y-78132538D01*
X106230830Y-78113132D01*
X106241866Y-78094719D01*
X106254654Y-78077476D01*
X106269070Y-78061570D01*
X106284976Y-78047154D01*
X106302219Y-78034366D01*
X106320632Y-78023330D01*
X106340038Y-78014151D01*
X106360250Y-78006919D01*
X106381074Y-78001703D01*
X106402309Y-77998553D01*
X106423750Y-77997500D01*
X106936250Y-77997500D01*
X106957691Y-77998553D01*
X106957691Y-77998553D01*
G37*
D14*
G04 #@! TD*
G04 #@! TO.P,C4,2*
G04 #@! TO.N,GND*
X106680000Y-78435000D03*
D13*
G04 #@! TO.N,/HIGH*
G04 #@! TO.C,C5*
G36*
X131380191Y-66201053D02*
X131401426Y-66204203D01*
X131422250Y-66209419D01*
X131442462Y-66216651D01*
X131461868Y-66225830D01*
X131480281Y-66236866D01*
X131497524Y-66249654D01*
X131513430Y-66264070D01*
X131527846Y-66279976D01*
X131540634Y-66297219D01*
X131551670Y-66315632D01*
X131560849Y-66335038D01*
X131568081Y-66355250D01*
X131573297Y-66376074D01*
X131576447Y-66397309D01*
X131577500Y-66418750D01*
X131577500Y-66931250D01*
X131576447Y-66952691D01*
X131573297Y-66973926D01*
X131568081Y-66994750D01*
X131560849Y-67014962D01*
X131551670Y-67034368D01*
X131540634Y-67052781D01*
X131527846Y-67070024D01*
X131513430Y-67085930D01*
X131497524Y-67100346D01*
X131480281Y-67113134D01*
X131461868Y-67124170D01*
X131442462Y-67133349D01*
X131422250Y-67140581D01*
X131401426Y-67145797D01*
X131380191Y-67148947D01*
X131358750Y-67150000D01*
X130921250Y-67150000D01*
X130899809Y-67148947D01*
X130878574Y-67145797D01*
X130857750Y-67140581D01*
X130837538Y-67133349D01*
X130818132Y-67124170D01*
X130799719Y-67113134D01*
X130782476Y-67100346D01*
X130766570Y-67085930D01*
X130752154Y-67070024D01*
X130739366Y-67052781D01*
X130728330Y-67034368D01*
X130719151Y-67014962D01*
X130711919Y-66994750D01*
X130706703Y-66973926D01*
X130703553Y-66952691D01*
X130702500Y-66931250D01*
X130702500Y-66418750D01*
X130703553Y-66397309D01*
X130706703Y-66376074D01*
X130711919Y-66355250D01*
X130719151Y-66335038D01*
X130728330Y-66315632D01*
X130739366Y-66297219D01*
X130752154Y-66279976D01*
X130766570Y-66264070D01*
X130782476Y-66249654D01*
X130799719Y-66236866D01*
X130818132Y-66225830D01*
X130837538Y-66216651D01*
X130857750Y-66209419D01*
X130878574Y-66204203D01*
X130899809Y-66201053D01*
X130921250Y-66200000D01*
X131358750Y-66200000D01*
X131380191Y-66201053D01*
X131380191Y-66201053D01*
G37*
D14*
G04 #@! TD*
G04 #@! TO.P,C5,1*
G04 #@! TO.N,/HIGH*
X131140000Y-66675000D03*
D13*
G04 #@! TO.N,GND*
G04 #@! TO.C,C5*
G36*
X132955191Y-66201053D02*
X132976426Y-66204203D01*
X132997250Y-66209419D01*
X133017462Y-66216651D01*
X133036868Y-66225830D01*
X133055281Y-66236866D01*
X133072524Y-66249654D01*
X133088430Y-66264070D01*
X133102846Y-66279976D01*
X133115634Y-66297219D01*
X133126670Y-66315632D01*
X133135849Y-66335038D01*
X133143081Y-66355250D01*
X133148297Y-66376074D01*
X133151447Y-66397309D01*
X133152500Y-66418750D01*
X133152500Y-66931250D01*
X133151447Y-66952691D01*
X133148297Y-66973926D01*
X133143081Y-66994750D01*
X133135849Y-67014962D01*
X133126670Y-67034368D01*
X133115634Y-67052781D01*
X133102846Y-67070024D01*
X133088430Y-67085930D01*
X133072524Y-67100346D01*
X133055281Y-67113134D01*
X133036868Y-67124170D01*
X133017462Y-67133349D01*
X132997250Y-67140581D01*
X132976426Y-67145797D01*
X132955191Y-67148947D01*
X132933750Y-67150000D01*
X132496250Y-67150000D01*
X132474809Y-67148947D01*
X132453574Y-67145797D01*
X132432750Y-67140581D01*
X132412538Y-67133349D01*
X132393132Y-67124170D01*
X132374719Y-67113134D01*
X132357476Y-67100346D01*
X132341570Y-67085930D01*
X132327154Y-67070024D01*
X132314366Y-67052781D01*
X132303330Y-67034368D01*
X132294151Y-67014962D01*
X132286919Y-66994750D01*
X132281703Y-66973926D01*
X132278553Y-66952691D01*
X132277500Y-66931250D01*
X132277500Y-66418750D01*
X132278553Y-66397309D01*
X132281703Y-66376074D01*
X132286919Y-66355250D01*
X132294151Y-66335038D01*
X132303330Y-66315632D01*
X132314366Y-66297219D01*
X132327154Y-66279976D01*
X132341570Y-66264070D01*
X132357476Y-66249654D01*
X132374719Y-66236866D01*
X132393132Y-66225830D01*
X132412538Y-66216651D01*
X132432750Y-66209419D01*
X132453574Y-66204203D01*
X132474809Y-66201053D01*
X132496250Y-66200000D01*
X132933750Y-66200000D01*
X132955191Y-66201053D01*
X132955191Y-66201053D01*
G37*
D14*
G04 #@! TD*
G04 #@! TO.P,C5,2*
G04 #@! TO.N,GND*
X132715000Y-66675000D03*
D13*
G04 #@! TO.N,GND*
G04 #@! TO.C,C6*
G36*
X132955191Y-68106053D02*
X132976426Y-68109203D01*
X132997250Y-68114419D01*
X133017462Y-68121651D01*
X133036868Y-68130830D01*
X133055281Y-68141866D01*
X133072524Y-68154654D01*
X133088430Y-68169070D01*
X133102846Y-68184976D01*
X133115634Y-68202219D01*
X133126670Y-68220632D01*
X133135849Y-68240038D01*
X133143081Y-68260250D01*
X133148297Y-68281074D01*
X133151447Y-68302309D01*
X133152500Y-68323750D01*
X133152500Y-68836250D01*
X133151447Y-68857691D01*
X133148297Y-68878926D01*
X133143081Y-68899750D01*
X133135849Y-68919962D01*
X133126670Y-68939368D01*
X133115634Y-68957781D01*
X133102846Y-68975024D01*
X133088430Y-68990930D01*
X133072524Y-69005346D01*
X133055281Y-69018134D01*
X133036868Y-69029170D01*
X133017462Y-69038349D01*
X132997250Y-69045581D01*
X132976426Y-69050797D01*
X132955191Y-69053947D01*
X132933750Y-69055000D01*
X132496250Y-69055000D01*
X132474809Y-69053947D01*
X132453574Y-69050797D01*
X132432750Y-69045581D01*
X132412538Y-69038349D01*
X132393132Y-69029170D01*
X132374719Y-69018134D01*
X132357476Y-69005346D01*
X132341570Y-68990930D01*
X132327154Y-68975024D01*
X132314366Y-68957781D01*
X132303330Y-68939368D01*
X132294151Y-68919962D01*
X132286919Y-68899750D01*
X132281703Y-68878926D01*
X132278553Y-68857691D01*
X132277500Y-68836250D01*
X132277500Y-68323750D01*
X132278553Y-68302309D01*
X132281703Y-68281074D01*
X132286919Y-68260250D01*
X132294151Y-68240038D01*
X132303330Y-68220632D01*
X132314366Y-68202219D01*
X132327154Y-68184976D01*
X132341570Y-68169070D01*
X132357476Y-68154654D01*
X132374719Y-68141866D01*
X132393132Y-68130830D01*
X132412538Y-68121651D01*
X132432750Y-68114419D01*
X132453574Y-68109203D01*
X132474809Y-68106053D01*
X132496250Y-68105000D01*
X132933750Y-68105000D01*
X132955191Y-68106053D01*
X132955191Y-68106053D01*
G37*
D14*
G04 #@! TD*
G04 #@! TO.P,C6,2*
G04 #@! TO.N,GND*
X132715000Y-68580000D03*
D13*
G04 #@! TO.N,+3V3*
G04 #@! TO.C,C6*
G36*
X131380191Y-68106053D02*
X131401426Y-68109203D01*
X131422250Y-68114419D01*
X131442462Y-68121651D01*
X131461868Y-68130830D01*
X131480281Y-68141866D01*
X131497524Y-68154654D01*
X131513430Y-68169070D01*
X131527846Y-68184976D01*
X131540634Y-68202219D01*
X131551670Y-68220632D01*
X131560849Y-68240038D01*
X131568081Y-68260250D01*
X131573297Y-68281074D01*
X131576447Y-68302309D01*
X131577500Y-68323750D01*
X131577500Y-68836250D01*
X131576447Y-68857691D01*
X131573297Y-68878926D01*
X131568081Y-68899750D01*
X131560849Y-68919962D01*
X131551670Y-68939368D01*
X131540634Y-68957781D01*
X131527846Y-68975024D01*
X131513430Y-68990930D01*
X131497524Y-69005346D01*
X131480281Y-69018134D01*
X131461868Y-69029170D01*
X131442462Y-69038349D01*
X131422250Y-69045581D01*
X131401426Y-69050797D01*
X131380191Y-69053947D01*
X131358750Y-69055000D01*
X130921250Y-69055000D01*
X130899809Y-69053947D01*
X130878574Y-69050797D01*
X130857750Y-69045581D01*
X130837538Y-69038349D01*
X130818132Y-69029170D01*
X130799719Y-69018134D01*
X130782476Y-69005346D01*
X130766570Y-68990930D01*
X130752154Y-68975024D01*
X130739366Y-68957781D01*
X130728330Y-68939368D01*
X130719151Y-68919962D01*
X130711919Y-68899750D01*
X130706703Y-68878926D01*
X130703553Y-68857691D01*
X130702500Y-68836250D01*
X130702500Y-68323750D01*
X130703553Y-68302309D01*
X130706703Y-68281074D01*
X130711919Y-68260250D01*
X130719151Y-68240038D01*
X130728330Y-68220632D01*
X130739366Y-68202219D01*
X130752154Y-68184976D01*
X130766570Y-68169070D01*
X130782476Y-68154654D01*
X130799719Y-68141866D01*
X130818132Y-68130830D01*
X130837538Y-68121651D01*
X130857750Y-68114419D01*
X130878574Y-68109203D01*
X130899809Y-68106053D01*
X130921250Y-68105000D01*
X131358750Y-68105000D01*
X131380191Y-68106053D01*
X131380191Y-68106053D01*
G37*
D14*
G04 #@! TD*
G04 #@! TO.P,C6,1*
G04 #@! TO.N,+3V3*
X131140000Y-68580000D03*
D13*
G04 #@! TO.N,Net-(D1-Pad1)*
G04 #@! TO.C,D1*
G36*
X118133691Y-64333553D02*
X118154926Y-64336703D01*
X118175750Y-64341919D01*
X118195962Y-64349151D01*
X118215368Y-64358330D01*
X118233781Y-64369366D01*
X118251024Y-64382154D01*
X118266930Y-64396570D01*
X118281346Y-64412476D01*
X118294134Y-64429719D01*
X118305170Y-64448132D01*
X118314349Y-64467538D01*
X118321581Y-64487750D01*
X118326797Y-64508574D01*
X118329947Y-64529809D01*
X118331000Y-64551250D01*
X118331000Y-64988750D01*
X118329947Y-65010191D01*
X118326797Y-65031426D01*
X118321581Y-65052250D01*
X118314349Y-65072462D01*
X118305170Y-65091868D01*
X118294134Y-65110281D01*
X118281346Y-65127524D01*
X118266930Y-65143430D01*
X118251024Y-65157846D01*
X118233781Y-65170634D01*
X118215368Y-65181670D01*
X118195962Y-65190849D01*
X118175750Y-65198081D01*
X118154926Y-65203297D01*
X118133691Y-65206447D01*
X118112250Y-65207500D01*
X117599750Y-65207500D01*
X117578309Y-65206447D01*
X117557074Y-65203297D01*
X117536250Y-65198081D01*
X117516038Y-65190849D01*
X117496632Y-65181670D01*
X117478219Y-65170634D01*
X117460976Y-65157846D01*
X117445070Y-65143430D01*
X117430654Y-65127524D01*
X117417866Y-65110281D01*
X117406830Y-65091868D01*
X117397651Y-65072462D01*
X117390419Y-65052250D01*
X117385203Y-65031426D01*
X117382053Y-65010191D01*
X117381000Y-64988750D01*
X117381000Y-64551250D01*
X117382053Y-64529809D01*
X117385203Y-64508574D01*
X117390419Y-64487750D01*
X117397651Y-64467538D01*
X117406830Y-64448132D01*
X117417866Y-64429719D01*
X117430654Y-64412476D01*
X117445070Y-64396570D01*
X117460976Y-64382154D01*
X117478219Y-64369366D01*
X117496632Y-64358330D01*
X117516038Y-64349151D01*
X117536250Y-64341919D01*
X117557074Y-64336703D01*
X117578309Y-64333553D01*
X117599750Y-64332500D01*
X118112250Y-64332500D01*
X118133691Y-64333553D01*
X118133691Y-64333553D01*
G37*
D14*
G04 #@! TD*
G04 #@! TO.P,D1,1*
G04 #@! TO.N,Net-(D1-Pad1)*
X117856000Y-64770000D03*
D13*
G04 #@! TO.N,Net-(D1-Pad2)*
G04 #@! TO.C,D1*
G36*
X118133691Y-62758553D02*
X118154926Y-62761703D01*
X118175750Y-62766919D01*
X118195962Y-62774151D01*
X118215368Y-62783330D01*
X118233781Y-62794366D01*
X118251024Y-62807154D01*
X118266930Y-62821570D01*
X118281346Y-62837476D01*
X118294134Y-62854719D01*
X118305170Y-62873132D01*
X118314349Y-62892538D01*
X118321581Y-62912750D01*
X118326797Y-62933574D01*
X118329947Y-62954809D01*
X118331000Y-62976250D01*
X118331000Y-63413750D01*
X118329947Y-63435191D01*
X118326797Y-63456426D01*
X118321581Y-63477250D01*
X118314349Y-63497462D01*
X118305170Y-63516868D01*
X118294134Y-63535281D01*
X118281346Y-63552524D01*
X118266930Y-63568430D01*
X118251024Y-63582846D01*
X118233781Y-63595634D01*
X118215368Y-63606670D01*
X118195962Y-63615849D01*
X118175750Y-63623081D01*
X118154926Y-63628297D01*
X118133691Y-63631447D01*
X118112250Y-63632500D01*
X117599750Y-63632500D01*
X117578309Y-63631447D01*
X117557074Y-63628297D01*
X117536250Y-63623081D01*
X117516038Y-63615849D01*
X117496632Y-63606670D01*
X117478219Y-63595634D01*
X117460976Y-63582846D01*
X117445070Y-63568430D01*
X117430654Y-63552524D01*
X117417866Y-63535281D01*
X117406830Y-63516868D01*
X117397651Y-63497462D01*
X117390419Y-63477250D01*
X117385203Y-63456426D01*
X117382053Y-63435191D01*
X117381000Y-63413750D01*
X117381000Y-62976250D01*
X117382053Y-62954809D01*
X117385203Y-62933574D01*
X117390419Y-62912750D01*
X117397651Y-62892538D01*
X117406830Y-62873132D01*
X117417866Y-62854719D01*
X117430654Y-62837476D01*
X117445070Y-62821570D01*
X117460976Y-62807154D01*
X117478219Y-62794366D01*
X117496632Y-62783330D01*
X117516038Y-62774151D01*
X117536250Y-62766919D01*
X117557074Y-62761703D01*
X117578309Y-62758553D01*
X117599750Y-62757500D01*
X118112250Y-62757500D01*
X118133691Y-62758553D01*
X118133691Y-62758553D01*
G37*
D14*
G04 #@! TD*
G04 #@! TO.P,D1,2*
G04 #@! TO.N,Net-(D1-Pad2)*
X117856000Y-63195000D03*
D15*
G04 #@! TO.P,SWD,1*
G04 #@! TO.N,+3V3*
X156808000Y-83185000D03*
G04 #@! TO.P,SWD,2*
G04 #@! TO.N,/SWDIO*
X152908000Y-83185000D03*
G04 #@! TO.P,SWD,3*
G04 #@! TO.N,GND*
X156808000Y-81915000D03*
G04 #@! TO.P,SWD,4*
G04 #@! TO.N,/SWDCLK*
X152908000Y-81915000D03*
G04 #@! TO.P,SWD,5*
G04 #@! TO.N,GND*
X156808000Y-80645000D03*
G04 #@! TO.P,SWD,6*
G04 #@! TO.N,Net-(J2-Pad6)*
X152908000Y-80645000D03*
G04 #@! TO.P,SWD,7*
G04 #@! TO.N,Net-(J2-Pad7)*
X156808000Y-79375000D03*
G04 #@! TO.P,SWD,8*
G04 #@! TO.N,Net-(J2-Pad8)*
X152908000Y-79375000D03*
G04 #@! TO.P,SWD,9*
G04 #@! TO.N,GND*
X156808000Y-78105000D03*
G04 #@! TO.P,SWD,10*
G04 #@! TO.N,/~RST*
X152908000Y-78105000D03*
G04 #@! TD*
D16*
G04 #@! TO.P,USB,6*
G04 #@! TO.N,GND*
X89408000Y-79105000D03*
D17*
X92108000Y-75605000D03*
D18*
G04 #@! TO.P,USB,2*
G04 #@! TO.N,/USB_DM*
X92108000Y-77455000D03*
G04 #@! TO.P,USB,1*
G04 #@! TO.N,/VBUS*
X92108000Y-76805000D03*
G04 #@! TO.P,USB,5*
G04 #@! TO.N,GND*
X92108000Y-79405000D03*
G04 #@! TO.P,USB,4*
G04 #@! TO.N,Net-(J4-Pad4)*
X92108000Y-78755000D03*
G04 #@! TO.P,USB,3*
G04 #@! TO.N,/USB_DP*
X92108000Y-78105000D03*
D17*
G04 #@! TO.P,USB,6*
G04 #@! TO.N,GND*
X92108000Y-80605000D03*
D16*
X89408000Y-77105000D03*
D19*
X89408000Y-74605000D03*
X89408000Y-81605000D03*
D20*
X89408000Y-81005000D03*
X89408000Y-75205000D03*
G04 #@! TD*
D13*
G04 #@! TO.N,GND*
G04 #@! TO.C,R1*
G36*
X119657691Y-71953553D02*
X119678926Y-71956703D01*
X119699750Y-71961919D01*
X119719962Y-71969151D01*
X119739368Y-71978330D01*
X119757781Y-71989366D01*
X119775024Y-72002154D01*
X119790930Y-72016570D01*
X119805346Y-72032476D01*
X119818134Y-72049719D01*
X119829170Y-72068132D01*
X119838349Y-72087538D01*
X119845581Y-72107750D01*
X119850797Y-72128574D01*
X119853947Y-72149809D01*
X119855000Y-72171250D01*
X119855000Y-72608750D01*
X119853947Y-72630191D01*
X119850797Y-72651426D01*
X119845581Y-72672250D01*
X119838349Y-72692462D01*
X119829170Y-72711868D01*
X119818134Y-72730281D01*
X119805346Y-72747524D01*
X119790930Y-72763430D01*
X119775024Y-72777846D01*
X119757781Y-72790634D01*
X119739368Y-72801670D01*
X119719962Y-72810849D01*
X119699750Y-72818081D01*
X119678926Y-72823297D01*
X119657691Y-72826447D01*
X119636250Y-72827500D01*
X119123750Y-72827500D01*
X119102309Y-72826447D01*
X119081074Y-72823297D01*
X119060250Y-72818081D01*
X119040038Y-72810849D01*
X119020632Y-72801670D01*
X119002219Y-72790634D01*
X118984976Y-72777846D01*
X118969070Y-72763430D01*
X118954654Y-72747524D01*
X118941866Y-72730281D01*
X118930830Y-72711868D01*
X118921651Y-72692462D01*
X118914419Y-72672250D01*
X118909203Y-72651426D01*
X118906053Y-72630191D01*
X118905000Y-72608750D01*
X118905000Y-72171250D01*
X118906053Y-72149809D01*
X118909203Y-72128574D01*
X118914419Y-72107750D01*
X118921651Y-72087538D01*
X118930830Y-72068132D01*
X118941866Y-72049719D01*
X118954654Y-72032476D01*
X118969070Y-72016570D01*
X118984976Y-72002154D01*
X119002219Y-71989366D01*
X119020632Y-71978330D01*
X119040038Y-71969151D01*
X119060250Y-71961919D01*
X119081074Y-71956703D01*
X119102309Y-71953553D01*
X119123750Y-71952500D01*
X119636250Y-71952500D01*
X119657691Y-71953553D01*
X119657691Y-71953553D01*
G37*
D14*
G04 #@! TD*
G04 #@! TO.P,R1,2*
G04 #@! TO.N,GND*
X119380000Y-72390000D03*
D13*
G04 #@! TO.N,Net-(J3-Pad1)*
G04 #@! TO.C,R1*
G36*
X119657691Y-70378553D02*
X119678926Y-70381703D01*
X119699750Y-70386919D01*
X119719962Y-70394151D01*
X119739368Y-70403330D01*
X119757781Y-70414366D01*
X119775024Y-70427154D01*
X119790930Y-70441570D01*
X119805346Y-70457476D01*
X119818134Y-70474719D01*
X119829170Y-70493132D01*
X119838349Y-70512538D01*
X119845581Y-70532750D01*
X119850797Y-70553574D01*
X119853947Y-70574809D01*
X119855000Y-70596250D01*
X119855000Y-71033750D01*
X119853947Y-71055191D01*
X119850797Y-71076426D01*
X119845581Y-71097250D01*
X119838349Y-71117462D01*
X119829170Y-71136868D01*
X119818134Y-71155281D01*
X119805346Y-71172524D01*
X119790930Y-71188430D01*
X119775024Y-71202846D01*
X119757781Y-71215634D01*
X119739368Y-71226670D01*
X119719962Y-71235849D01*
X119699750Y-71243081D01*
X119678926Y-71248297D01*
X119657691Y-71251447D01*
X119636250Y-71252500D01*
X119123750Y-71252500D01*
X119102309Y-71251447D01*
X119081074Y-71248297D01*
X119060250Y-71243081D01*
X119040038Y-71235849D01*
X119020632Y-71226670D01*
X119002219Y-71215634D01*
X118984976Y-71202846D01*
X118969070Y-71188430D01*
X118954654Y-71172524D01*
X118941866Y-71155281D01*
X118930830Y-71136868D01*
X118921651Y-71117462D01*
X118914419Y-71097250D01*
X118909203Y-71076426D01*
X118906053Y-71055191D01*
X118905000Y-71033750D01*
X118905000Y-70596250D01*
X118906053Y-70574809D01*
X118909203Y-70553574D01*
X118914419Y-70532750D01*
X118921651Y-70512538D01*
X118930830Y-70493132D01*
X118941866Y-70474719D01*
X118954654Y-70457476D01*
X118969070Y-70441570D01*
X118984976Y-70427154D01*
X119002219Y-70414366D01*
X119020632Y-70403330D01*
X119040038Y-70394151D01*
X119060250Y-70386919D01*
X119081074Y-70381703D01*
X119102309Y-70378553D01*
X119123750Y-70377500D01*
X119636250Y-70377500D01*
X119657691Y-70378553D01*
X119657691Y-70378553D01*
G37*
D14*
G04 #@! TD*
G04 #@! TO.P,R1,1*
G04 #@! TO.N,Net-(J3-Pad1)*
X119380000Y-70815000D03*
D13*
G04 #@! TO.N,GND*
G04 #@! TO.C,R2*
G36*
X116101691Y-62758553D02*
X116122926Y-62761703D01*
X116143750Y-62766919D01*
X116163962Y-62774151D01*
X116183368Y-62783330D01*
X116201781Y-62794366D01*
X116219024Y-62807154D01*
X116234930Y-62821570D01*
X116249346Y-62837476D01*
X116262134Y-62854719D01*
X116273170Y-62873132D01*
X116282349Y-62892538D01*
X116289581Y-62912750D01*
X116294797Y-62933574D01*
X116297947Y-62954809D01*
X116299000Y-62976250D01*
X116299000Y-63413750D01*
X116297947Y-63435191D01*
X116294797Y-63456426D01*
X116289581Y-63477250D01*
X116282349Y-63497462D01*
X116273170Y-63516868D01*
X116262134Y-63535281D01*
X116249346Y-63552524D01*
X116234930Y-63568430D01*
X116219024Y-63582846D01*
X116201781Y-63595634D01*
X116183368Y-63606670D01*
X116163962Y-63615849D01*
X116143750Y-63623081D01*
X116122926Y-63628297D01*
X116101691Y-63631447D01*
X116080250Y-63632500D01*
X115567750Y-63632500D01*
X115546309Y-63631447D01*
X115525074Y-63628297D01*
X115504250Y-63623081D01*
X115484038Y-63615849D01*
X115464632Y-63606670D01*
X115446219Y-63595634D01*
X115428976Y-63582846D01*
X115413070Y-63568430D01*
X115398654Y-63552524D01*
X115385866Y-63535281D01*
X115374830Y-63516868D01*
X115365651Y-63497462D01*
X115358419Y-63477250D01*
X115353203Y-63456426D01*
X115350053Y-63435191D01*
X115349000Y-63413750D01*
X115349000Y-62976250D01*
X115350053Y-62954809D01*
X115353203Y-62933574D01*
X115358419Y-62912750D01*
X115365651Y-62892538D01*
X115374830Y-62873132D01*
X115385866Y-62854719D01*
X115398654Y-62837476D01*
X115413070Y-62821570D01*
X115428976Y-62807154D01*
X115446219Y-62794366D01*
X115464632Y-62783330D01*
X115484038Y-62774151D01*
X115504250Y-62766919D01*
X115525074Y-62761703D01*
X115546309Y-62758553D01*
X115567750Y-62757500D01*
X116080250Y-62757500D01*
X116101691Y-62758553D01*
X116101691Y-62758553D01*
G37*
D14*
G04 #@! TD*
G04 #@! TO.P,R2,1*
G04 #@! TO.N,GND*
X115824000Y-63195000D03*
D13*
G04 #@! TO.N,Net-(D1-Pad1)*
G04 #@! TO.C,R2*
G36*
X116101691Y-64333553D02*
X116122926Y-64336703D01*
X116143750Y-64341919D01*
X116163962Y-64349151D01*
X116183368Y-64358330D01*
X116201781Y-64369366D01*
X116219024Y-64382154D01*
X116234930Y-64396570D01*
X116249346Y-64412476D01*
X116262134Y-64429719D01*
X116273170Y-64448132D01*
X116282349Y-64467538D01*
X116289581Y-64487750D01*
X116294797Y-64508574D01*
X116297947Y-64529809D01*
X116299000Y-64551250D01*
X116299000Y-64988750D01*
X116297947Y-65010191D01*
X116294797Y-65031426D01*
X116289581Y-65052250D01*
X116282349Y-65072462D01*
X116273170Y-65091868D01*
X116262134Y-65110281D01*
X116249346Y-65127524D01*
X116234930Y-65143430D01*
X116219024Y-65157846D01*
X116201781Y-65170634D01*
X116183368Y-65181670D01*
X116163962Y-65190849D01*
X116143750Y-65198081D01*
X116122926Y-65203297D01*
X116101691Y-65206447D01*
X116080250Y-65207500D01*
X115567750Y-65207500D01*
X115546309Y-65206447D01*
X115525074Y-65203297D01*
X115504250Y-65198081D01*
X115484038Y-65190849D01*
X115464632Y-65181670D01*
X115446219Y-65170634D01*
X115428976Y-65157846D01*
X115413070Y-65143430D01*
X115398654Y-65127524D01*
X115385866Y-65110281D01*
X115374830Y-65091868D01*
X115365651Y-65072462D01*
X115358419Y-65052250D01*
X115353203Y-65031426D01*
X115350053Y-65010191D01*
X115349000Y-64988750D01*
X115349000Y-64551250D01*
X115350053Y-64529809D01*
X115353203Y-64508574D01*
X115358419Y-64487750D01*
X115365651Y-64467538D01*
X115374830Y-64448132D01*
X115385866Y-64429719D01*
X115398654Y-64412476D01*
X115413070Y-64396570D01*
X115428976Y-64382154D01*
X115446219Y-64369366D01*
X115464632Y-64358330D01*
X115484038Y-64349151D01*
X115504250Y-64341919D01*
X115525074Y-64336703D01*
X115546309Y-64333553D01*
X115567750Y-64332500D01*
X116080250Y-64332500D01*
X116101691Y-64333553D01*
X116101691Y-64333553D01*
G37*
D14*
G04 #@! TD*
G04 #@! TO.P,R2,2*
G04 #@! TO.N,Net-(D1-Pad1)*
X115824000Y-64770000D03*
D21*
G04 #@! TO.P,SW1,1*
G04 #@! TO.N,Net-(SW1-Pad1)*
X100425000Y-70190000D03*
X100425000Y-64430000D03*
G04 #@! TO.P,SW1,2*
G04 #@! TO.N,+3V3*
X96425000Y-64430000D03*
X96425000Y-70190000D03*
G04 #@! TD*
D22*
G04 #@! TO.P,LDO,1*
G04 #@! TO.N,/VBUS*
X111420000Y-80640000D03*
G04 #@! TO.P,LDO,2*
G04 #@! TO.N,GND*
X111420000Y-79690000D03*
G04 #@! TO.P,LDO,3*
G04 #@! TO.N,Net-(J9-Pad1)*
X111420000Y-78740000D03*
G04 #@! TO.P,LDO,4*
G04 #@! TO.N,Net-(U1-Pad4)*
X109220000Y-78740000D03*
G04 #@! TO.P,LDO,5*
G04 #@! TO.N,+3V3*
X109220000Y-80640000D03*
G04 #@! TD*
D23*
G04 #@! TO.P,STM32F042,1*
G04 #@! TO.N,Net-(J3-Pad1)*
X142625000Y-71345000D03*
G04 #@! TO.P,STM32F042,2*
G04 #@! TO.N,/SDA*
X141975000Y-71345000D03*
G04 #@! TO.P,STM32F042,3*
G04 #@! TO.N,/SCL*
X141325000Y-71345000D03*
G04 #@! TO.P,STM32F042,4*
G04 #@! TO.N,/~RST*
X140675000Y-71345000D03*
G04 #@! TO.P,STM32F042,5*
G04 #@! TO.N,+3V3*
X140025000Y-71345000D03*
G04 #@! TO.P,STM32F042,6*
G04 #@! TO.N,Net-(SW1-Pad1)*
X139375000Y-71345000D03*
G04 #@! TO.P,STM32F042,7*
G04 #@! TO.N,Net-(D1-Pad2)*
X138725000Y-71345000D03*
G04 #@! TO.P,STM32F042,8*
G04 #@! TO.N,Net-(TP1-Pad1)*
X138075000Y-71345000D03*
G04 #@! TO.P,STM32F042,9*
G04 #@! TO.N,Net-(TP2-Pad1)*
X137425000Y-71345000D03*
G04 #@! TO.P,STM32F042,10*
G04 #@! TO.N,Net-(TP3-Pad1)*
X136775000Y-71345000D03*
G04 #@! TO.P,STM32F042,11*
G04 #@! TO.N,Net-(TP4-Pad1)*
X136775000Y-77245000D03*
G04 #@! TO.P,STM32F042,12*
G04 #@! TO.N,Net-(TP5-Pad1)*
X137425000Y-77245000D03*
G04 #@! TO.P,STM32F042,13*
G04 #@! TO.N,Net-(TP6-Pad1)*
X138075000Y-77245000D03*
G04 #@! TO.P,STM32F042,14*
G04 #@! TO.N,/ALERT*
X138725000Y-77245000D03*
G04 #@! TO.P,STM32F042,15*
G04 #@! TO.N,GND*
X139375000Y-77245000D03*
G04 #@! TO.P,STM32F042,16*
G04 #@! TO.N,+3V3*
X140025000Y-77245000D03*
G04 #@! TO.P,STM32F042,17*
G04 #@! TO.N,/USB_DM*
X140675000Y-77245000D03*
G04 #@! TO.P,STM32F042,18*
G04 #@! TO.N,/USB_DP*
X141325000Y-77245000D03*
G04 #@! TO.P,STM32F042,19*
G04 #@! TO.N,/SWDIO*
X141975000Y-77245000D03*
G04 #@! TO.P,STM32F042,20*
G04 #@! TO.N,/SWDCLK*
X142625000Y-77245000D03*
G04 #@! TD*
D22*
G04 #@! TO.P,TVS,1*
G04 #@! TO.N,Net-(U3-Pad1)*
X98255000Y-78420000D03*
G04 #@! TO.P,TVS,2*
G04 #@! TO.N,GND*
X98255000Y-77470000D03*
G04 #@! TO.P,TVS,3*
G04 #@! TO.N,Net-(U3-Pad3)*
X98255000Y-76520000D03*
G04 #@! TO.P,TVS,4*
G04 #@! TO.N,/USB_DM*
X96055000Y-76520000D03*
G04 #@! TO.P,TVS,6*
G04 #@! TO.N,/USB_DP*
X96055000Y-78420000D03*
G04 #@! TO.P,TVS,5*
G04 #@! TO.N,/VBUS*
X96055000Y-77470000D03*
G04 #@! TD*
D24*
G04 #@! TO.P,INA260,1*
G04 #@! TO.N,/IN+*
X121510000Y-64400000D03*
G04 #@! TO.P,INA260,2*
X121510000Y-65050000D03*
G04 #@! TO.P,INA260,3*
X121510000Y-65700000D03*
G04 #@! TO.P,INA260,4*
G04 #@! TO.N,Net-(J5-Pad2)*
X121510000Y-66350000D03*
G04 #@! TO.P,INA260,5*
G04 #@! TO.N,Net-(J6-Pad2)*
X121510000Y-67000000D03*
G04 #@! TO.P,INA260,6*
G04 #@! TO.N,GND*
X121510000Y-67650000D03*
G04 #@! TO.P,INA260,7*
G04 #@! TO.N,/ALERT*
X121510000Y-68300000D03*
G04 #@! TO.P,INA260,8*
G04 #@! TO.N,/SDA*
X121510000Y-68950000D03*
G04 #@! TO.P,INA260,9*
G04 #@! TO.N,/SCL*
X127410000Y-68950000D03*
G04 #@! TO.P,INA260,10*
G04 #@! TO.N,+3V3*
X127410000Y-68300000D03*
G04 #@! TO.P,INA260,11*
G04 #@! TO.N,GND*
X127410000Y-67650000D03*
G04 #@! TO.P,INA260,12*
G04 #@! TO.N,/HIGH*
X127410000Y-67000000D03*
G04 #@! TO.P,INA260,13*
G04 #@! TO.N,Net-(U4-Pad13)*
X127410000Y-66350000D03*
G04 #@! TO.P,INA260,14*
G04 #@! TO.N,/IN-*
X127410000Y-65700000D03*
G04 #@! TO.P,INA260,15*
X127410000Y-65050000D03*
G04 #@! TO.P,INA260,16*
X127410000Y-64400000D03*
G04 #@! TD*
D11*
G04 #@! TO.P,DISPLAY,1*
G04 #@! TO.N,+3V3*
X132080000Y-62865000D03*
D10*
G04 #@! TO.P,DISPLAY,2*
G04 #@! TO.N,GND*
X134620000Y-62865000D03*
G04 #@! TO.P,DISPLAY,3*
G04 #@! TO.N,/SCL*
X137160000Y-62865000D03*
G04 #@! TO.P,DISPLAY,4*
G04 #@! TO.N,/SDA*
X139700000Y-62865000D03*
G04 #@! TD*
D11*
G04 #@! TO.P,BOOT,1*
G04 #@! TO.N,Net-(J3-Pad1)*
X116840000Y-72390000D03*
D10*
G04 #@! TO.P,BOOT,2*
G04 #@! TO.N,+3V3*
X116840000Y-69850000D03*
G04 #@! TD*
D25*
G04 #@! TO.N,GND*
X139065000Y-78740000D03*
X100330000Y-77470000D03*
X123190000Y-68158000D03*
X123825000Y-68158000D03*
X124460000Y-68158000D03*
X125095000Y-68158000D03*
X125730000Y-68158000D03*
X112776008Y-79756000D03*
X159512000Y-59944000D03*
X159512000Y-60960000D03*
X159512000Y-61976000D03*
X159512000Y-62992000D03*
X159512000Y-64008000D03*
X159512000Y-65024000D03*
X159512000Y-66040000D03*
X159512000Y-67056000D03*
X159512000Y-68072000D03*
X159512000Y-69088000D03*
X159512000Y-70104000D03*
X159512000Y-71120000D03*
X159512000Y-72136000D03*
X159512000Y-73152000D03*
X159512000Y-74168000D03*
X159512000Y-75184000D03*
X159512000Y-58928000D03*
X149352000Y-84328000D03*
X146304000Y-84328000D03*
X143256000Y-84328000D03*
X140208000Y-84328000D03*
X137160000Y-84328000D03*
X134112000Y-84328000D03*
X131064000Y-84328000D03*
X128016000Y-84328000D03*
X124968000Y-84328000D03*
X121920000Y-84328000D03*
X118872000Y-84328000D03*
X115824000Y-84328000D03*
X112776000Y-84328000D03*
X110744000Y-84328000D03*
X107696000Y-84328000D03*
X104648000Y-84328000D03*
X101600000Y-84328000D03*
X98552000Y-84328000D03*
X95504000Y-84328000D03*
X92456000Y-84328000D03*
X89408000Y-83820000D03*
X88392000Y-73152000D03*
X88392000Y-72136000D03*
X88392000Y-71120000D03*
X88392000Y-70104000D03*
X88392000Y-69088000D03*
X88392000Y-68072000D03*
X88392000Y-67056000D03*
X88392000Y-66040000D03*
X88392000Y-65024000D03*
X88392000Y-64008000D03*
X88392000Y-62992000D03*
X88392000Y-61976000D03*
X88392000Y-60960000D03*
X88392000Y-59944000D03*
X88392000Y-58928000D03*
X88392000Y-57912000D03*
X88392000Y-56896000D03*
X111760000Y-84328000D03*
X113792000Y-84328000D03*
X114808000Y-84328000D03*
X148336000Y-84328000D03*
X147320000Y-84328000D03*
X145288000Y-84328000D03*
X144272000Y-84328000D03*
X142240000Y-84328000D03*
X141224000Y-84328000D03*
X139192000Y-84328000D03*
X138176000Y-84328000D03*
X136144000Y-84328000D03*
X135128000Y-84328000D03*
X133096000Y-84328000D03*
X132080000Y-84328000D03*
X130048000Y-84328000D03*
X129032000Y-84328000D03*
X127000000Y-84328000D03*
X125984000Y-84328000D03*
X123952000Y-84328000D03*
X122936000Y-84328000D03*
X120904000Y-84328000D03*
X119888000Y-84328000D03*
X117856000Y-84328000D03*
X116840000Y-84328000D03*
X109728000Y-84328000D03*
X108712000Y-84328000D03*
X106680000Y-84328000D03*
X105664000Y-84328000D03*
X103632000Y-84328000D03*
X102616000Y-84328000D03*
X100584000Y-84328000D03*
X99568000Y-84328000D03*
X97536000Y-84328000D03*
X96520000Y-84328000D03*
X94488000Y-84328000D03*
X93472000Y-84328000D03*
X91440000Y-84328000D03*
X90424000Y-84328000D03*
X120396000Y-81280000D03*
X121412000Y-81280000D03*
X122428000Y-81280000D03*
X123444000Y-81280000D03*
X124460000Y-81280000D03*
X125476000Y-81280000D03*
X126492000Y-81280000D03*
X127508000Y-81280000D03*
X128524000Y-81280000D03*
X99568000Y-81280000D03*
X107696000Y-81466990D03*
X108712000Y-81466990D03*
X101600000Y-81466990D03*
X109728000Y-81466990D03*
X105664000Y-81466990D03*
X103632000Y-81466990D03*
X104648000Y-81466990D03*
X102616000Y-81466990D03*
X106680000Y-81466990D03*
X100584000Y-81466990D03*
X159512000Y-57912000D03*
X101600000Y-42672000D03*
X102616000Y-42672000D03*
X103632000Y-42672000D03*
X104648000Y-42672000D03*
X105664000Y-42672000D03*
X106680000Y-42672000D03*
X107696000Y-42672000D03*
X108712000Y-42672000D03*
X109728000Y-42672000D03*
X119380000Y-42672000D03*
X120396000Y-42672000D03*
X121412000Y-42672000D03*
X122428000Y-42672000D03*
X123444000Y-42672000D03*
X124460000Y-42672000D03*
X125476000Y-42672000D03*
X126492000Y-42672000D03*
X127508000Y-42672000D03*
X128524000Y-42672000D03*
X137668000Y-42672000D03*
X138684000Y-42672000D03*
X139700000Y-42672000D03*
X140716000Y-42672000D03*
X141732000Y-42672000D03*
X142748000Y-42672000D03*
X143764000Y-42672000D03*
X144780000Y-42672000D03*
X145796000Y-42672000D03*
X146812000Y-42672000D03*
X105156000Y-62484000D03*
X106172000Y-62484000D03*
X107188000Y-62484000D03*
X108204000Y-62484000D03*
X109220000Y-62484000D03*
X110236000Y-62484000D03*
X111252000Y-62484000D03*
X112268000Y-62484000D03*
X113284000Y-62484000D03*
X114300000Y-62484000D03*
G04 #@! TO.N,/VBUS*
X94615000Y-77470000D03*
X93345000Y-76835000D03*
X110744000Y-81788000D03*
X97536000Y-79755998D03*
G04 #@! TO.N,+3V3*
X139959043Y-73219010D03*
X121920000Y-71628000D03*
X131572000Y-72129957D03*
G04 #@! TO.N,/HIGH*
X125095000Y-66675000D03*
G04 #@! TO.N,Net-(D1-Pad2)*
X138176000Y-72520002D03*
X118872000Y-65532000D03*
G04 #@! TO.N,/SCL*
X141605000Y-69850000D03*
X129032000Y-69088000D03*
G04 #@! TO.N,/SDA*
X142622986Y-69857333D03*
X122428000Y-69088000D03*
X136144000Y-64007990D03*
G04 #@! TO.N,Net-(J3-Pad1)*
X141732000Y-72644000D03*
X120243406Y-70764594D03*
G04 #@! TO.N,/USB_DM*
X140970000Y-78740000D03*
X97155000Y-76835000D03*
G04 #@! TO.N,/USB_DP*
X141670013Y-78740000D03*
X96385989Y-79339943D03*
G04 #@! TO.N,Net-(SW1-Pad1)*
X101600000Y-72390000D03*
X139062641Y-73297552D03*
G04 #@! TO.N,Net-(TP1-Pad1)*
X139065000Y-69850000D03*
G04 #@! TO.N,Net-(TP2-Pad1)*
X136581587Y-69093400D03*
G04 #@! TO.N,Net-(TP3-Pad1)*
X136525000Y-69850000D03*
G04 #@! TO.N,Net-(TP4-Pad1)*
X136525000Y-76200000D03*
G04 #@! TO.N,Net-(TP5-Pad1)*
X137160000Y-78740000D03*
G04 #@! TO.N,Net-(TP6-Pad1)*
X137892478Y-78809815D03*
G04 #@! TO.N,/ALERT*
X138469370Y-76103088D03*
X125095000Y-74295000D03*
G04 #@! TD*
D26*
G04 #@! TO.N,GND*
X139375000Y-77245000D02*
X139375000Y-78430000D01*
X139375000Y-78430000D02*
X139065000Y-78740000D01*
X98255000Y-77470000D02*
X100330000Y-77470000D01*
D27*
X123825000Y-68158000D02*
X123190000Y-68158000D01*
X124460000Y-68158000D02*
X123825000Y-68158000D01*
X125095000Y-68158000D02*
X124460000Y-68158000D01*
X125730000Y-68158000D02*
X125095000Y-68158000D01*
X122682000Y-67650000D02*
X123190000Y-68158000D01*
X121510000Y-67650000D02*
X122682000Y-67650000D01*
X126238000Y-67650000D02*
X125730000Y-68158000D01*
X127410000Y-67650000D02*
X126238000Y-67650000D01*
D26*
X111420000Y-79690000D02*
X112710008Y-79690000D01*
X112710008Y-79690000D02*
X112776008Y-79756000D01*
X114300000Y-78435000D02*
X114097008Y-78435000D01*
X91948000Y-80289500D02*
X91632500Y-80605000D01*
X91948000Y-79405000D02*
X91948000Y-80289500D01*
X91632500Y-79405000D02*
X91948000Y-79405000D01*
G04 #@! TO.N,/VBUS*
X96055000Y-77470000D02*
X94615000Y-77470000D01*
X93315000Y-76805000D02*
X93345000Y-76835000D01*
X91632500Y-76805000D02*
X93315000Y-76805000D01*
X113670000Y-80640000D02*
X114300000Y-80010000D01*
X111420000Y-80640000D02*
X113670000Y-80640000D01*
X116586000Y-80010000D02*
X117348000Y-80772000D01*
X114300000Y-80010000D02*
X116586000Y-80010000D01*
X111420000Y-81112000D02*
X111420000Y-80640000D01*
X110744000Y-81788000D02*
X111420000Y-81112000D01*
X97399999Y-79266444D02*
X97536000Y-79402445D01*
X96055000Y-77470000D02*
X96835000Y-77470000D01*
X97536000Y-79402445D02*
X97536000Y-79755998D01*
X96835000Y-77470000D02*
X97399999Y-78034999D01*
X97399999Y-78034999D02*
X97399999Y-79266444D01*
G04 #@! TO.N,+3V3*
X109165000Y-80010000D02*
X109220000Y-80065000D01*
X106680000Y-80010000D02*
X109165000Y-80010000D01*
X96425000Y-64430000D02*
X96425000Y-70190000D01*
X115990001Y-70699999D02*
X116840000Y-69850000D01*
X131952490Y-67767510D02*
X131601612Y-68118388D01*
X131952490Y-64092510D02*
X131952490Y-67767510D01*
X132080000Y-63965000D02*
X131952490Y-64092510D01*
X132080000Y-62865000D02*
X132080000Y-63965000D01*
X130860000Y-68300000D02*
X131140000Y-68580000D01*
X127410000Y-68300000D02*
X130860000Y-68300000D01*
X140025000Y-69540000D02*
X139065000Y-68580000D01*
X140025000Y-71345000D02*
X140025000Y-69540000D01*
X140025000Y-78760000D02*
X140025000Y-77245000D01*
X141275000Y-80010000D02*
X140025000Y-78760000D01*
X131940010Y-67779990D02*
X131601612Y-68118388D01*
X131601612Y-68118388D02*
X131140000Y-68580000D01*
X138264990Y-67779990D02*
X131940010Y-67779990D01*
X139065000Y-68580000D02*
X138264990Y-67779990D01*
X140025000Y-72390000D02*
X140025000Y-71345000D01*
X140025000Y-77245000D02*
X140025000Y-72390000D01*
X140025000Y-72390000D02*
X139959043Y-72455957D01*
X139959043Y-72455957D02*
X139959043Y-73219010D01*
X120142000Y-69850000D02*
X116840000Y-69850000D01*
X121920000Y-71628000D02*
X120142000Y-69850000D01*
X131140000Y-71263010D02*
X131572000Y-71695010D01*
X131140000Y-68580000D02*
X131140000Y-71263010D01*
X131572000Y-71695010D02*
X131572000Y-72129957D01*
X109220000Y-80065000D02*
X109220000Y-80640000D01*
X115664999Y-73054999D02*
X110490000Y-78229998D01*
X110490000Y-78795000D02*
X109220000Y-80065000D01*
X110490000Y-78229998D02*
X110490000Y-78795000D01*
X115664999Y-71025001D02*
X115664999Y-73054999D01*
X116840000Y-69850000D02*
X115664999Y-71025001D01*
X143128589Y-80010000D02*
X141275000Y-80010000D01*
X150482978Y-81647801D02*
X150482978Y-80127798D01*
X150932988Y-82097810D02*
X150482978Y-81647801D01*
X150932988Y-83251014D02*
X150932988Y-82097810D01*
X150876000Y-83308002D02*
X150932988Y-83251014D01*
X150482978Y-80127798D02*
X150365180Y-80010000D01*
X156732999Y-83880001D02*
X151447999Y-83880001D01*
X150365180Y-80010000D02*
X143128589Y-80010000D01*
X156808000Y-83805000D02*
X156732999Y-83880001D01*
X151447999Y-83880001D02*
X150876000Y-83308002D01*
X156808000Y-83185000D02*
X156808000Y-83805000D01*
X99375000Y-62230000D02*
X97175000Y-64430000D01*
X102362000Y-62230000D02*
X99375000Y-62230000D01*
X107442000Y-67310000D02*
X102362000Y-62230000D01*
X97175000Y-64430000D02*
X96425000Y-64430000D01*
X108966000Y-67310000D02*
X107442000Y-67310000D01*
D27*
G04 #@! TO.N,/HIGH*
X125420000Y-67000000D02*
X125095000Y-66675000D01*
X127410000Y-67000000D02*
X125420000Y-67000000D01*
D26*
X130277500Y-67000000D02*
X128410000Y-67000000D01*
X128410000Y-67000000D02*
X127410000Y-67000000D01*
X130602500Y-66675000D02*
X130277500Y-67000000D01*
X131140000Y-66675000D02*
X130602500Y-66675000D01*
G04 #@! TO.N,Net-(D1-Pad1)*
X115824000Y-64770000D02*
X117856000Y-64770000D01*
G04 #@! TO.N,Net-(D1-Pad2)*
X138725000Y-72324555D02*
X138725000Y-71345000D01*
X138529553Y-72520002D02*
X138725000Y-72324555D01*
X138176000Y-72520002D02*
X138529553Y-72520002D01*
X118872000Y-64211000D02*
X118872000Y-65178447D01*
X117856000Y-63195000D02*
X118872000Y-64211000D01*
X118872000Y-65178447D02*
X118872000Y-65532000D01*
G04 #@! TO.N,/IN+*
X121510000Y-65700000D02*
X121510000Y-64400000D01*
D28*
X121510000Y-57502000D02*
X114808000Y-50800000D01*
X121510000Y-64400000D02*
X121510000Y-57502000D01*
D26*
G04 #@! TO.N,/IN-*
X127410000Y-65700000D02*
X127410000Y-64400000D01*
D28*
X127410000Y-56740000D02*
X133350000Y-50800000D01*
X127410000Y-64400000D02*
X127410000Y-56740000D01*
D26*
G04 #@! TO.N,/SCL*
X141325000Y-71345000D02*
X141325000Y-70130000D01*
X141325000Y-70130000D02*
X141605000Y-69850000D01*
X127548000Y-69088000D02*
X127410000Y-68950000D01*
X129032000Y-69088000D02*
X127548000Y-69088000D01*
G04 #@! TO.N,/SDA*
X141975000Y-71345000D02*
X141975000Y-70505319D01*
X141975000Y-70505319D02*
X142622986Y-69857333D01*
X121648000Y-69088000D02*
X121510000Y-68950000D01*
X122428000Y-69088000D02*
X121648000Y-69088000D01*
X139700000Y-62865000D02*
X138307011Y-64257989D01*
X136393999Y-64257989D02*
X136144000Y-64007990D01*
X138307011Y-64257989D02*
X136393999Y-64257989D01*
G04 #@! TO.N,/SWDIO*
X141975000Y-77967000D02*
X141975000Y-77245000D01*
X142074999Y-78230001D02*
X142074999Y-78066999D01*
X142139999Y-78295001D02*
X142074999Y-78230001D01*
X143567989Y-79559989D02*
X142303001Y-78295001D01*
X151382999Y-82545001D02*
X151382999Y-81911411D01*
X150551579Y-79559989D02*
X143567989Y-79559989D01*
X142303001Y-78295001D02*
X142139999Y-78295001D01*
X152458591Y-82610001D02*
X151447999Y-82610001D01*
X150932989Y-79941399D02*
X150551579Y-79559989D01*
X151382999Y-81911411D02*
X150932989Y-81461401D01*
X150932989Y-81461401D02*
X150932989Y-79941399D01*
X142074999Y-78066999D02*
X141975000Y-77967000D01*
X151447999Y-82610001D02*
X151382999Y-82545001D01*
X153033590Y-83185000D02*
X152458591Y-82610001D01*
G04 #@! TO.N,/SWDCLK*
X143100000Y-77245000D02*
X142625000Y-77245000D01*
X144964978Y-79109978D02*
X143100000Y-77245000D01*
X150737978Y-79109978D02*
X144964978Y-79109978D01*
X151382999Y-79754999D02*
X150737978Y-79109978D01*
X151387998Y-80010000D02*
X151382999Y-80005001D01*
X151382999Y-81275001D02*
X151382999Y-80014999D01*
X151382999Y-80005001D02*
X151382999Y-79754999D01*
X151895998Y-81788000D02*
X151382999Y-81275001D01*
X151382999Y-80014999D02*
X151387998Y-80010000D01*
X152400000Y-81788000D02*
X151895998Y-81788000D01*
X152400000Y-81915000D02*
X152400000Y-81788000D01*
G04 #@! TO.N,/~RST*
X140675000Y-75143000D02*
X140675000Y-71345000D01*
X141224000Y-75692000D02*
X140675000Y-75143000D01*
X153110002Y-78105000D02*
X152983002Y-78232000D01*
X142748000Y-75692000D02*
X141224000Y-75692000D01*
X145288000Y-78232000D02*
X142748000Y-75692000D01*
X152983002Y-78232000D02*
X145288000Y-78232000D01*
G04 #@! TO.N,Net-(J3-Pad1)*
X118415000Y-70815000D02*
X116840000Y-72390000D01*
X119380000Y-70815000D02*
X118415000Y-70815000D01*
X142301000Y-72644000D02*
X141732000Y-72644000D01*
X142625000Y-72320000D02*
X142301000Y-72644000D01*
X142625000Y-71345000D02*
X142625000Y-72320000D01*
X119380000Y-70815000D02*
X120193000Y-70815000D01*
X120193000Y-70815000D02*
X120243406Y-70764594D01*
G04 #@! TO.N,/USB_DM*
X94713996Y-76520000D02*
X96055000Y-76520000D01*
X91632500Y-77455000D02*
X93778996Y-77455000D01*
X93778996Y-77455000D02*
X94713996Y-76520000D01*
X140675000Y-78445000D02*
X140970000Y-78740000D01*
X140675000Y-77245000D02*
X140675000Y-78445000D01*
X96840000Y-76520000D02*
X97155000Y-76835000D01*
X96055000Y-76520000D02*
X96840000Y-76520000D01*
G04 #@! TO.N,/USB_DP*
X95275000Y-78420000D02*
X96055000Y-78420000D01*
X94960000Y-78105000D02*
X95275000Y-78420000D01*
X91632500Y-78105000D02*
X94960000Y-78105000D01*
X141325000Y-77245000D02*
X141325000Y-78243996D01*
X141670013Y-78589009D02*
X141670013Y-78740000D01*
X141325000Y-78243996D02*
X141670013Y-78589009D01*
X96012000Y-78740000D02*
X96385989Y-79113989D01*
X96385989Y-79113989D02*
X96385989Y-79339943D01*
X96012000Y-78463000D02*
X96012000Y-78740000D01*
X96055000Y-78420000D02*
X96012000Y-78463000D01*
G04 #@! TO.N,Net-(J5-Pad2)*
X110236000Y-68580000D02*
X109815999Y-69000001D01*
X116275002Y-66350000D02*
X114045002Y-68580000D01*
X109815999Y-69000001D02*
X108966000Y-69850000D01*
X114045002Y-68580000D02*
X110236000Y-68580000D01*
X121510000Y-66350000D02*
X116275002Y-66350000D01*
G04 #@! TO.N,Net-(SW1-Pad1)*
X100425000Y-64430000D02*
X100425000Y-70190000D01*
X100425000Y-71215000D02*
X100425000Y-70190000D01*
X101600000Y-72390000D02*
X100425000Y-71215000D01*
X139375000Y-72985193D02*
X139062641Y-73297552D01*
X139375000Y-71345000D02*
X139375000Y-72985193D01*
G04 #@! TO.N,Net-(TP1-Pad1)*
X138075000Y-70370000D02*
X138595000Y-69850000D01*
X138075000Y-71345000D02*
X138075000Y-70370000D01*
X138595000Y-69850000D02*
X139065000Y-69850000D01*
G04 #@! TO.N,Net-(TP2-Pad1)*
X137425000Y-71345000D02*
X137425000Y-69936813D01*
X137425000Y-69936813D02*
X136581587Y-69093400D01*
G04 #@! TO.N,Net-(TP3-Pad1)*
X136775000Y-71345000D02*
X136775000Y-70100000D01*
X136775000Y-70100000D02*
X136525000Y-69850000D01*
G04 #@! TO.N,Net-(TP4-Pad1)*
X136775000Y-76450000D02*
X136525000Y-76200000D01*
X136775000Y-77245000D02*
X136775000Y-76450000D01*
G04 #@! TO.N,Net-(TP5-Pad1)*
X137425000Y-78475000D02*
X137160000Y-78740000D01*
X137425000Y-77245000D02*
X137425000Y-78475000D01*
G04 #@! TO.N,Net-(TP6-Pad1)*
X138075000Y-77245000D02*
X138075000Y-78627293D01*
X138075000Y-78627293D02*
X137892478Y-78809815D01*
G04 #@! TO.N,/ALERT*
X138725000Y-76358718D02*
X138725000Y-77245000D01*
X138469370Y-76103088D02*
X138725000Y-76358718D01*
X125095000Y-70885000D02*
X125095000Y-74295000D01*
X121510000Y-68300000D02*
X122510000Y-68300000D01*
X122510000Y-68300000D02*
X125095000Y-70885000D01*
G04 #@! TO.N,Net-(J9-Pad1)*
X116248000Y-78232000D02*
X117348000Y-78232000D01*
X115232000Y-77216000D02*
X116248000Y-78232000D01*
X113149000Y-77216000D02*
X115232000Y-77216000D01*
X111625000Y-78740000D02*
X113149000Y-77216000D01*
X111420000Y-78740000D02*
X111625000Y-78740000D01*
G04 #@! TO.N,Net-(J6-Pad2)*
X114554000Y-69850000D02*
X113030000Y-69850000D01*
X117404000Y-67000000D02*
X114554000Y-69850000D01*
X121510000Y-67000000D02*
X117404000Y-67000000D01*
G04 #@! TD*
D29*
G04 #@! TO.N,GND*
G36*
X109690084Y-43140497D02*
X107148497Y-45682084D01*
X105773000Y-49002827D01*
X105773000Y-52597173D01*
X107148497Y-55917916D01*
X109690084Y-58459503D01*
X113010827Y-59835000D01*
X116605173Y-59835000D01*
X119375001Y-58687700D01*
X119375000Y-63633051D01*
X119356473Y-63620671D01*
X118978440Y-63242638D01*
X118978440Y-62976250D01*
X118912505Y-62644773D01*
X118724739Y-62363761D01*
X118443727Y-62175995D01*
X118112250Y-62110060D01*
X117599750Y-62110060D01*
X117268273Y-62175995D01*
X116987261Y-62363761D01*
X116886000Y-62515309D01*
X116837327Y-62397802D01*
X116658699Y-62219173D01*
X116425310Y-62122500D01*
X116109750Y-62122500D01*
X115951000Y-62281250D01*
X115951000Y-63068000D01*
X115971000Y-63068000D01*
X115971000Y-63322000D01*
X115951000Y-63322000D01*
X115951000Y-63342000D01*
X115697000Y-63342000D01*
X115697000Y-63322000D01*
X114872750Y-63322000D01*
X114714000Y-63480750D01*
X114714000Y-63758809D01*
X114810673Y-63992198D01*
X114875943Y-64057469D01*
X114767495Y-64219773D01*
X114701560Y-64551250D01*
X114701560Y-64988750D01*
X114767495Y-65320227D01*
X114955261Y-65601239D01*
X115236273Y-65789005D01*
X115567750Y-65854940D01*
X115691747Y-65854940D01*
X115684673Y-65865527D01*
X114527440Y-67022761D01*
X114527440Y-66460000D01*
X114478157Y-66212235D01*
X114337809Y-66002191D01*
X114127765Y-65861843D01*
X113880000Y-65812560D01*
X112180000Y-65812560D01*
X111932235Y-65861843D01*
X111722191Y-66002191D01*
X111581843Y-66212235D01*
X111532560Y-66460000D01*
X111532560Y-67820000D01*
X110463440Y-67820000D01*
X110463440Y-66460000D01*
X110414157Y-66212235D01*
X110273809Y-66002191D01*
X110063765Y-65861843D01*
X109816000Y-65812560D01*
X108116000Y-65812560D01*
X107868235Y-65861843D01*
X107658191Y-66002191D01*
X107517843Y-66212235D01*
X107501450Y-66294648D01*
X103837993Y-62631191D01*
X114714000Y-62631191D01*
X114714000Y-62909250D01*
X114872750Y-63068000D01*
X115697000Y-63068000D01*
X115697000Y-62281250D01*
X115538250Y-62122500D01*
X115222690Y-62122500D01*
X114989301Y-62219173D01*
X114810673Y-62397802D01*
X114714000Y-62631191D01*
X103837993Y-62631191D01*
X102952331Y-61745530D01*
X102909929Y-61682071D01*
X102658537Y-61514096D01*
X102436852Y-61470000D01*
X102436847Y-61470000D01*
X102362000Y-61455112D01*
X102287153Y-61470000D01*
X99449848Y-61470000D01*
X99375000Y-61455112D01*
X99300152Y-61470000D01*
X99300148Y-61470000D01*
X99126605Y-61504520D01*
X99078462Y-61514096D01*
X98891418Y-61639076D01*
X98827071Y-61682071D01*
X98784671Y-61745527D01*
X97556307Y-62973892D01*
X97523157Y-62807235D01*
X97382809Y-62597191D01*
X97172765Y-62456843D01*
X96925000Y-62407560D01*
X95925000Y-62407560D01*
X95677235Y-62456843D01*
X95467191Y-62597191D01*
X95326843Y-62807235D01*
X95277560Y-63055000D01*
X95277560Y-65805000D01*
X95326843Y-66052765D01*
X95467191Y-66262809D01*
X95665000Y-66394982D01*
X95665001Y-68225018D01*
X95467191Y-68357191D01*
X95326843Y-68567235D01*
X95277560Y-68815000D01*
X95277560Y-71565000D01*
X95326843Y-71812765D01*
X95467191Y-72022809D01*
X95677235Y-72163157D01*
X95925000Y-72212440D01*
X96925000Y-72212440D01*
X97172765Y-72163157D01*
X97382809Y-72022809D01*
X97523157Y-71812765D01*
X97572440Y-71565000D01*
X97572440Y-68815000D01*
X97523157Y-68567235D01*
X97382809Y-68357191D01*
X97185000Y-68225018D01*
X97185000Y-66394982D01*
X97382809Y-66262809D01*
X97523157Y-66052765D01*
X97572440Y-65805000D01*
X97572440Y-65078483D01*
X97722929Y-64977929D01*
X97765331Y-64914470D01*
X99277560Y-63402242D01*
X99277560Y-65805000D01*
X99326843Y-66052765D01*
X99467191Y-66262809D01*
X99665000Y-66394982D01*
X99665001Y-68225018D01*
X99467191Y-68357191D01*
X99326843Y-68567235D01*
X99277560Y-68815000D01*
X99277560Y-71565000D01*
X99326843Y-71812765D01*
X99467191Y-72022809D01*
X99677235Y-72163157D01*
X99925000Y-72212440D01*
X100347639Y-72212440D01*
X100724733Y-72589535D01*
X100849733Y-72891312D01*
X101098688Y-73140267D01*
X101423963Y-73275000D01*
X101776037Y-73275000D01*
X102101312Y-73140267D01*
X102350267Y-72891312D01*
X102410088Y-72746890D01*
X107524524Y-72746890D01*
X107694355Y-73156924D01*
X108084642Y-73585183D01*
X108609108Y-73831486D01*
X108839000Y-73710819D01*
X108839000Y-72517000D01*
X109093000Y-72517000D01*
X109093000Y-73710819D01*
X109322892Y-73831486D01*
X109847358Y-73585183D01*
X110237645Y-73156924D01*
X110407476Y-72746890D01*
X111588524Y-72746890D01*
X111758355Y-73156924D01*
X112148642Y-73585183D01*
X112673108Y-73831486D01*
X112903000Y-73710819D01*
X112903000Y-72517000D01*
X113157000Y-72517000D01*
X113157000Y-73710819D01*
X113386892Y-73831486D01*
X113911358Y-73585183D01*
X114301645Y-73156924D01*
X114471476Y-72746890D01*
X114350155Y-72517000D01*
X113157000Y-72517000D01*
X112903000Y-72517000D01*
X111709845Y-72517000D01*
X111588524Y-72746890D01*
X110407476Y-72746890D01*
X110286155Y-72517000D01*
X109093000Y-72517000D01*
X108839000Y-72517000D01*
X107645845Y-72517000D01*
X107524524Y-72746890D01*
X102410088Y-72746890D01*
X102485000Y-72566037D01*
X102485000Y-72213963D01*
X102350267Y-71888688D01*
X102101312Y-71639733D01*
X101799535Y-71514733D01*
X101572440Y-71287638D01*
X101572440Y-68815000D01*
X101523157Y-68567235D01*
X101382809Y-68357191D01*
X101185000Y-68225018D01*
X101185000Y-66394982D01*
X101382809Y-66262809D01*
X101523157Y-66052765D01*
X101572440Y-65805000D01*
X101572440Y-63055000D01*
X101559511Y-62990000D01*
X102047199Y-62990000D01*
X106851671Y-67794473D01*
X106894071Y-67857929D01*
X107145463Y-68025904D01*
X107367148Y-68070000D01*
X107367153Y-68070000D01*
X107442000Y-68084888D01*
X107468560Y-68079605D01*
X107468560Y-68160000D01*
X107517843Y-68407765D01*
X107658191Y-68617809D01*
X107868235Y-68758157D01*
X107913619Y-68767184D01*
X107895375Y-68779375D01*
X107567161Y-69270582D01*
X107451908Y-69850000D01*
X107567161Y-70429418D01*
X107895375Y-70920625D01*
X108214478Y-71133843D01*
X108084642Y-71194817D01*
X107694355Y-71623076D01*
X107524524Y-72033110D01*
X107645845Y-72263000D01*
X108839000Y-72263000D01*
X108839000Y-72243000D01*
X109093000Y-72243000D01*
X109093000Y-72263000D01*
X110286155Y-72263000D01*
X110407476Y-72033110D01*
X110237645Y-71623076D01*
X109847358Y-71194817D01*
X109717522Y-71133843D01*
X110036625Y-70920625D01*
X110364839Y-70429418D01*
X110480092Y-69850000D01*
X110407209Y-69483592D01*
X110550801Y-69340000D01*
X111617353Y-69340000D01*
X111515908Y-69850000D01*
X111631161Y-70429418D01*
X111959375Y-70920625D01*
X112278478Y-71133843D01*
X112148642Y-71194817D01*
X111758355Y-71623076D01*
X111588524Y-72033110D01*
X111709845Y-72263000D01*
X112903000Y-72263000D01*
X112903000Y-72243000D01*
X113157000Y-72243000D01*
X113157000Y-72263000D01*
X114350155Y-72263000D01*
X114471476Y-72033110D01*
X114301645Y-71623076D01*
X113911358Y-71194817D01*
X113781522Y-71133843D01*
X114100625Y-70920625D01*
X114308178Y-70610000D01*
X114479153Y-70610000D01*
X114554000Y-70624888D01*
X114628847Y-70610000D01*
X114628852Y-70610000D01*
X114850537Y-70565904D01*
X115101929Y-70397929D01*
X115144331Y-70334470D01*
X115376161Y-70102640D01*
X115398791Y-70216408D01*
X115180529Y-70434670D01*
X115117070Y-70477072D01*
X114949095Y-70728465D01*
X114904999Y-70950150D01*
X114904999Y-70950154D01*
X114890111Y-71025001D01*
X114904999Y-71099848D01*
X114905000Y-72740196D01*
X110005530Y-77639667D01*
X109942071Y-77682069D01*
X109869116Y-77791253D01*
X109750000Y-77767560D01*
X108690000Y-77767560D01*
X108442235Y-77816843D01*
X108232191Y-77957191D01*
X108091843Y-78167235D01*
X108042560Y-78415000D01*
X108042560Y-79065000D01*
X108079358Y-79250000D01*
X107675525Y-79250000D01*
X107693327Y-79232198D01*
X107790000Y-78998809D01*
X107790000Y-78720750D01*
X107631250Y-78562000D01*
X106807000Y-78562000D01*
X106807000Y-78582000D01*
X106553000Y-78582000D01*
X106553000Y-78562000D01*
X105728750Y-78562000D01*
X105570000Y-78720750D01*
X105570000Y-78998809D01*
X105666673Y-79232198D01*
X105731943Y-79297469D01*
X105623495Y-79459773D01*
X105557560Y-79791250D01*
X105557560Y-80228750D01*
X105623495Y-80560227D01*
X105811261Y-80841239D01*
X106092273Y-81029005D01*
X106423750Y-81094940D01*
X106936250Y-81094940D01*
X107267727Y-81029005D01*
X107548739Y-80841239D01*
X107596339Y-80770000D01*
X108042560Y-80770000D01*
X108042560Y-80965000D01*
X108091843Y-81212765D01*
X108232191Y-81422809D01*
X108442235Y-81563157D01*
X108690000Y-81612440D01*
X109750000Y-81612440D01*
X109868572Y-81588855D01*
X109859000Y-81611963D01*
X109859000Y-81964037D01*
X109993733Y-82289312D01*
X110242688Y-82538267D01*
X110567963Y-82673000D01*
X110920037Y-82673000D01*
X111245312Y-82538267D01*
X111494267Y-82289312D01*
X111619267Y-81987535D01*
X111904476Y-81702327D01*
X111967929Y-81659929D01*
X112007272Y-81601048D01*
X112197765Y-81563157D01*
X112407809Y-81422809D01*
X112423050Y-81400000D01*
X113595153Y-81400000D01*
X113670000Y-81414888D01*
X113744847Y-81400000D01*
X113744852Y-81400000D01*
X113966537Y-81355904D01*
X114217929Y-81187929D01*
X114260331Y-81124470D01*
X114289861Y-81094940D01*
X114556250Y-81094940D01*
X114887727Y-81029005D01*
X115168739Y-80841239D01*
X115216339Y-80770000D01*
X115834306Y-80770000D01*
X115833908Y-80772000D01*
X115949161Y-81351418D01*
X116277375Y-81842625D01*
X116768582Y-82170839D01*
X117201744Y-82257000D01*
X117494256Y-82257000D01*
X117927418Y-82170839D01*
X118418625Y-81842625D01*
X118746839Y-81351418D01*
X118862092Y-80772000D01*
X118767361Y-80295750D01*
X138627500Y-80295750D01*
X138627500Y-80611310D01*
X138724173Y-80844699D01*
X138902802Y-81023327D01*
X139136191Y-81120000D01*
X139414250Y-81120000D01*
X139573000Y-80961250D01*
X139573000Y-80137000D01*
X138786250Y-80137000D01*
X138627500Y-80295750D01*
X118767361Y-80295750D01*
X118746839Y-80192582D01*
X118418625Y-79701375D01*
X118400381Y-79689184D01*
X118445765Y-79680157D01*
X118655809Y-79539809D01*
X118796157Y-79329765D01*
X118845440Y-79082000D01*
X118845440Y-77382000D01*
X118796157Y-77134235D01*
X118655809Y-76924191D01*
X118445765Y-76783843D01*
X118198000Y-76734560D01*
X116498000Y-76734560D01*
X116250235Y-76783843D01*
X116040191Y-76924191D01*
X116030098Y-76939296D01*
X115822331Y-76731530D01*
X115779929Y-76668071D01*
X115528537Y-76500096D01*
X115306852Y-76456000D01*
X115306847Y-76456000D01*
X115232000Y-76441112D01*
X115157153Y-76456000D01*
X113338799Y-76456000D01*
X115921071Y-73873729D01*
X115990000Y-73887440D01*
X117690000Y-73887440D01*
X117937765Y-73838157D01*
X118147809Y-73697809D01*
X118288157Y-73487765D01*
X118337440Y-73240000D01*
X118337440Y-73116623D01*
X118366673Y-73187198D01*
X118545301Y-73365827D01*
X118778690Y-73462500D01*
X119094250Y-73462500D01*
X119253000Y-73303750D01*
X119253000Y-72517000D01*
X119507000Y-72517000D01*
X119507000Y-73303750D01*
X119665750Y-73462500D01*
X119981310Y-73462500D01*
X120214699Y-73365827D01*
X120393327Y-73187198D01*
X120490000Y-72953809D01*
X120490000Y-72675750D01*
X120331250Y-72517000D01*
X119507000Y-72517000D01*
X119253000Y-72517000D01*
X119233000Y-72517000D01*
X119233000Y-72263000D01*
X119253000Y-72263000D01*
X119253000Y-72243000D01*
X119507000Y-72243000D01*
X119507000Y-72263000D01*
X120331250Y-72263000D01*
X120490000Y-72104250D01*
X120490000Y-71826191D01*
X120416851Y-71649594D01*
X120419443Y-71649594D01*
X120735767Y-71518569D01*
X121044733Y-71827535D01*
X121169733Y-72129312D01*
X121418688Y-72378267D01*
X121743963Y-72513000D01*
X122096037Y-72513000D01*
X122421312Y-72378267D01*
X122670267Y-72129312D01*
X122805000Y-71804037D01*
X122805000Y-71451963D01*
X122670267Y-71126688D01*
X122421312Y-70877733D01*
X122119535Y-70752733D01*
X121189241Y-69822440D01*
X121444650Y-69822440D01*
X121573148Y-69848000D01*
X121573152Y-69848000D01*
X121647999Y-69862888D01*
X121722846Y-69848000D01*
X121950186Y-69848000D01*
X122251963Y-69973000D01*
X122604037Y-69973000D01*
X122929312Y-69838267D01*
X122951389Y-69816190D01*
X124335000Y-71199802D01*
X124335001Y-73817184D01*
X124210000Y-74118963D01*
X124210000Y-74471037D01*
X124344733Y-74796312D01*
X124593688Y-75045267D01*
X124918963Y-75180000D01*
X125271037Y-75180000D01*
X125596312Y-75045267D01*
X125845267Y-74796312D01*
X125980000Y-74471037D01*
X125980000Y-74118963D01*
X125855000Y-73817186D01*
X125855000Y-70959846D01*
X125869888Y-70884999D01*
X125855000Y-70810152D01*
X125855000Y-70810148D01*
X125810904Y-70588463D01*
X125642929Y-70337071D01*
X125579473Y-70294671D01*
X123100331Y-67815530D01*
X123057929Y-67752071D01*
X122895000Y-67643205D01*
X122895000Y-67522998D01*
X122824592Y-67522998D01*
X122858157Y-67472765D01*
X122872353Y-67401397D01*
X122895000Y-67378750D01*
X122895000Y-67298690D01*
X122893502Y-67295073D01*
X122907440Y-67225000D01*
X122907440Y-66775000D01*
X122887549Y-66675000D01*
X122907440Y-66575000D01*
X122907440Y-66125000D01*
X122891463Y-66044678D01*
X123049249Y-65939249D01*
X123521126Y-65233036D01*
X123645000Y-64610279D01*
X123645000Y-57712274D01*
X123686826Y-57501999D01*
X123645000Y-57291724D01*
X123645000Y-57291721D01*
X123521126Y-56668964D01*
X123049249Y-55962751D01*
X122870984Y-55843638D01*
X122607435Y-55580089D01*
X123843000Y-52597173D01*
X123843000Y-49002827D01*
X122467503Y-45682084D01*
X119925916Y-43140497D01*
X118669325Y-42620000D01*
X129234675Y-42620000D01*
X127978084Y-43140497D01*
X125436497Y-45682084D01*
X124061000Y-49002827D01*
X124061000Y-52597173D01*
X125419299Y-55876397D01*
X125398874Y-55906965D01*
X125233174Y-56740000D01*
X125275001Y-56950279D01*
X125275000Y-64610278D01*
X125398874Y-65233035D01*
X125870751Y-65939249D01*
X126028537Y-66044678D01*
X126012560Y-66125000D01*
X126012560Y-66165000D01*
X125836579Y-66165000D01*
X125596312Y-65924733D01*
X125271037Y-65790000D01*
X124918963Y-65790000D01*
X124593688Y-65924733D01*
X124344733Y-66173688D01*
X124210000Y-66498963D01*
X124210000Y-66851037D01*
X124344733Y-67176312D01*
X124593688Y-67425267D01*
X124714400Y-67475267D01*
X124771414Y-67532282D01*
X124817999Y-67602001D01*
X125094199Y-67786552D01*
X125337763Y-67835000D01*
X125337766Y-67835000D01*
X125419999Y-67851357D01*
X125502232Y-67835000D01*
X126060298Y-67835000D01*
X126047647Y-67898603D01*
X126025000Y-67921250D01*
X126025000Y-68001310D01*
X126026498Y-68004927D01*
X126012560Y-68075000D01*
X126012560Y-68525000D01*
X126032451Y-68625000D01*
X126012560Y-68725000D01*
X126012560Y-69175000D01*
X126061843Y-69422765D01*
X126202191Y-69632809D01*
X126412235Y-69773157D01*
X126660000Y-69822440D01*
X127344650Y-69822440D01*
X127473148Y-69848000D01*
X127473152Y-69848000D01*
X127547999Y-69862888D01*
X127622846Y-69848000D01*
X128554186Y-69848000D01*
X128855963Y-69973000D01*
X129208037Y-69973000D01*
X129533312Y-69838267D01*
X129782267Y-69589312D01*
X129917000Y-69264037D01*
X129917000Y-69060000D01*
X130099567Y-69060000D01*
X130120995Y-69167727D01*
X130308761Y-69448739D01*
X130380000Y-69496340D01*
X130380001Y-71188158D01*
X130365112Y-71263010D01*
X130424097Y-71559547D01*
X130484265Y-71649594D01*
X130592072Y-71810939D01*
X130655528Y-71853339D01*
X130707242Y-71905053D01*
X130687000Y-71953920D01*
X130687000Y-72305994D01*
X130821733Y-72631269D01*
X131070688Y-72880224D01*
X131395963Y-73014957D01*
X131748037Y-73014957D01*
X132073312Y-72880224D01*
X132322267Y-72631269D01*
X132457000Y-72305994D01*
X132457000Y-71953920D01*
X132344238Y-71681689D01*
X132332000Y-71620162D01*
X132332000Y-71620158D01*
X132287904Y-71398473D01*
X132119929Y-71147081D01*
X132056470Y-71104679D01*
X131900000Y-70948209D01*
X131900000Y-69575525D01*
X131917802Y-69593327D01*
X132151191Y-69690000D01*
X132429250Y-69690000D01*
X132588000Y-69531250D01*
X132588000Y-68707000D01*
X132842000Y-68707000D01*
X132842000Y-69531250D01*
X133000750Y-69690000D01*
X133278809Y-69690000D01*
X133512198Y-69593327D01*
X133690827Y-69414699D01*
X133787500Y-69181310D01*
X133787500Y-68865750D01*
X133628750Y-68707000D01*
X132842000Y-68707000D01*
X132588000Y-68707000D01*
X132568000Y-68707000D01*
X132568000Y-68539990D01*
X135883418Y-68539990D01*
X135831320Y-68592088D01*
X135696587Y-68917363D01*
X135696587Y-69269437D01*
X135752073Y-69403393D01*
X135640000Y-69673963D01*
X135640000Y-70026037D01*
X135774733Y-70351312D01*
X135925930Y-70502509D01*
X135902560Y-70620000D01*
X135902560Y-72070000D01*
X135951843Y-72317765D01*
X136092191Y-72527809D01*
X136302235Y-72668157D01*
X136550000Y-72717440D01*
X137000000Y-72717440D01*
X137100000Y-72697549D01*
X137200000Y-72717440D01*
X137299865Y-72717440D01*
X137425733Y-73021314D01*
X137674688Y-73270269D01*
X137999963Y-73405002D01*
X138177641Y-73405002D01*
X138177641Y-73473589D01*
X138312374Y-73798864D01*
X138561329Y-74047819D01*
X138886604Y-74182552D01*
X139238678Y-74182552D01*
X139265001Y-74171649D01*
X139265000Y-75711293D01*
X139219637Y-75601776D01*
X138970682Y-75352821D01*
X138645407Y-75218088D01*
X138293333Y-75218088D01*
X137968058Y-75352821D01*
X137719103Y-75601776D01*
X137606941Y-75872560D01*
X137347287Y-75872560D01*
X137275267Y-75698688D01*
X137026312Y-75449733D01*
X136701037Y-75315000D01*
X136348963Y-75315000D01*
X136023688Y-75449733D01*
X135774733Y-75698688D01*
X135640000Y-76023963D01*
X135640000Y-76376037D01*
X135774733Y-76701312D01*
X135902560Y-76829139D01*
X135902560Y-77970000D01*
X135951843Y-78217765D01*
X136092191Y-78427809D01*
X136279543Y-78552995D01*
X136275000Y-78563963D01*
X136275000Y-78916037D01*
X136409733Y-79241312D01*
X136658688Y-79490267D01*
X136983963Y-79625000D01*
X137336037Y-79625000D01*
X137441965Y-79581123D01*
X137716441Y-79694815D01*
X138068515Y-79694815D01*
X138393790Y-79560082D01*
X138642745Y-79311127D01*
X138777478Y-78985852D01*
X138777478Y-78943923D01*
X138790904Y-78923830D01*
X138835000Y-78702145D01*
X138835000Y-78702141D01*
X138849888Y-78627294D01*
X138847928Y-78617440D01*
X138950000Y-78617440D01*
X139020073Y-78603502D01*
X139023690Y-78605000D01*
X139103750Y-78605000D01*
X139126397Y-78582353D01*
X139197765Y-78568157D01*
X139247998Y-78534592D01*
X139247998Y-78605000D01*
X139265000Y-78605000D01*
X139265000Y-78685153D01*
X139250112Y-78760000D01*
X139265000Y-78834847D01*
X139265000Y-78834851D01*
X139277959Y-78900000D01*
X139136191Y-78900000D01*
X138902802Y-78996673D01*
X138724173Y-79175301D01*
X138627500Y-79408690D01*
X138627500Y-79724250D01*
X138786250Y-79883000D01*
X139573000Y-79883000D01*
X139573000Y-79863000D01*
X139827000Y-79863000D01*
X139827000Y-79883000D01*
X139847000Y-79883000D01*
X139847000Y-80137000D01*
X139827000Y-80137000D01*
X139827000Y-80961250D01*
X139985750Y-81120000D01*
X140263809Y-81120000D01*
X140497198Y-81023327D01*
X140562469Y-80958057D01*
X140724773Y-81066505D01*
X141056250Y-81132440D01*
X141493750Y-81132440D01*
X141825227Y-81066505D01*
X142106239Y-80878739D01*
X142178896Y-80770000D01*
X149722979Y-80770000D01*
X149722978Y-81572953D01*
X149708090Y-81647801D01*
X149722978Y-81722648D01*
X149722978Y-81722652D01*
X149767074Y-81944337D01*
X149767075Y-81944338D01*
X149767075Y-81944339D01*
X149777727Y-81960281D01*
X149935049Y-82195730D01*
X149998509Y-82238132D01*
X150172989Y-82412612D01*
X150172988Y-82992172D01*
X150160097Y-83011465D01*
X150101112Y-83308002D01*
X150160097Y-83604539D01*
X150328071Y-83855931D01*
X150391529Y-83898332D01*
X150857670Y-84364474D01*
X150868044Y-84380000D01*
X90844693Y-84380000D01*
X90259870Y-84314401D01*
X89741835Y-84134003D01*
X89276636Y-83843315D01*
X88887403Y-83456790D01*
X88593475Y-82993633D01*
X88490444Y-82704287D01*
X88931000Y-82840000D01*
X89281000Y-82840000D01*
X89281000Y-79232000D01*
X89261000Y-79232000D01*
X89261000Y-78978000D01*
X89281000Y-78978000D01*
X89281000Y-77232000D01*
X89261000Y-77232000D01*
X89261000Y-76978000D01*
X89281000Y-76978000D01*
X89281000Y-73370000D01*
X89535000Y-73370000D01*
X89535000Y-76978000D01*
X89555000Y-76978000D01*
X89555000Y-77232000D01*
X89535000Y-77232000D01*
X89535000Y-78978000D01*
X89555000Y-78978000D01*
X89555000Y-79232000D01*
X89535000Y-79232000D01*
X89535000Y-82840000D01*
X89885000Y-82840000D01*
X90347947Y-82697390D01*
X90721080Y-82388474D01*
X90947592Y-81960281D01*
X90951462Y-81922609D01*
X90928375Y-81887328D01*
X90993000Y-81731309D01*
X90993000Y-81558398D01*
X91334207Y-81558398D01*
X91399122Y-81796753D01*
X91909146Y-81977312D01*
X92449444Y-81948949D01*
X92816878Y-81796753D01*
X92881793Y-81558398D01*
X92108000Y-80784605D01*
X91334207Y-81558398D01*
X90993000Y-81558398D01*
X90993000Y-81334781D01*
X91154602Y-81378793D01*
X91928395Y-80605000D01*
X91914253Y-80590858D01*
X92093858Y-80411253D01*
X92108000Y-80425395D01*
X92122143Y-80411253D01*
X92301748Y-80590858D01*
X92287605Y-80605000D01*
X93061398Y-81378793D01*
X93299753Y-81313878D01*
X93480312Y-80803854D01*
X93451949Y-80263556D01*
X93324743Y-79956452D01*
X93418000Y-79731309D01*
X93418000Y-79663750D01*
X93259250Y-79505000D01*
X93102836Y-79505000D01*
X93240809Y-79412809D01*
X93381157Y-79202765D01*
X93386042Y-79178208D01*
X93418000Y-79146250D01*
X93418000Y-79078691D01*
X93409783Y-79058853D01*
X93430440Y-78955000D01*
X93430440Y-78865000D01*
X94645199Y-78865000D01*
X94684669Y-78904470D01*
X94727071Y-78967929D01*
X94978463Y-79135904D01*
X95029234Y-79146003D01*
X95067191Y-79202809D01*
X95277235Y-79343157D01*
X95500989Y-79387664D01*
X95500989Y-79515980D01*
X95635722Y-79841255D01*
X95884677Y-80090210D01*
X96209952Y-80224943D01*
X96562026Y-80224943D01*
X96741529Y-80150591D01*
X96785733Y-80257310D01*
X97034688Y-80506265D01*
X97359963Y-80640998D01*
X97712037Y-80640998D01*
X98037312Y-80506265D01*
X98286267Y-80257310D01*
X98421000Y-79932035D01*
X98421000Y-79579961D01*
X98343326Y-79392440D01*
X98785000Y-79392440D01*
X99032765Y-79343157D01*
X99242809Y-79202809D01*
X99383157Y-78992765D01*
X99432440Y-78745000D01*
X99432440Y-78095000D01*
X99405064Y-77957369D01*
X99420000Y-77921310D01*
X99420000Y-77871191D01*
X105570000Y-77871191D01*
X105570000Y-78149250D01*
X105728750Y-78308000D01*
X106553000Y-78308000D01*
X106553000Y-77521250D01*
X106807000Y-77521250D01*
X106807000Y-78308000D01*
X107631250Y-78308000D01*
X107790000Y-78149250D01*
X107790000Y-77871191D01*
X107693327Y-77637802D01*
X107514699Y-77459173D01*
X107281310Y-77362500D01*
X106965750Y-77362500D01*
X106807000Y-77521250D01*
X106553000Y-77521250D01*
X106394250Y-77362500D01*
X106078690Y-77362500D01*
X105845301Y-77459173D01*
X105666673Y-77637802D01*
X105570000Y-77871191D01*
X99420000Y-77871191D01*
X99420000Y-77755750D01*
X99261250Y-77597000D01*
X99182659Y-77597000D01*
X99032765Y-77496843D01*
X98897815Y-77470000D01*
X99032765Y-77443157D01*
X99182659Y-77343000D01*
X99261250Y-77343000D01*
X99420000Y-77184250D01*
X99420000Y-77018690D01*
X99405064Y-76982631D01*
X99432440Y-76845000D01*
X99432440Y-76195000D01*
X99383157Y-75947235D01*
X99242809Y-75737191D01*
X99032765Y-75596843D01*
X98785000Y-75547560D01*
X97725000Y-75547560D01*
X97477235Y-75596843D01*
X97267191Y-75737191D01*
X97195957Y-75843799D01*
X97136537Y-75804096D01*
X97079999Y-75792850D01*
X97042809Y-75737191D01*
X96832765Y-75596843D01*
X96585000Y-75547560D01*
X95525000Y-75547560D01*
X95277235Y-75596843D01*
X95067191Y-75737191D01*
X95051950Y-75760000D01*
X94788844Y-75760000D01*
X94713996Y-75745112D01*
X94639148Y-75760000D01*
X94639144Y-75760000D01*
X94465601Y-75794520D01*
X94417458Y-75804096D01*
X94270829Y-75902071D01*
X94166067Y-75972071D01*
X94123667Y-76035527D01*
X93960387Y-76198808D01*
X93846312Y-76084733D01*
X93521037Y-75950000D01*
X93428573Y-75950000D01*
X93480312Y-75803854D01*
X93451949Y-75263556D01*
X93299753Y-74896122D01*
X93061398Y-74831207D01*
X92287605Y-75605000D01*
X92301748Y-75619143D01*
X92122143Y-75798748D01*
X92108000Y-75784605D01*
X92093858Y-75798748D01*
X91914253Y-75619143D01*
X91928395Y-75605000D01*
X91154602Y-74831207D01*
X90993000Y-74875219D01*
X90993000Y-74651602D01*
X91334207Y-74651602D01*
X92108000Y-75425395D01*
X92881793Y-74651602D01*
X92816878Y-74413247D01*
X92306854Y-74232688D01*
X91766556Y-74261051D01*
X91399122Y-74413247D01*
X91334207Y-74651602D01*
X90993000Y-74651602D01*
X90993000Y-74478691D01*
X90928375Y-74322672D01*
X90951462Y-74287391D01*
X90947592Y-74249719D01*
X90721080Y-73821526D01*
X90347947Y-73512610D01*
X89885000Y-73370000D01*
X89535000Y-73370000D01*
X89281000Y-73370000D01*
X88931000Y-73370000D01*
X88468053Y-73512610D01*
X88340000Y-73618625D01*
X88340000Y-54661325D01*
X88860497Y-55917916D01*
X91402084Y-58459503D01*
X94722827Y-59835000D01*
X98317173Y-59835000D01*
X101637916Y-58459503D01*
X104179503Y-55917916D01*
X105555000Y-52597173D01*
X105555000Y-49002827D01*
X104179503Y-45682084D01*
X101637916Y-43140497D01*
X100381325Y-42620000D01*
X110946675Y-42620000D01*
X109690084Y-43140497D01*
X109690084Y-43140497D01*
G37*
X109690084Y-43140497D02*
X107148497Y-45682084D01*
X105773000Y-49002827D01*
X105773000Y-52597173D01*
X107148497Y-55917916D01*
X109690084Y-58459503D01*
X113010827Y-59835000D01*
X116605173Y-59835000D01*
X119375001Y-58687700D01*
X119375000Y-63633051D01*
X119356473Y-63620671D01*
X118978440Y-63242638D01*
X118978440Y-62976250D01*
X118912505Y-62644773D01*
X118724739Y-62363761D01*
X118443727Y-62175995D01*
X118112250Y-62110060D01*
X117599750Y-62110060D01*
X117268273Y-62175995D01*
X116987261Y-62363761D01*
X116886000Y-62515309D01*
X116837327Y-62397802D01*
X116658699Y-62219173D01*
X116425310Y-62122500D01*
X116109750Y-62122500D01*
X115951000Y-62281250D01*
X115951000Y-63068000D01*
X115971000Y-63068000D01*
X115971000Y-63322000D01*
X115951000Y-63322000D01*
X115951000Y-63342000D01*
X115697000Y-63342000D01*
X115697000Y-63322000D01*
X114872750Y-63322000D01*
X114714000Y-63480750D01*
X114714000Y-63758809D01*
X114810673Y-63992198D01*
X114875943Y-64057469D01*
X114767495Y-64219773D01*
X114701560Y-64551250D01*
X114701560Y-64988750D01*
X114767495Y-65320227D01*
X114955261Y-65601239D01*
X115236273Y-65789005D01*
X115567750Y-65854940D01*
X115691747Y-65854940D01*
X115684673Y-65865527D01*
X114527440Y-67022761D01*
X114527440Y-66460000D01*
X114478157Y-66212235D01*
X114337809Y-66002191D01*
X114127765Y-65861843D01*
X113880000Y-65812560D01*
X112180000Y-65812560D01*
X111932235Y-65861843D01*
X111722191Y-66002191D01*
X111581843Y-66212235D01*
X111532560Y-66460000D01*
X111532560Y-67820000D01*
X110463440Y-67820000D01*
X110463440Y-66460000D01*
X110414157Y-66212235D01*
X110273809Y-66002191D01*
X110063765Y-65861843D01*
X109816000Y-65812560D01*
X108116000Y-65812560D01*
X107868235Y-65861843D01*
X107658191Y-66002191D01*
X107517843Y-66212235D01*
X107501450Y-66294648D01*
X103837993Y-62631191D01*
X114714000Y-62631191D01*
X114714000Y-62909250D01*
X114872750Y-63068000D01*
X115697000Y-63068000D01*
X115697000Y-62281250D01*
X115538250Y-62122500D01*
X115222690Y-62122500D01*
X114989301Y-62219173D01*
X114810673Y-62397802D01*
X114714000Y-62631191D01*
X103837993Y-62631191D01*
X102952331Y-61745530D01*
X102909929Y-61682071D01*
X102658537Y-61514096D01*
X102436852Y-61470000D01*
X102436847Y-61470000D01*
X102362000Y-61455112D01*
X102287153Y-61470000D01*
X99449848Y-61470000D01*
X99375000Y-61455112D01*
X99300152Y-61470000D01*
X99300148Y-61470000D01*
X99126605Y-61504520D01*
X99078462Y-61514096D01*
X98891418Y-61639076D01*
X98827071Y-61682071D01*
X98784671Y-61745527D01*
X97556307Y-62973892D01*
X97523157Y-62807235D01*
X97382809Y-62597191D01*
X97172765Y-62456843D01*
X96925000Y-62407560D01*
X95925000Y-62407560D01*
X95677235Y-62456843D01*
X95467191Y-62597191D01*
X95326843Y-62807235D01*
X95277560Y-63055000D01*
X95277560Y-65805000D01*
X95326843Y-66052765D01*
X95467191Y-66262809D01*
X95665000Y-66394982D01*
X95665001Y-68225018D01*
X95467191Y-68357191D01*
X95326843Y-68567235D01*
X95277560Y-68815000D01*
X95277560Y-71565000D01*
X95326843Y-71812765D01*
X95467191Y-72022809D01*
X95677235Y-72163157D01*
X95925000Y-72212440D01*
X96925000Y-72212440D01*
X97172765Y-72163157D01*
X97382809Y-72022809D01*
X97523157Y-71812765D01*
X97572440Y-71565000D01*
X97572440Y-68815000D01*
X97523157Y-68567235D01*
X97382809Y-68357191D01*
X97185000Y-68225018D01*
X97185000Y-66394982D01*
X97382809Y-66262809D01*
X97523157Y-66052765D01*
X97572440Y-65805000D01*
X97572440Y-65078483D01*
X97722929Y-64977929D01*
X97765331Y-64914470D01*
X99277560Y-63402242D01*
X99277560Y-65805000D01*
X99326843Y-66052765D01*
X99467191Y-66262809D01*
X99665000Y-66394982D01*
X99665001Y-68225018D01*
X99467191Y-68357191D01*
X99326843Y-68567235D01*
X99277560Y-68815000D01*
X99277560Y-71565000D01*
X99326843Y-71812765D01*
X99467191Y-72022809D01*
X99677235Y-72163157D01*
X99925000Y-72212440D01*
X100347639Y-72212440D01*
X100724733Y-72589535D01*
X100849733Y-72891312D01*
X101098688Y-73140267D01*
X101423963Y-73275000D01*
X101776037Y-73275000D01*
X102101312Y-73140267D01*
X102350267Y-72891312D01*
X102410088Y-72746890D01*
X107524524Y-72746890D01*
X107694355Y-73156924D01*
X108084642Y-73585183D01*
X108609108Y-73831486D01*
X108839000Y-73710819D01*
X108839000Y-72517000D01*
X109093000Y-72517000D01*
X109093000Y-73710819D01*
X109322892Y-73831486D01*
X109847358Y-73585183D01*
X110237645Y-73156924D01*
X110407476Y-72746890D01*
X111588524Y-72746890D01*
X111758355Y-73156924D01*
X112148642Y-73585183D01*
X112673108Y-73831486D01*
X112903000Y-73710819D01*
X112903000Y-72517000D01*
X113157000Y-72517000D01*
X113157000Y-73710819D01*
X113386892Y-73831486D01*
X113911358Y-73585183D01*
X114301645Y-73156924D01*
X114471476Y-72746890D01*
X114350155Y-72517000D01*
X113157000Y-72517000D01*
X112903000Y-72517000D01*
X111709845Y-72517000D01*
X111588524Y-72746890D01*
X110407476Y-72746890D01*
X110286155Y-72517000D01*
X109093000Y-72517000D01*
X108839000Y-72517000D01*
X107645845Y-72517000D01*
X107524524Y-72746890D01*
X102410088Y-72746890D01*
X102485000Y-72566037D01*
X102485000Y-72213963D01*
X102350267Y-71888688D01*
X102101312Y-71639733D01*
X101799535Y-71514733D01*
X101572440Y-71287638D01*
X101572440Y-68815000D01*
X101523157Y-68567235D01*
X101382809Y-68357191D01*
X101185000Y-68225018D01*
X101185000Y-66394982D01*
X101382809Y-66262809D01*
X101523157Y-66052765D01*
X101572440Y-65805000D01*
X101572440Y-63055000D01*
X101559511Y-62990000D01*
X102047199Y-62990000D01*
X106851671Y-67794473D01*
X106894071Y-67857929D01*
X107145463Y-68025904D01*
X107367148Y-68070000D01*
X107367153Y-68070000D01*
X107442000Y-68084888D01*
X107468560Y-68079605D01*
X107468560Y-68160000D01*
X107517843Y-68407765D01*
X107658191Y-68617809D01*
X107868235Y-68758157D01*
X107913619Y-68767184D01*
X107895375Y-68779375D01*
X107567161Y-69270582D01*
X107451908Y-69850000D01*
X107567161Y-70429418D01*
X107895375Y-70920625D01*
X108214478Y-71133843D01*
X108084642Y-71194817D01*
X107694355Y-71623076D01*
X107524524Y-72033110D01*
X107645845Y-72263000D01*
X108839000Y-72263000D01*
X108839000Y-72243000D01*
X109093000Y-72243000D01*
X109093000Y-72263000D01*
X110286155Y-72263000D01*
X110407476Y-72033110D01*
X110237645Y-71623076D01*
X109847358Y-71194817D01*
X109717522Y-71133843D01*
X110036625Y-70920625D01*
X110364839Y-70429418D01*
X110480092Y-69850000D01*
X110407209Y-69483592D01*
X110550801Y-69340000D01*
X111617353Y-69340000D01*
X111515908Y-69850000D01*
X111631161Y-70429418D01*
X111959375Y-70920625D01*
X112278478Y-71133843D01*
X112148642Y-71194817D01*
X111758355Y-71623076D01*
X111588524Y-72033110D01*
X111709845Y-72263000D01*
X112903000Y-72263000D01*
X112903000Y-72243000D01*
X113157000Y-72243000D01*
X113157000Y-72263000D01*
X114350155Y-72263000D01*
X114471476Y-72033110D01*
X114301645Y-71623076D01*
X113911358Y-71194817D01*
X113781522Y-71133843D01*
X114100625Y-70920625D01*
X114308178Y-70610000D01*
X114479153Y-70610000D01*
X114554000Y-70624888D01*
X114628847Y-70610000D01*
X114628852Y-70610000D01*
X114850537Y-70565904D01*
X115101929Y-70397929D01*
X115144331Y-70334470D01*
X115376161Y-70102640D01*
X115398791Y-70216408D01*
X115180529Y-70434670D01*
X115117070Y-70477072D01*
X114949095Y-70728465D01*
X114904999Y-70950150D01*
X114904999Y-70950154D01*
X114890111Y-71025001D01*
X114904999Y-71099848D01*
X114905000Y-72740196D01*
X110005530Y-77639667D01*
X109942071Y-77682069D01*
X109869116Y-77791253D01*
X109750000Y-77767560D01*
X108690000Y-77767560D01*
X108442235Y-77816843D01*
X108232191Y-77957191D01*
X108091843Y-78167235D01*
X108042560Y-78415000D01*
X108042560Y-79065000D01*
X108079358Y-79250000D01*
X107675525Y-79250000D01*
X107693327Y-79232198D01*
X107790000Y-78998809D01*
X107790000Y-78720750D01*
X107631250Y-78562000D01*
X106807000Y-78562000D01*
X106807000Y-78582000D01*
X106553000Y-78582000D01*
X106553000Y-78562000D01*
X105728750Y-78562000D01*
X105570000Y-78720750D01*
X105570000Y-78998809D01*
X105666673Y-79232198D01*
X105731943Y-79297469D01*
X105623495Y-79459773D01*
X105557560Y-79791250D01*
X105557560Y-80228750D01*
X105623495Y-80560227D01*
X105811261Y-80841239D01*
X106092273Y-81029005D01*
X106423750Y-81094940D01*
X106936250Y-81094940D01*
X107267727Y-81029005D01*
X107548739Y-80841239D01*
X107596339Y-80770000D01*
X108042560Y-80770000D01*
X108042560Y-80965000D01*
X108091843Y-81212765D01*
X108232191Y-81422809D01*
X108442235Y-81563157D01*
X108690000Y-81612440D01*
X109750000Y-81612440D01*
X109868572Y-81588855D01*
X109859000Y-81611963D01*
X109859000Y-81964037D01*
X109993733Y-82289312D01*
X110242688Y-82538267D01*
X110567963Y-82673000D01*
X110920037Y-82673000D01*
X111245312Y-82538267D01*
X111494267Y-82289312D01*
X111619267Y-81987535D01*
X111904476Y-81702327D01*
X111967929Y-81659929D01*
X112007272Y-81601048D01*
X112197765Y-81563157D01*
X112407809Y-81422809D01*
X112423050Y-81400000D01*
X113595153Y-81400000D01*
X113670000Y-81414888D01*
X113744847Y-81400000D01*
X113744852Y-81400000D01*
X113966537Y-81355904D01*
X114217929Y-81187929D01*
X114260331Y-81124470D01*
X114289861Y-81094940D01*
X114556250Y-81094940D01*
X114887727Y-81029005D01*
X115168739Y-80841239D01*
X115216339Y-80770000D01*
X115834306Y-80770000D01*
X115833908Y-80772000D01*
X115949161Y-81351418D01*
X116277375Y-81842625D01*
X116768582Y-82170839D01*
X117201744Y-82257000D01*
X117494256Y-82257000D01*
X117927418Y-82170839D01*
X118418625Y-81842625D01*
X118746839Y-81351418D01*
X118862092Y-80772000D01*
X118767361Y-80295750D01*
X138627500Y-80295750D01*
X138627500Y-80611310D01*
X138724173Y-80844699D01*
X138902802Y-81023327D01*
X139136191Y-81120000D01*
X139414250Y-81120000D01*
X139573000Y-80961250D01*
X139573000Y-80137000D01*
X138786250Y-80137000D01*
X138627500Y-80295750D01*
X118767361Y-80295750D01*
X118746839Y-80192582D01*
X118418625Y-79701375D01*
X118400381Y-79689184D01*
X118445765Y-79680157D01*
X118655809Y-79539809D01*
X118796157Y-79329765D01*
X118845440Y-79082000D01*
X118845440Y-77382000D01*
X118796157Y-77134235D01*
X118655809Y-76924191D01*
X118445765Y-76783843D01*
X118198000Y-76734560D01*
X116498000Y-76734560D01*
X116250235Y-76783843D01*
X116040191Y-76924191D01*
X116030098Y-76939296D01*
X115822331Y-76731530D01*
X115779929Y-76668071D01*
X115528537Y-76500096D01*
X115306852Y-76456000D01*
X115306847Y-76456000D01*
X115232000Y-76441112D01*
X115157153Y-76456000D01*
X113338799Y-76456000D01*
X115921071Y-73873729D01*
X115990000Y-73887440D01*
X117690000Y-73887440D01*
X117937765Y-73838157D01*
X118147809Y-73697809D01*
X118288157Y-73487765D01*
X118337440Y-73240000D01*
X118337440Y-73116623D01*
X118366673Y-73187198D01*
X118545301Y-73365827D01*
X118778690Y-73462500D01*
X119094250Y-73462500D01*
X119253000Y-73303750D01*
X119253000Y-72517000D01*
X119507000Y-72517000D01*
X119507000Y-73303750D01*
X119665750Y-73462500D01*
X119981310Y-73462500D01*
X120214699Y-73365827D01*
X120393327Y-73187198D01*
X120490000Y-72953809D01*
X120490000Y-72675750D01*
X120331250Y-72517000D01*
X119507000Y-72517000D01*
X119253000Y-72517000D01*
X119233000Y-72517000D01*
X119233000Y-72263000D01*
X119253000Y-72263000D01*
X119253000Y-72243000D01*
X119507000Y-72243000D01*
X119507000Y-72263000D01*
X120331250Y-72263000D01*
X120490000Y-72104250D01*
X120490000Y-71826191D01*
X120416851Y-71649594D01*
X120419443Y-71649594D01*
X120735767Y-71518569D01*
X121044733Y-71827535D01*
X121169733Y-72129312D01*
X121418688Y-72378267D01*
X121743963Y-72513000D01*
X122096037Y-72513000D01*
X122421312Y-72378267D01*
X122670267Y-72129312D01*
X122805000Y-71804037D01*
X122805000Y-71451963D01*
X122670267Y-71126688D01*
X122421312Y-70877733D01*
X122119535Y-70752733D01*
X121189241Y-69822440D01*
X121444650Y-69822440D01*
X121573148Y-69848000D01*
X121573152Y-69848000D01*
X121647999Y-69862888D01*
X121722846Y-69848000D01*
X121950186Y-69848000D01*
X122251963Y-69973000D01*
X122604037Y-69973000D01*
X122929312Y-69838267D01*
X122951389Y-69816190D01*
X124335000Y-71199802D01*
X124335001Y-73817184D01*
X124210000Y-74118963D01*
X124210000Y-74471037D01*
X124344733Y-74796312D01*
X124593688Y-75045267D01*
X124918963Y-75180000D01*
X125271037Y-75180000D01*
X125596312Y-75045267D01*
X125845267Y-74796312D01*
X125980000Y-74471037D01*
X125980000Y-74118963D01*
X125855000Y-73817186D01*
X125855000Y-70959846D01*
X125869888Y-70884999D01*
X125855000Y-70810152D01*
X125855000Y-70810148D01*
X125810904Y-70588463D01*
X125642929Y-70337071D01*
X125579473Y-70294671D01*
X123100331Y-67815530D01*
X123057929Y-67752071D01*
X122895000Y-67643205D01*
X122895000Y-67522998D01*
X122824592Y-67522998D01*
X122858157Y-67472765D01*
X122872353Y-67401397D01*
X122895000Y-67378750D01*
X122895000Y-67298690D01*
X122893502Y-67295073D01*
X122907440Y-67225000D01*
X122907440Y-66775000D01*
X122887549Y-66675000D01*
X122907440Y-66575000D01*
X122907440Y-66125000D01*
X122891463Y-66044678D01*
X123049249Y-65939249D01*
X123521126Y-65233036D01*
X123645000Y-64610279D01*
X123645000Y-57712274D01*
X123686826Y-57501999D01*
X123645000Y-57291724D01*
X123645000Y-57291721D01*
X123521126Y-56668964D01*
X123049249Y-55962751D01*
X122870984Y-55843638D01*
X122607435Y-55580089D01*
X123843000Y-52597173D01*
X123843000Y-49002827D01*
X122467503Y-45682084D01*
X119925916Y-43140497D01*
X118669325Y-42620000D01*
X129234675Y-42620000D01*
X127978084Y-43140497D01*
X125436497Y-45682084D01*
X124061000Y-49002827D01*
X124061000Y-52597173D01*
X125419299Y-55876397D01*
X125398874Y-55906965D01*
X125233174Y-56740000D01*
X125275001Y-56950279D01*
X125275000Y-64610278D01*
X125398874Y-65233035D01*
X125870751Y-65939249D01*
X126028537Y-66044678D01*
X126012560Y-66125000D01*
X126012560Y-66165000D01*
X125836579Y-66165000D01*
X125596312Y-65924733D01*
X125271037Y-65790000D01*
X124918963Y-65790000D01*
X124593688Y-65924733D01*
X124344733Y-66173688D01*
X124210000Y-66498963D01*
X124210000Y-66851037D01*
X124344733Y-67176312D01*
X124593688Y-67425267D01*
X124714400Y-67475267D01*
X124771414Y-67532282D01*
X124817999Y-67602001D01*
X125094199Y-67786552D01*
X125337763Y-67835000D01*
X125337766Y-67835000D01*
X125419999Y-67851357D01*
X125502232Y-67835000D01*
X126060298Y-67835000D01*
X126047647Y-67898603D01*
X126025000Y-67921250D01*
X126025000Y-68001310D01*
X126026498Y-68004927D01*
X126012560Y-68075000D01*
X126012560Y-68525000D01*
X126032451Y-68625000D01*
X126012560Y-68725000D01*
X126012560Y-69175000D01*
X126061843Y-69422765D01*
X126202191Y-69632809D01*
X126412235Y-69773157D01*
X126660000Y-69822440D01*
X127344650Y-69822440D01*
X127473148Y-69848000D01*
X127473152Y-69848000D01*
X127547999Y-69862888D01*
X127622846Y-69848000D01*
X128554186Y-69848000D01*
X128855963Y-69973000D01*
X129208037Y-69973000D01*
X129533312Y-69838267D01*
X129782267Y-69589312D01*
X129917000Y-69264037D01*
X129917000Y-69060000D01*
X130099567Y-69060000D01*
X130120995Y-69167727D01*
X130308761Y-69448739D01*
X130380000Y-69496340D01*
X130380001Y-71188158D01*
X130365112Y-71263010D01*
X130424097Y-71559547D01*
X130484265Y-71649594D01*
X130592072Y-71810939D01*
X130655528Y-71853339D01*
X130707242Y-71905053D01*
X130687000Y-71953920D01*
X130687000Y-72305994D01*
X130821733Y-72631269D01*
X131070688Y-72880224D01*
X131395963Y-73014957D01*
X131748037Y-73014957D01*
X132073312Y-72880224D01*
X132322267Y-72631269D01*
X132457000Y-72305994D01*
X132457000Y-71953920D01*
X132344238Y-71681689D01*
X132332000Y-71620162D01*
X132332000Y-71620158D01*
X132287904Y-71398473D01*
X132119929Y-71147081D01*
X132056470Y-71104679D01*
X131900000Y-70948209D01*
X131900000Y-69575525D01*
X131917802Y-69593327D01*
X132151191Y-69690000D01*
X132429250Y-69690000D01*
X132588000Y-69531250D01*
X132588000Y-68707000D01*
X132842000Y-68707000D01*
X132842000Y-69531250D01*
X133000750Y-69690000D01*
X133278809Y-69690000D01*
X133512198Y-69593327D01*
X133690827Y-69414699D01*
X133787500Y-69181310D01*
X133787500Y-68865750D01*
X133628750Y-68707000D01*
X132842000Y-68707000D01*
X132588000Y-68707000D01*
X132568000Y-68707000D01*
X132568000Y-68539990D01*
X135883418Y-68539990D01*
X135831320Y-68592088D01*
X135696587Y-68917363D01*
X135696587Y-69269437D01*
X135752073Y-69403393D01*
X135640000Y-69673963D01*
X135640000Y-70026037D01*
X135774733Y-70351312D01*
X135925930Y-70502509D01*
X135902560Y-70620000D01*
X135902560Y-72070000D01*
X135951843Y-72317765D01*
X136092191Y-72527809D01*
X136302235Y-72668157D01*
X136550000Y-72717440D01*
X137000000Y-72717440D01*
X137100000Y-72697549D01*
X137200000Y-72717440D01*
X137299865Y-72717440D01*
X137425733Y-73021314D01*
X137674688Y-73270269D01*
X137999963Y-73405002D01*
X138177641Y-73405002D01*
X138177641Y-73473589D01*
X138312374Y-73798864D01*
X138561329Y-74047819D01*
X138886604Y-74182552D01*
X139238678Y-74182552D01*
X139265001Y-74171649D01*
X139265000Y-75711293D01*
X139219637Y-75601776D01*
X138970682Y-75352821D01*
X138645407Y-75218088D01*
X138293333Y-75218088D01*
X137968058Y-75352821D01*
X137719103Y-75601776D01*
X137606941Y-75872560D01*
X137347287Y-75872560D01*
X137275267Y-75698688D01*
X137026312Y-75449733D01*
X136701037Y-75315000D01*
X136348963Y-75315000D01*
X136023688Y-75449733D01*
X135774733Y-75698688D01*
X135640000Y-76023963D01*
X135640000Y-76376037D01*
X135774733Y-76701312D01*
X135902560Y-76829139D01*
X135902560Y-77970000D01*
X135951843Y-78217765D01*
X136092191Y-78427809D01*
X136279543Y-78552995D01*
X136275000Y-78563963D01*
X136275000Y-78916037D01*
X136409733Y-79241312D01*
X136658688Y-79490267D01*
X136983963Y-79625000D01*
X137336037Y-79625000D01*
X137441965Y-79581123D01*
X137716441Y-79694815D01*
X138068515Y-79694815D01*
X138393790Y-79560082D01*
X138642745Y-79311127D01*
X138777478Y-78985852D01*
X138777478Y-78943923D01*
X138790904Y-78923830D01*
X138835000Y-78702145D01*
X138835000Y-78702141D01*
X138849888Y-78627294D01*
X138847928Y-78617440D01*
X138950000Y-78617440D01*
X139020073Y-78603502D01*
X139023690Y-78605000D01*
X139103750Y-78605000D01*
X139126397Y-78582353D01*
X139197765Y-78568157D01*
X139247998Y-78534592D01*
X139247998Y-78605000D01*
X139265000Y-78605000D01*
X139265000Y-78685153D01*
X139250112Y-78760000D01*
X139265000Y-78834847D01*
X139265000Y-78834851D01*
X139277959Y-78900000D01*
X139136191Y-78900000D01*
X138902802Y-78996673D01*
X138724173Y-79175301D01*
X138627500Y-79408690D01*
X138627500Y-79724250D01*
X138786250Y-79883000D01*
X139573000Y-79883000D01*
X139573000Y-79863000D01*
X139827000Y-79863000D01*
X139827000Y-79883000D01*
X139847000Y-79883000D01*
X139847000Y-80137000D01*
X139827000Y-80137000D01*
X139827000Y-80961250D01*
X139985750Y-81120000D01*
X140263809Y-81120000D01*
X140497198Y-81023327D01*
X140562469Y-80958057D01*
X140724773Y-81066505D01*
X141056250Y-81132440D01*
X141493750Y-81132440D01*
X141825227Y-81066505D01*
X142106239Y-80878739D01*
X142178896Y-80770000D01*
X149722979Y-80770000D01*
X149722978Y-81572953D01*
X149708090Y-81647801D01*
X149722978Y-81722648D01*
X149722978Y-81722652D01*
X149767074Y-81944337D01*
X149767075Y-81944338D01*
X149767075Y-81944339D01*
X149777727Y-81960281D01*
X149935049Y-82195730D01*
X149998509Y-82238132D01*
X150172989Y-82412612D01*
X150172988Y-82992172D01*
X150160097Y-83011465D01*
X150101112Y-83308002D01*
X150160097Y-83604539D01*
X150328071Y-83855931D01*
X150391529Y-83898332D01*
X150857670Y-84364474D01*
X150868044Y-84380000D01*
X90844693Y-84380000D01*
X90259870Y-84314401D01*
X89741835Y-84134003D01*
X89276636Y-83843315D01*
X88887403Y-83456790D01*
X88593475Y-82993633D01*
X88490444Y-82704287D01*
X88931000Y-82840000D01*
X89281000Y-82840000D01*
X89281000Y-79232000D01*
X89261000Y-79232000D01*
X89261000Y-78978000D01*
X89281000Y-78978000D01*
X89281000Y-77232000D01*
X89261000Y-77232000D01*
X89261000Y-76978000D01*
X89281000Y-76978000D01*
X89281000Y-73370000D01*
X89535000Y-73370000D01*
X89535000Y-76978000D01*
X89555000Y-76978000D01*
X89555000Y-77232000D01*
X89535000Y-77232000D01*
X89535000Y-78978000D01*
X89555000Y-78978000D01*
X89555000Y-79232000D01*
X89535000Y-79232000D01*
X89535000Y-82840000D01*
X89885000Y-82840000D01*
X90347947Y-82697390D01*
X90721080Y-82388474D01*
X90947592Y-81960281D01*
X90951462Y-81922609D01*
X90928375Y-81887328D01*
X90993000Y-81731309D01*
X90993000Y-81558398D01*
X91334207Y-81558398D01*
X91399122Y-81796753D01*
X91909146Y-81977312D01*
X92449444Y-81948949D01*
X92816878Y-81796753D01*
X92881793Y-81558398D01*
X92108000Y-80784605D01*
X91334207Y-81558398D01*
X90993000Y-81558398D01*
X90993000Y-81334781D01*
X91154602Y-81378793D01*
X91928395Y-80605000D01*
X91914253Y-80590858D01*
X92093858Y-80411253D01*
X92108000Y-80425395D01*
X92122143Y-80411253D01*
X92301748Y-80590858D01*
X92287605Y-80605000D01*
X93061398Y-81378793D01*
X93299753Y-81313878D01*
X93480312Y-80803854D01*
X93451949Y-80263556D01*
X93324743Y-79956452D01*
X93418000Y-79731309D01*
X93418000Y-79663750D01*
X93259250Y-79505000D01*
X93102836Y-79505000D01*
X93240809Y-79412809D01*
X93381157Y-79202765D01*
X93386042Y-79178208D01*
X93418000Y-79146250D01*
X93418000Y-79078691D01*
X93409783Y-79058853D01*
X93430440Y-78955000D01*
X93430440Y-78865000D01*
X94645199Y-78865000D01*
X94684669Y-78904470D01*
X94727071Y-78967929D01*
X94978463Y-79135904D01*
X95029234Y-79146003D01*
X95067191Y-79202809D01*
X95277235Y-79343157D01*
X95500989Y-79387664D01*
X95500989Y-79515980D01*
X95635722Y-79841255D01*
X95884677Y-80090210D01*
X96209952Y-80224943D01*
X96562026Y-80224943D01*
X96741529Y-80150591D01*
X96785733Y-80257310D01*
X97034688Y-80506265D01*
X97359963Y-80640998D01*
X97712037Y-80640998D01*
X98037312Y-80506265D01*
X98286267Y-80257310D01*
X98421000Y-79932035D01*
X98421000Y-79579961D01*
X98343326Y-79392440D01*
X98785000Y-79392440D01*
X99032765Y-79343157D01*
X99242809Y-79202809D01*
X99383157Y-78992765D01*
X99432440Y-78745000D01*
X99432440Y-78095000D01*
X99405064Y-77957369D01*
X99420000Y-77921310D01*
X99420000Y-77871191D01*
X105570000Y-77871191D01*
X105570000Y-78149250D01*
X105728750Y-78308000D01*
X106553000Y-78308000D01*
X106553000Y-77521250D01*
X106807000Y-77521250D01*
X106807000Y-78308000D01*
X107631250Y-78308000D01*
X107790000Y-78149250D01*
X107790000Y-77871191D01*
X107693327Y-77637802D01*
X107514699Y-77459173D01*
X107281310Y-77362500D01*
X106965750Y-77362500D01*
X106807000Y-77521250D01*
X106553000Y-77521250D01*
X106394250Y-77362500D01*
X106078690Y-77362500D01*
X105845301Y-77459173D01*
X105666673Y-77637802D01*
X105570000Y-77871191D01*
X99420000Y-77871191D01*
X99420000Y-77755750D01*
X99261250Y-77597000D01*
X99182659Y-77597000D01*
X99032765Y-77496843D01*
X98897815Y-77470000D01*
X99032765Y-77443157D01*
X99182659Y-77343000D01*
X99261250Y-77343000D01*
X99420000Y-77184250D01*
X99420000Y-77018690D01*
X99405064Y-76982631D01*
X99432440Y-76845000D01*
X99432440Y-76195000D01*
X99383157Y-75947235D01*
X99242809Y-75737191D01*
X99032765Y-75596843D01*
X98785000Y-75547560D01*
X97725000Y-75547560D01*
X97477235Y-75596843D01*
X97267191Y-75737191D01*
X97195957Y-75843799D01*
X97136537Y-75804096D01*
X97079999Y-75792850D01*
X97042809Y-75737191D01*
X96832765Y-75596843D01*
X96585000Y-75547560D01*
X95525000Y-75547560D01*
X95277235Y-75596843D01*
X95067191Y-75737191D01*
X95051950Y-75760000D01*
X94788844Y-75760000D01*
X94713996Y-75745112D01*
X94639148Y-75760000D01*
X94639144Y-75760000D01*
X94465601Y-75794520D01*
X94417458Y-75804096D01*
X94270829Y-75902071D01*
X94166067Y-75972071D01*
X94123667Y-76035527D01*
X93960387Y-76198808D01*
X93846312Y-76084733D01*
X93521037Y-75950000D01*
X93428573Y-75950000D01*
X93480312Y-75803854D01*
X93451949Y-75263556D01*
X93299753Y-74896122D01*
X93061398Y-74831207D01*
X92287605Y-75605000D01*
X92301748Y-75619143D01*
X92122143Y-75798748D01*
X92108000Y-75784605D01*
X92093858Y-75798748D01*
X91914253Y-75619143D01*
X91928395Y-75605000D01*
X91154602Y-74831207D01*
X90993000Y-74875219D01*
X90993000Y-74651602D01*
X91334207Y-74651602D01*
X92108000Y-75425395D01*
X92881793Y-74651602D01*
X92816878Y-74413247D01*
X92306854Y-74232688D01*
X91766556Y-74261051D01*
X91399122Y-74413247D01*
X91334207Y-74651602D01*
X90993000Y-74651602D01*
X90993000Y-74478691D01*
X90928375Y-74322672D01*
X90951462Y-74287391D01*
X90947592Y-74249719D01*
X90721080Y-73821526D01*
X90347947Y-73512610D01*
X89885000Y-73370000D01*
X89535000Y-73370000D01*
X89281000Y-73370000D01*
X88931000Y-73370000D01*
X88468053Y-73512610D01*
X88340000Y-73618625D01*
X88340000Y-54661325D01*
X88860497Y-55917916D01*
X91402084Y-58459503D01*
X94722827Y-59835000D01*
X98317173Y-59835000D01*
X101637916Y-58459503D01*
X104179503Y-55917916D01*
X105555000Y-52597173D01*
X105555000Y-49002827D01*
X104179503Y-45682084D01*
X101637916Y-43140497D01*
X100381325Y-42620000D01*
X110946675Y-42620000D01*
X109690084Y-43140497D01*
G36*
X146462912Y-43012577D02*
X146072578Y-43273389D01*
X145072814Y-44309209D01*
X151384000Y-50620395D01*
X157695186Y-44309209D01*
X156695422Y-43273389D01*
X155225129Y-42620000D01*
X157172052Y-42620000D01*
X157740253Y-42706851D01*
X158251198Y-42908022D01*
X158704868Y-43217385D01*
X159078729Y-43619576D01*
X159354194Y-44094598D01*
X159521467Y-44631340D01*
X159564000Y-44998941D01*
X159564000Y-46899485D01*
X159171423Y-45878912D01*
X158910611Y-45488578D01*
X157874791Y-44488814D01*
X151563605Y-50800000D01*
X157874791Y-57111186D01*
X158910611Y-56111422D01*
X159564000Y-54641128D01*
X159564001Y-81988046D01*
X159477149Y-82556253D01*
X159275980Y-83067194D01*
X158966614Y-83520868D01*
X158564424Y-83894729D01*
X158532235Y-83913396D01*
X158606157Y-83802765D01*
X158655440Y-83555000D01*
X158655440Y-82815000D01*
X158606157Y-82567235D01*
X158589031Y-82541604D01*
X158643000Y-82411310D01*
X158643000Y-82200750D01*
X158484250Y-82042000D01*
X156935000Y-82042000D01*
X156935000Y-82062000D01*
X156681000Y-82062000D01*
X156681000Y-82042000D01*
X155131750Y-82042000D01*
X154973000Y-82200750D01*
X154973000Y-82411310D01*
X155026969Y-82541604D01*
X155009843Y-82567235D01*
X154960560Y-82815000D01*
X154960560Y-83120001D01*
X154755440Y-83120001D01*
X154755440Y-82815000D01*
X154706157Y-82567235D01*
X154694641Y-82550000D01*
X154706157Y-82532765D01*
X154755440Y-82285000D01*
X154755440Y-81545000D01*
X154706157Y-81297235D01*
X154694641Y-81280000D01*
X154706157Y-81262765D01*
X154755440Y-81015000D01*
X154755440Y-80930750D01*
X154973000Y-80930750D01*
X154973000Y-81141310D01*
X155030447Y-81280000D01*
X154973000Y-81418690D01*
X154973000Y-81629250D01*
X155131750Y-81788000D01*
X156681000Y-81788000D01*
X156681000Y-80772000D01*
X156935000Y-80772000D01*
X156935000Y-81788000D01*
X158484250Y-81788000D01*
X158643000Y-81629250D01*
X158643000Y-81418690D01*
X158585553Y-81280000D01*
X158643000Y-81141310D01*
X158643000Y-80930750D01*
X158484250Y-80772000D01*
X156935000Y-80772000D01*
X156681000Y-80772000D01*
X155131750Y-80772000D01*
X154973000Y-80930750D01*
X154755440Y-80930750D01*
X154755440Y-80275000D01*
X154706157Y-80027235D01*
X154694641Y-80010000D01*
X154706157Y-79992765D01*
X154755440Y-79745000D01*
X154755440Y-79005000D01*
X154960560Y-79005000D01*
X154960560Y-79745000D01*
X155009843Y-79992765D01*
X155026969Y-80018396D01*
X154973000Y-80148690D01*
X154973000Y-80359250D01*
X155131750Y-80518000D01*
X156681000Y-80518000D01*
X156681000Y-80498000D01*
X156935000Y-80498000D01*
X156935000Y-80518000D01*
X158484250Y-80518000D01*
X158643000Y-80359250D01*
X158643000Y-80148690D01*
X158589031Y-80018396D01*
X158606157Y-79992765D01*
X158655440Y-79745000D01*
X158655440Y-79005000D01*
X158606157Y-78757235D01*
X158589031Y-78731604D01*
X158643000Y-78601310D01*
X158643000Y-78390750D01*
X158484250Y-78232000D01*
X156935000Y-78232000D01*
X156935000Y-78252000D01*
X156681000Y-78252000D01*
X156681000Y-78232000D01*
X155131750Y-78232000D01*
X154973000Y-78390750D01*
X154973000Y-78601310D01*
X155026969Y-78731604D01*
X155009843Y-78757235D01*
X154960560Y-79005000D01*
X154755440Y-79005000D01*
X154706157Y-78757235D01*
X154694641Y-78740000D01*
X154706157Y-78722765D01*
X154755440Y-78475000D01*
X154755440Y-77735000D01*
X154730316Y-77608690D01*
X154973000Y-77608690D01*
X154973000Y-77819250D01*
X155131750Y-77978000D01*
X156681000Y-77978000D01*
X156681000Y-77258750D01*
X156935000Y-77258750D01*
X156935000Y-77978000D01*
X158484250Y-77978000D01*
X158643000Y-77819250D01*
X158643000Y-77608690D01*
X158546327Y-77375301D01*
X158367698Y-77196673D01*
X158134309Y-77100000D01*
X157093750Y-77100000D01*
X156935000Y-77258750D01*
X156681000Y-77258750D01*
X156522250Y-77100000D01*
X155481691Y-77100000D01*
X155248302Y-77196673D01*
X155069673Y-77375301D01*
X154973000Y-77608690D01*
X154730316Y-77608690D01*
X154706157Y-77487235D01*
X154565809Y-77277191D01*
X154355765Y-77136843D01*
X154108000Y-77087560D01*
X151708000Y-77087560D01*
X151460235Y-77136843D01*
X151250191Y-77277191D01*
X151120023Y-77472000D01*
X145602803Y-77472000D01*
X143338331Y-75207530D01*
X143295929Y-75144071D01*
X143044537Y-74976096D01*
X142822852Y-74932000D01*
X142822847Y-74932000D01*
X142748000Y-74917112D01*
X142673153Y-74932000D01*
X141538802Y-74932000D01*
X141435000Y-74828199D01*
X141435000Y-73478896D01*
X141555963Y-73529000D01*
X141908037Y-73529000D01*
X142209814Y-73404000D01*
X142226153Y-73404000D01*
X142301000Y-73418888D01*
X142375847Y-73404000D01*
X142375852Y-73404000D01*
X142597537Y-73359904D01*
X142848929Y-73191929D01*
X142891331Y-73128470D01*
X143109470Y-72910331D01*
X143172929Y-72867929D01*
X143340904Y-72616537D01*
X143380062Y-72419675D01*
X143448157Y-72317765D01*
X143497440Y-72070000D01*
X143497440Y-70620000D01*
X143448157Y-70372235D01*
X143398442Y-70297832D01*
X143507986Y-70033370D01*
X143507986Y-69681296D01*
X143373253Y-69356021D01*
X143124298Y-69107066D01*
X142799023Y-68972333D01*
X142446949Y-68972333D01*
X142121674Y-69107066D01*
X142117660Y-69111081D01*
X142106312Y-69099733D01*
X141781037Y-68965000D01*
X141712500Y-68965000D01*
X141712500Y-68865750D01*
X141553750Y-68707000D01*
X140767000Y-68707000D01*
X140767000Y-68727000D01*
X140513000Y-68727000D01*
X140513000Y-68707000D01*
X140493000Y-68707000D01*
X140493000Y-68453000D01*
X140513000Y-68453000D01*
X140513000Y-67628750D01*
X140767000Y-67628750D01*
X140767000Y-68453000D01*
X141553750Y-68453000D01*
X141712500Y-68294250D01*
X141712500Y-67978690D01*
X141615827Y-67745301D01*
X141437198Y-67566673D01*
X141203809Y-67470000D01*
X140925750Y-67470000D01*
X140767000Y-67628750D01*
X140513000Y-67628750D01*
X140354250Y-67470000D01*
X140076191Y-67470000D01*
X139842802Y-67566673D01*
X139777531Y-67631943D01*
X139615227Y-67523495D01*
X139283750Y-67457560D01*
X139017361Y-67457560D01*
X138855321Y-67295520D01*
X138812919Y-67232061D01*
X138561527Y-67064086D01*
X138339842Y-67019990D01*
X138339837Y-67019990D01*
X138264990Y-67005102D01*
X138190143Y-67019990D01*
X133787500Y-67019990D01*
X133787500Y-66960750D01*
X133628750Y-66802000D01*
X132842000Y-66802000D01*
X132842000Y-66822000D01*
X132712490Y-66822000D01*
X132712490Y-65723750D01*
X132842000Y-65723750D01*
X132842000Y-66548000D01*
X133628750Y-66548000D01*
X133787500Y-66389250D01*
X133787500Y-66073690D01*
X133690827Y-65840301D01*
X133512198Y-65661673D01*
X133278809Y-65565000D01*
X133000750Y-65565000D01*
X132842000Y-65723750D01*
X132712490Y-65723750D01*
X132712490Y-64386375D01*
X132728483Y-64362440D01*
X132930000Y-64362440D01*
X133177765Y-64313157D01*
X133387809Y-64172809D01*
X133528157Y-63962765D01*
X133548739Y-63859292D01*
X133853076Y-64136645D01*
X134263110Y-64306476D01*
X134493000Y-64185155D01*
X134493000Y-62992000D01*
X134473000Y-62992000D01*
X134473000Y-62738000D01*
X134493000Y-62738000D01*
X134493000Y-61544845D01*
X134747000Y-61544845D01*
X134747000Y-62738000D01*
X134767000Y-62738000D01*
X134767000Y-62992000D01*
X134747000Y-62992000D01*
X134747000Y-64185155D01*
X134976890Y-64306476D01*
X135260981Y-64188809D01*
X135393733Y-64509302D01*
X135642688Y-64758257D01*
X135967963Y-64892990D01*
X135976382Y-64892990D01*
X136097462Y-64973893D01*
X136319147Y-65017989D01*
X136319152Y-65017989D01*
X136393999Y-65032877D01*
X136468846Y-65017989D01*
X138232164Y-65017989D01*
X138307011Y-65032877D01*
X138381858Y-65017989D01*
X138381863Y-65017989D01*
X138603548Y-64973893D01*
X138854940Y-64805918D01*
X138897342Y-64742459D01*
X139333592Y-64306209D01*
X139553744Y-64350000D01*
X139846256Y-64350000D01*
X140279418Y-64263839D01*
X140770625Y-63935625D01*
X141098839Y-63444418D01*
X141214092Y-62865000D01*
X141098839Y-62285582D01*
X140770625Y-61794375D01*
X140279418Y-61466161D01*
X139846256Y-61380000D01*
X139553744Y-61380000D01*
X139120582Y-61466161D01*
X138629375Y-61794375D01*
X138430000Y-62092761D01*
X138230625Y-61794375D01*
X137739418Y-61466161D01*
X137306256Y-61380000D01*
X137013744Y-61380000D01*
X136580582Y-61466161D01*
X136089375Y-61794375D01*
X135876157Y-62113478D01*
X135815183Y-61983642D01*
X135386924Y-61593355D01*
X134976890Y-61423524D01*
X134747000Y-61544845D01*
X134493000Y-61544845D01*
X134263110Y-61423524D01*
X133853076Y-61593355D01*
X133548739Y-61870708D01*
X133528157Y-61767235D01*
X133387809Y-61557191D01*
X133177765Y-61416843D01*
X132930000Y-61367560D01*
X131230000Y-61367560D01*
X130982235Y-61416843D01*
X130772191Y-61557191D01*
X130631843Y-61767235D01*
X130582560Y-62015000D01*
X130582560Y-63715000D01*
X130631843Y-63962765D01*
X130772191Y-64172809D01*
X130982235Y-64313157D01*
X131192490Y-64354979D01*
X131192490Y-65552560D01*
X130921250Y-65552560D01*
X130589773Y-65618495D01*
X130308761Y-65806261D01*
X130126530Y-66078990D01*
X130054571Y-66127071D01*
X130012170Y-66190528D01*
X129962698Y-66240000D01*
X128807440Y-66240000D01*
X128807440Y-66125000D01*
X128791463Y-66044678D01*
X128949249Y-65939249D01*
X129421126Y-65233036D01*
X129545000Y-64610279D01*
X129545000Y-59108541D01*
X131298827Y-59835000D01*
X134893173Y-59835000D01*
X138213916Y-58459503D01*
X139382628Y-57290791D01*
X145072814Y-57290791D01*
X146072578Y-58326611D01*
X149357195Y-59786274D01*
X152950374Y-59877859D01*
X156305088Y-58587423D01*
X156695422Y-58326611D01*
X157695186Y-57290791D01*
X151384000Y-50979605D01*
X145072814Y-57290791D01*
X139382628Y-57290791D01*
X140755503Y-55917916D01*
X142131000Y-52597173D01*
X142131000Y-52366374D01*
X142306141Y-52366374D01*
X143596577Y-55721088D01*
X143857389Y-56111422D01*
X144893209Y-57111186D01*
X151204395Y-50800000D01*
X144893209Y-44488814D01*
X143857389Y-45488578D01*
X142397726Y-48773195D01*
X142306141Y-52366374D01*
X142131000Y-52366374D01*
X142131000Y-49002827D01*
X140755503Y-45682084D01*
X138213916Y-43140497D01*
X136957325Y-42620000D01*
X147483485Y-42620000D01*
X146462912Y-43012577D01*
X146462912Y-43012577D01*
G37*
X146462912Y-43012577D02*
X146072578Y-43273389D01*
X145072814Y-44309209D01*
X151384000Y-50620395D01*
X157695186Y-44309209D01*
X156695422Y-43273389D01*
X155225129Y-42620000D01*
X157172052Y-42620000D01*
X157740253Y-42706851D01*
X158251198Y-42908022D01*
X158704868Y-43217385D01*
X159078729Y-43619576D01*
X159354194Y-44094598D01*
X159521467Y-44631340D01*
X159564000Y-44998941D01*
X159564000Y-46899485D01*
X159171423Y-45878912D01*
X158910611Y-45488578D01*
X157874791Y-44488814D01*
X151563605Y-50800000D01*
X157874791Y-57111186D01*
X158910611Y-56111422D01*
X159564000Y-54641128D01*
X159564001Y-81988046D01*
X159477149Y-82556253D01*
X159275980Y-83067194D01*
X158966614Y-83520868D01*
X158564424Y-83894729D01*
X158532235Y-83913396D01*
X158606157Y-83802765D01*
X158655440Y-83555000D01*
X158655440Y-82815000D01*
X158606157Y-82567235D01*
X158589031Y-82541604D01*
X158643000Y-82411310D01*
X158643000Y-82200750D01*
X158484250Y-82042000D01*
X156935000Y-82042000D01*
X156935000Y-82062000D01*
X156681000Y-82062000D01*
X156681000Y-82042000D01*
X155131750Y-82042000D01*
X154973000Y-82200750D01*
X154973000Y-82411310D01*
X155026969Y-82541604D01*
X155009843Y-82567235D01*
X154960560Y-82815000D01*
X154960560Y-83120001D01*
X154755440Y-83120001D01*
X154755440Y-82815000D01*
X154706157Y-82567235D01*
X154694641Y-82550000D01*
X154706157Y-82532765D01*
X154755440Y-82285000D01*
X154755440Y-81545000D01*
X154706157Y-81297235D01*
X154694641Y-81280000D01*
X154706157Y-81262765D01*
X154755440Y-81015000D01*
X154755440Y-80930750D01*
X154973000Y-80930750D01*
X154973000Y-81141310D01*
X155030447Y-81280000D01*
X154973000Y-81418690D01*
X154973000Y-81629250D01*
X155131750Y-81788000D01*
X156681000Y-81788000D01*
X156681000Y-80772000D01*
X156935000Y-80772000D01*
X156935000Y-81788000D01*
X158484250Y-81788000D01*
X158643000Y-81629250D01*
X158643000Y-81418690D01*
X158585553Y-81280000D01*
X158643000Y-81141310D01*
X158643000Y-80930750D01*
X158484250Y-80772000D01*
X156935000Y-80772000D01*
X156681000Y-80772000D01*
X155131750Y-80772000D01*
X154973000Y-80930750D01*
X154755440Y-80930750D01*
X154755440Y-80275000D01*
X154706157Y-80027235D01*
X154694641Y-80010000D01*
X154706157Y-79992765D01*
X154755440Y-79745000D01*
X154755440Y-79005000D01*
X154960560Y-79005000D01*
X154960560Y-79745000D01*
X155009843Y-79992765D01*
X155026969Y-80018396D01*
X154973000Y-80148690D01*
X154973000Y-80359250D01*
X155131750Y-80518000D01*
X156681000Y-80518000D01*
X156681000Y-80498000D01*
X156935000Y-80498000D01*
X156935000Y-80518000D01*
X158484250Y-80518000D01*
X158643000Y-80359250D01*
X158643000Y-80148690D01*
X158589031Y-80018396D01*
X158606157Y-79992765D01*
X158655440Y-79745000D01*
X158655440Y-79005000D01*
X158606157Y-78757235D01*
X158589031Y-78731604D01*
X158643000Y-78601310D01*
X158643000Y-78390750D01*
X158484250Y-78232000D01*
X156935000Y-78232000D01*
X156935000Y-78252000D01*
X156681000Y-78252000D01*
X156681000Y-78232000D01*
X155131750Y-78232000D01*
X154973000Y-78390750D01*
X154973000Y-78601310D01*
X155026969Y-78731604D01*
X155009843Y-78757235D01*
X154960560Y-79005000D01*
X154755440Y-79005000D01*
X154706157Y-78757235D01*
X154694641Y-78740000D01*
X154706157Y-78722765D01*
X154755440Y-78475000D01*
X154755440Y-77735000D01*
X154730316Y-77608690D01*
X154973000Y-77608690D01*
X154973000Y-77819250D01*
X155131750Y-77978000D01*
X156681000Y-77978000D01*
X156681000Y-77258750D01*
X156935000Y-77258750D01*
X156935000Y-77978000D01*
X158484250Y-77978000D01*
X158643000Y-77819250D01*
X158643000Y-77608690D01*
X158546327Y-77375301D01*
X158367698Y-77196673D01*
X158134309Y-77100000D01*
X157093750Y-77100000D01*
X156935000Y-77258750D01*
X156681000Y-77258750D01*
X156522250Y-77100000D01*
X155481691Y-77100000D01*
X155248302Y-77196673D01*
X155069673Y-77375301D01*
X154973000Y-77608690D01*
X154730316Y-77608690D01*
X154706157Y-77487235D01*
X154565809Y-77277191D01*
X154355765Y-77136843D01*
X154108000Y-77087560D01*
X151708000Y-77087560D01*
X151460235Y-77136843D01*
X151250191Y-77277191D01*
X151120023Y-77472000D01*
X145602803Y-77472000D01*
X143338331Y-75207530D01*
X143295929Y-75144071D01*
X143044537Y-74976096D01*
X142822852Y-74932000D01*
X142822847Y-74932000D01*
X142748000Y-74917112D01*
X142673153Y-74932000D01*
X141538802Y-74932000D01*
X141435000Y-74828199D01*
X141435000Y-73478896D01*
X141555963Y-73529000D01*
X141908037Y-73529000D01*
X142209814Y-73404000D01*
X142226153Y-73404000D01*
X142301000Y-73418888D01*
X142375847Y-73404000D01*
X142375852Y-73404000D01*
X142597537Y-73359904D01*
X142848929Y-73191929D01*
X142891331Y-73128470D01*
X143109470Y-72910331D01*
X143172929Y-72867929D01*
X143340904Y-72616537D01*
X143380062Y-72419675D01*
X143448157Y-72317765D01*
X143497440Y-72070000D01*
X143497440Y-70620000D01*
X143448157Y-70372235D01*
X143398442Y-70297832D01*
X143507986Y-70033370D01*
X143507986Y-69681296D01*
X143373253Y-69356021D01*
X143124298Y-69107066D01*
X142799023Y-68972333D01*
X142446949Y-68972333D01*
X142121674Y-69107066D01*
X142117660Y-69111081D01*
X142106312Y-69099733D01*
X141781037Y-68965000D01*
X141712500Y-68965000D01*
X141712500Y-68865750D01*
X141553750Y-68707000D01*
X140767000Y-68707000D01*
X140767000Y-68727000D01*
X140513000Y-68727000D01*
X140513000Y-68707000D01*
X140493000Y-68707000D01*
X140493000Y-68453000D01*
X140513000Y-68453000D01*
X140513000Y-67628750D01*
X140767000Y-67628750D01*
X140767000Y-68453000D01*
X141553750Y-68453000D01*
X141712500Y-68294250D01*
X141712500Y-67978690D01*
X141615827Y-67745301D01*
X141437198Y-67566673D01*
X141203809Y-67470000D01*
X140925750Y-67470000D01*
X140767000Y-67628750D01*
X140513000Y-67628750D01*
X140354250Y-67470000D01*
X140076191Y-67470000D01*
X139842802Y-67566673D01*
X139777531Y-67631943D01*
X139615227Y-67523495D01*
X139283750Y-67457560D01*
X139017361Y-67457560D01*
X138855321Y-67295520D01*
X138812919Y-67232061D01*
X138561527Y-67064086D01*
X138339842Y-67019990D01*
X138339837Y-67019990D01*
X138264990Y-67005102D01*
X138190143Y-67019990D01*
X133787500Y-67019990D01*
X133787500Y-66960750D01*
X133628750Y-66802000D01*
X132842000Y-66802000D01*
X132842000Y-66822000D01*
X132712490Y-66822000D01*
X132712490Y-65723750D01*
X132842000Y-65723750D01*
X132842000Y-66548000D01*
X133628750Y-66548000D01*
X133787500Y-66389250D01*
X133787500Y-66073690D01*
X133690827Y-65840301D01*
X133512198Y-65661673D01*
X133278809Y-65565000D01*
X133000750Y-65565000D01*
X132842000Y-65723750D01*
X132712490Y-65723750D01*
X132712490Y-64386375D01*
X132728483Y-64362440D01*
X132930000Y-64362440D01*
X133177765Y-64313157D01*
X133387809Y-64172809D01*
X133528157Y-63962765D01*
X133548739Y-63859292D01*
X133853076Y-64136645D01*
X134263110Y-64306476D01*
X134493000Y-64185155D01*
X134493000Y-62992000D01*
X134473000Y-62992000D01*
X134473000Y-62738000D01*
X134493000Y-62738000D01*
X134493000Y-61544845D01*
X134747000Y-61544845D01*
X134747000Y-62738000D01*
X134767000Y-62738000D01*
X134767000Y-62992000D01*
X134747000Y-62992000D01*
X134747000Y-64185155D01*
X134976890Y-64306476D01*
X135260981Y-64188809D01*
X135393733Y-64509302D01*
X135642688Y-64758257D01*
X135967963Y-64892990D01*
X135976382Y-64892990D01*
X136097462Y-64973893D01*
X136319147Y-65017989D01*
X136319152Y-65017989D01*
X136393999Y-65032877D01*
X136468846Y-65017989D01*
X138232164Y-65017989D01*
X138307011Y-65032877D01*
X138381858Y-65017989D01*
X138381863Y-65017989D01*
X138603548Y-64973893D01*
X138854940Y-64805918D01*
X138897342Y-64742459D01*
X139333592Y-64306209D01*
X139553744Y-64350000D01*
X139846256Y-64350000D01*
X140279418Y-64263839D01*
X140770625Y-63935625D01*
X141098839Y-63444418D01*
X141214092Y-62865000D01*
X141098839Y-62285582D01*
X140770625Y-61794375D01*
X140279418Y-61466161D01*
X139846256Y-61380000D01*
X139553744Y-61380000D01*
X139120582Y-61466161D01*
X138629375Y-61794375D01*
X138430000Y-62092761D01*
X138230625Y-61794375D01*
X137739418Y-61466161D01*
X137306256Y-61380000D01*
X137013744Y-61380000D01*
X136580582Y-61466161D01*
X136089375Y-61794375D01*
X135876157Y-62113478D01*
X135815183Y-61983642D01*
X135386924Y-61593355D01*
X134976890Y-61423524D01*
X134747000Y-61544845D01*
X134493000Y-61544845D01*
X134263110Y-61423524D01*
X133853076Y-61593355D01*
X133548739Y-61870708D01*
X133528157Y-61767235D01*
X133387809Y-61557191D01*
X133177765Y-61416843D01*
X132930000Y-61367560D01*
X131230000Y-61367560D01*
X130982235Y-61416843D01*
X130772191Y-61557191D01*
X130631843Y-61767235D01*
X130582560Y-62015000D01*
X130582560Y-63715000D01*
X130631843Y-63962765D01*
X130772191Y-64172809D01*
X130982235Y-64313157D01*
X131192490Y-64354979D01*
X131192490Y-65552560D01*
X130921250Y-65552560D01*
X130589773Y-65618495D01*
X130308761Y-65806261D01*
X130126530Y-66078990D01*
X130054571Y-66127071D01*
X130012170Y-66190528D01*
X129962698Y-66240000D01*
X128807440Y-66240000D01*
X128807440Y-66125000D01*
X128791463Y-66044678D01*
X128949249Y-65939249D01*
X129421126Y-65233036D01*
X129545000Y-64610279D01*
X129545000Y-59108541D01*
X131298827Y-59835000D01*
X134893173Y-59835000D01*
X138213916Y-58459503D01*
X139382628Y-57290791D01*
X145072814Y-57290791D01*
X146072578Y-58326611D01*
X149357195Y-59786274D01*
X152950374Y-59877859D01*
X156305088Y-58587423D01*
X156695422Y-58326611D01*
X157695186Y-57290791D01*
X151384000Y-50979605D01*
X145072814Y-57290791D01*
X139382628Y-57290791D01*
X140755503Y-55917916D01*
X142131000Y-52597173D01*
X142131000Y-52366374D01*
X142306141Y-52366374D01*
X143596577Y-55721088D01*
X143857389Y-56111422D01*
X144893209Y-57111186D01*
X151204395Y-50800000D01*
X144893209Y-44488814D01*
X143857389Y-45488578D01*
X142397726Y-48773195D01*
X142306141Y-52366374D01*
X142131000Y-52366374D01*
X142131000Y-49002827D01*
X140755503Y-45682084D01*
X138213916Y-43140497D01*
X136957325Y-42620000D01*
X147483485Y-42620000D01*
X146462912Y-43012577D01*
G36*
X113348750Y-78308000D02*
X114173000Y-78308000D01*
X114173000Y-78288000D01*
X114427000Y-78288000D01*
X114427000Y-78308000D01*
X114447000Y-78308000D01*
X114447000Y-78562000D01*
X114427000Y-78562000D01*
X114427000Y-78582000D01*
X114173000Y-78582000D01*
X114173000Y-78562000D01*
X113348750Y-78562000D01*
X113190000Y-78720750D01*
X113190000Y-78998809D01*
X113286673Y-79232198D01*
X113351943Y-79297469D01*
X113243495Y-79459773D01*
X113177560Y-79791250D01*
X113177560Y-79880000D01*
X112489250Y-79880000D01*
X112426250Y-79817000D01*
X112347659Y-79817000D01*
X112197765Y-79716843D01*
X112062815Y-79690000D01*
X112197765Y-79663157D01*
X112347659Y-79563000D01*
X112426250Y-79563000D01*
X112585000Y-79404250D01*
X112585000Y-79238690D01*
X112570064Y-79202631D01*
X112597440Y-79065000D01*
X112597440Y-78842362D01*
X113240276Y-78199526D01*
X113348750Y-78308000D01*
X113348750Y-78308000D01*
G37*
X113348750Y-78308000D02*
X114173000Y-78308000D01*
X114173000Y-78288000D01*
X114427000Y-78288000D01*
X114427000Y-78308000D01*
X114447000Y-78308000D01*
X114447000Y-78562000D01*
X114427000Y-78562000D01*
X114427000Y-78582000D01*
X114173000Y-78582000D01*
X114173000Y-78562000D01*
X113348750Y-78562000D01*
X113190000Y-78720750D01*
X113190000Y-78998809D01*
X113286673Y-79232198D01*
X113351943Y-79297469D01*
X113243495Y-79459773D01*
X113177560Y-79791250D01*
X113177560Y-79880000D01*
X112489250Y-79880000D01*
X112426250Y-79817000D01*
X112347659Y-79817000D01*
X112197765Y-79716843D01*
X112062815Y-79690000D01*
X112197765Y-79663157D01*
X112347659Y-79563000D01*
X112426250Y-79563000D01*
X112585000Y-79404250D01*
X112585000Y-79238690D01*
X112570064Y-79202631D01*
X112597440Y-79065000D01*
X112597440Y-78842362D01*
X113240276Y-78199526D01*
X113348750Y-78308000D01*
G04 #@! TD*
M02*
