G04 #@! TF.GenerationSoftware,KiCad,Pcbnew,(5.0.1-3-g963ef8bb5)*
G04 #@! TF.CreationDate,2018-11-12T01:28:12+01:00*
G04 #@! TF.ProjectId,MCUmeter,4D43556D657465722E6B696361645F70,rev?*
G04 #@! TF.SameCoordinates,Original*
G04 #@! TF.FileFunction,Legend,Bot*
G04 #@! TF.FilePolarity,Positive*
%FSLAX46Y46*%
G04 Gerber Fmt 4.6, Leading zero omitted, Abs format (unit mm)*
G04 Created by KiCad (PCBNEW (5.0.1-3-g963ef8bb5)) date 2018 November 12, Monday 01:28:12*
%MOMM*%
%LPD*%
G01*
G04 APERTURE LIST*
%ADD10C,0.300000*%
%ADD11C,0.120000*%
%ADD12C,0.150000*%
G04 APERTURE END LIST*
D10*
X157904142Y-62922571D02*
X157047000Y-62922571D01*
X157475571Y-64422571D02*
X157475571Y-62922571D01*
X156547000Y-64422571D02*
X156547000Y-62922571D01*
X155904142Y-64422571D02*
X155904142Y-63636857D01*
X155975571Y-63494000D01*
X156118428Y-63422571D01*
X156332714Y-63422571D01*
X156475571Y-63494000D01*
X156547000Y-63565428D01*
X154618428Y-64351142D02*
X154761285Y-64422571D01*
X155047000Y-64422571D01*
X155189857Y-64351142D01*
X155261285Y-64208285D01*
X155261285Y-63636857D01*
X155189857Y-63494000D01*
X155047000Y-63422571D01*
X154761285Y-63422571D01*
X154618428Y-63494000D01*
X154547000Y-63636857D01*
X154547000Y-63779714D01*
X155261285Y-63922571D01*
X152761285Y-64422571D02*
X152761285Y-62922571D01*
X152261285Y-63994000D01*
X151761285Y-62922571D01*
X151761285Y-64422571D01*
X150189857Y-64279714D02*
X150261285Y-64351142D01*
X150475571Y-64422571D01*
X150618428Y-64422571D01*
X150832714Y-64351142D01*
X150975571Y-64208285D01*
X151047000Y-64065428D01*
X151118428Y-63779714D01*
X151118428Y-63565428D01*
X151047000Y-63279714D01*
X150975571Y-63136857D01*
X150832714Y-62994000D01*
X150618428Y-62922571D01*
X150475571Y-62922571D01*
X150261285Y-62994000D01*
X150189857Y-63065428D01*
X149547000Y-62922571D02*
X149547000Y-64136857D01*
X149475571Y-64279714D01*
X149404142Y-64351142D01*
X149261285Y-64422571D01*
X148975571Y-64422571D01*
X148832714Y-64351142D01*
X148761285Y-64279714D01*
X148689857Y-64136857D01*
X148689857Y-62922571D01*
X147975571Y-64422571D02*
X147975571Y-63422571D01*
X147975571Y-63565428D02*
X147904142Y-63494000D01*
X147761285Y-63422571D01*
X147547000Y-63422571D01*
X147404142Y-63494000D01*
X147332714Y-63636857D01*
X147332714Y-64422571D01*
X147332714Y-63636857D02*
X147261285Y-63494000D01*
X147118428Y-63422571D01*
X146904142Y-63422571D01*
X146761285Y-63494000D01*
X146689857Y-63636857D01*
X146689857Y-64422571D01*
X145404142Y-64351142D02*
X145547000Y-64422571D01*
X145832714Y-64422571D01*
X145975571Y-64351142D01*
X146047000Y-64208285D01*
X146047000Y-63636857D01*
X145975571Y-63494000D01*
X145832714Y-63422571D01*
X145547000Y-63422571D01*
X145404142Y-63494000D01*
X145332714Y-63636857D01*
X145332714Y-63779714D01*
X146047000Y-63922571D01*
X144904142Y-63422571D02*
X144332714Y-63422571D01*
X144689857Y-62922571D02*
X144689857Y-64208285D01*
X144618428Y-64351142D01*
X144475571Y-64422571D01*
X144332714Y-64422571D01*
X143261285Y-64351142D02*
X143404142Y-64422571D01*
X143689857Y-64422571D01*
X143832714Y-64351142D01*
X143904142Y-64208285D01*
X143904142Y-63636857D01*
X143832714Y-63494000D01*
X143689857Y-63422571D01*
X143404142Y-63422571D01*
X143261285Y-63494000D01*
X143189857Y-63636857D01*
X143189857Y-63779714D01*
X143904142Y-63922571D01*
X142547000Y-64422571D02*
X142547000Y-63422571D01*
X142547000Y-63708285D02*
X142475571Y-63565428D01*
X142404142Y-63494000D01*
X142261285Y-63422571D01*
X142118428Y-63422571D01*
X157689857Y-66972571D02*
X157689857Y-65472571D01*
X157689857Y-66044000D02*
X157547000Y-65972571D01*
X157261285Y-65972571D01*
X157118428Y-66044000D01*
X157047000Y-66115428D01*
X156975571Y-66258285D01*
X156975571Y-66686857D01*
X157047000Y-66829714D01*
X157118428Y-66901142D01*
X157261285Y-66972571D01*
X157547000Y-66972571D01*
X157689857Y-66901142D01*
X156475571Y-65972571D02*
X156118428Y-66972571D01*
X155761285Y-65972571D02*
X156118428Y-66972571D01*
X156261285Y-67329714D01*
X156332714Y-67401142D01*
X156475571Y-67472571D01*
X154047000Y-66972571D02*
X154047000Y-65472571D01*
X153689857Y-65472571D01*
X153475571Y-65544000D01*
X153332714Y-65686857D01*
X153261285Y-65829714D01*
X153189857Y-66115428D01*
X153189857Y-66329714D01*
X153261285Y-66615428D01*
X153332714Y-66758285D01*
X153475571Y-66901142D01*
X153689857Y-66972571D01*
X154047000Y-66972571D01*
X151904142Y-66972571D02*
X151904142Y-66186857D01*
X151975571Y-66044000D01*
X152118428Y-65972571D01*
X152404142Y-65972571D01*
X152547000Y-66044000D01*
X151904142Y-66901142D02*
X152047000Y-66972571D01*
X152404142Y-66972571D01*
X152547000Y-66901142D01*
X152618428Y-66758285D01*
X152618428Y-66615428D01*
X152547000Y-66472571D01*
X152404142Y-66401142D01*
X152047000Y-66401142D01*
X151904142Y-66329714D01*
X151189857Y-65972571D02*
X151189857Y-66972571D01*
X151189857Y-66115428D02*
X151118428Y-66044000D01*
X150975571Y-65972571D01*
X150761285Y-65972571D01*
X150618428Y-66044000D01*
X150547000Y-66186857D01*
X150547000Y-66972571D01*
X149832714Y-66972571D02*
X149832714Y-65972571D01*
X149832714Y-65472571D02*
X149904142Y-65544000D01*
X149832714Y-65615428D01*
X149761285Y-65544000D01*
X149832714Y-65472571D01*
X149832714Y-65615428D01*
X148547000Y-66901142D02*
X148689857Y-66972571D01*
X148975571Y-66972571D01*
X149118428Y-66901142D01*
X149189857Y-66758285D01*
X149189857Y-66186857D01*
X149118428Y-66044000D01*
X148975571Y-65972571D01*
X148689857Y-65972571D01*
X148547000Y-66044000D01*
X148475571Y-66186857D01*
X148475571Y-66329714D01*
X149189857Y-66472571D01*
X147618428Y-66972571D02*
X147761285Y-66901142D01*
X147832714Y-66758285D01*
X147832714Y-65472571D01*
X145904142Y-66186857D02*
X145404142Y-66186857D01*
X145189857Y-66972571D02*
X145904142Y-66972571D01*
X145904142Y-65472571D01*
X145189857Y-65472571D01*
X143904142Y-65972571D02*
X143904142Y-67186857D01*
X143975571Y-67329714D01*
X144047000Y-67401142D01*
X144189857Y-67472571D01*
X144404142Y-67472571D01*
X144547000Y-67401142D01*
X143904142Y-66901142D02*
X144047000Y-66972571D01*
X144332714Y-66972571D01*
X144475571Y-66901142D01*
X144547000Y-66829714D01*
X144618428Y-66686857D01*
X144618428Y-66258285D01*
X144547000Y-66115428D01*
X144475571Y-66044000D01*
X144332714Y-65972571D01*
X144047000Y-65972571D01*
X143904142Y-66044000D01*
X142547000Y-65972571D02*
X142547000Y-67186857D01*
X142618428Y-67329714D01*
X142689857Y-67401142D01*
X142832714Y-67472571D01*
X143047000Y-67472571D01*
X143189857Y-67401142D01*
X142547000Y-66901142D02*
X142689857Y-66972571D01*
X142975571Y-66972571D01*
X143118428Y-66901142D01*
X143189857Y-66829714D01*
X143261285Y-66686857D01*
X143261285Y-66258285D01*
X143189857Y-66115428D01*
X143118428Y-66044000D01*
X142975571Y-65972571D01*
X142689857Y-65972571D01*
X142547000Y-66044000D01*
X141261285Y-66901142D02*
X141404142Y-66972571D01*
X141689857Y-66972571D01*
X141832714Y-66901142D01*
X141904142Y-66758285D01*
X141904142Y-66186857D01*
X141832714Y-66044000D01*
X141689857Y-65972571D01*
X141404142Y-65972571D01*
X141261285Y-66044000D01*
X141189857Y-66186857D01*
X141189857Y-66329714D01*
X141904142Y-66472571D01*
X140547000Y-66972571D02*
X140547000Y-65972571D01*
X140547000Y-66258285D02*
X140475571Y-66115428D01*
X140404142Y-66044000D01*
X140261285Y-65972571D01*
X140118428Y-65972571D01*
X157832714Y-68522571D02*
X157475571Y-69522571D01*
X157118428Y-68522571D01*
X155761285Y-69522571D02*
X156618428Y-69522571D01*
X156189857Y-69522571D02*
X156189857Y-68022571D01*
X156332714Y-68236857D01*
X156475571Y-68379714D01*
X156618428Y-68451142D01*
D11*
G04 #@! TO.C,PA2*
X139630000Y-68580000D02*
G75*
G03X139630000Y-68580000I-1200000J0D01*
G01*
G04 #@! TO.C,PA3*
X137090000Y-66675000D02*
G75*
G03X137090000Y-66675000I-1200000J0D01*
G01*
G04 #@! TO.C,PA4*
X134550000Y-68580000D02*
G75*
G03X134550000Y-68580000I-1200000J0D01*
G01*
G04 #@! TO.C,PA5*
X132645000Y-74930000D02*
G75*
G03X132645000Y-74930000I-1200000J0D01*
G01*
G04 #@! TO.C,PA6*
X135185000Y-77470000D02*
G75*
G03X135185000Y-77470000I-1200000J0D01*
G01*
G04 #@! TO.C,PA7*
X132645000Y-80010000D02*
G75*
G03X132645000Y-80010000I-1200000J0D01*
G01*
G04 #@! TO.C,PA2*
D12*
X139596666Y-71030380D02*
X139596666Y-70030380D01*
X139215714Y-70030380D01*
X139120476Y-70078000D01*
X139072857Y-70125619D01*
X139025238Y-70220857D01*
X139025238Y-70363714D01*
X139072857Y-70458952D01*
X139120476Y-70506571D01*
X139215714Y-70554190D01*
X139596666Y-70554190D01*
X138644285Y-70744666D02*
X138168095Y-70744666D01*
X138739523Y-71030380D02*
X138406190Y-70030380D01*
X138072857Y-71030380D01*
X137787142Y-70125619D02*
X137739523Y-70078000D01*
X137644285Y-70030380D01*
X137406190Y-70030380D01*
X137310952Y-70078000D01*
X137263333Y-70125619D01*
X137215714Y-70220857D01*
X137215714Y-70316095D01*
X137263333Y-70458952D01*
X137834761Y-71030380D01*
X137215714Y-71030380D01*
G04 #@! TO.C,PA3*
X137056666Y-69125380D02*
X137056666Y-68125380D01*
X136675714Y-68125380D01*
X136580476Y-68173000D01*
X136532857Y-68220619D01*
X136485238Y-68315857D01*
X136485238Y-68458714D01*
X136532857Y-68553952D01*
X136580476Y-68601571D01*
X136675714Y-68649190D01*
X137056666Y-68649190D01*
X136104285Y-68839666D02*
X135628095Y-68839666D01*
X136199523Y-69125380D02*
X135866190Y-68125380D01*
X135532857Y-69125380D01*
X135294761Y-68125380D02*
X134675714Y-68125380D01*
X135009047Y-68506333D01*
X134866190Y-68506333D01*
X134770952Y-68553952D01*
X134723333Y-68601571D01*
X134675714Y-68696809D01*
X134675714Y-68934904D01*
X134723333Y-69030142D01*
X134770952Y-69077761D01*
X134866190Y-69125380D01*
X135151904Y-69125380D01*
X135247142Y-69077761D01*
X135294761Y-69030142D01*
G04 #@! TO.C,PA4*
X134516666Y-71030380D02*
X134516666Y-70030380D01*
X134135714Y-70030380D01*
X134040476Y-70078000D01*
X133992857Y-70125619D01*
X133945238Y-70220857D01*
X133945238Y-70363714D01*
X133992857Y-70458952D01*
X134040476Y-70506571D01*
X134135714Y-70554190D01*
X134516666Y-70554190D01*
X133564285Y-70744666D02*
X133088095Y-70744666D01*
X133659523Y-71030380D02*
X133326190Y-70030380D01*
X132992857Y-71030380D01*
X132230952Y-70363714D02*
X132230952Y-71030380D01*
X132469047Y-69982761D02*
X132707142Y-70697047D01*
X132088095Y-70697047D01*
G04 #@! TO.C,PA5*
X132611666Y-77380380D02*
X132611666Y-76380380D01*
X132230714Y-76380380D01*
X132135476Y-76428000D01*
X132087857Y-76475619D01*
X132040238Y-76570857D01*
X132040238Y-76713714D01*
X132087857Y-76808952D01*
X132135476Y-76856571D01*
X132230714Y-76904190D01*
X132611666Y-76904190D01*
X131659285Y-77094666D02*
X131183095Y-77094666D01*
X131754523Y-77380380D02*
X131421190Y-76380380D01*
X131087857Y-77380380D01*
X130278333Y-76380380D02*
X130754523Y-76380380D01*
X130802142Y-76856571D01*
X130754523Y-76808952D01*
X130659285Y-76761333D01*
X130421190Y-76761333D01*
X130325952Y-76808952D01*
X130278333Y-76856571D01*
X130230714Y-76951809D01*
X130230714Y-77189904D01*
X130278333Y-77285142D01*
X130325952Y-77332761D01*
X130421190Y-77380380D01*
X130659285Y-77380380D01*
X130754523Y-77332761D01*
X130802142Y-77285142D01*
G04 #@! TO.C,PA6*
X135151666Y-79920380D02*
X135151666Y-78920380D01*
X134770714Y-78920380D01*
X134675476Y-78968000D01*
X134627857Y-79015619D01*
X134580238Y-79110857D01*
X134580238Y-79253714D01*
X134627857Y-79348952D01*
X134675476Y-79396571D01*
X134770714Y-79444190D01*
X135151666Y-79444190D01*
X134199285Y-79634666D02*
X133723095Y-79634666D01*
X134294523Y-79920380D02*
X133961190Y-78920380D01*
X133627857Y-79920380D01*
X132865952Y-78920380D02*
X133056428Y-78920380D01*
X133151666Y-78968000D01*
X133199285Y-79015619D01*
X133294523Y-79158476D01*
X133342142Y-79348952D01*
X133342142Y-79729904D01*
X133294523Y-79825142D01*
X133246904Y-79872761D01*
X133151666Y-79920380D01*
X132961190Y-79920380D01*
X132865952Y-79872761D01*
X132818333Y-79825142D01*
X132770714Y-79729904D01*
X132770714Y-79491809D01*
X132818333Y-79396571D01*
X132865952Y-79348952D01*
X132961190Y-79301333D01*
X133151666Y-79301333D01*
X133246904Y-79348952D01*
X133294523Y-79396571D01*
X133342142Y-79491809D01*
G04 #@! TO.C,PA7*
X132611666Y-82460380D02*
X132611666Y-81460380D01*
X132230714Y-81460380D01*
X132135476Y-81508000D01*
X132087857Y-81555619D01*
X132040238Y-81650857D01*
X132040238Y-81793714D01*
X132087857Y-81888952D01*
X132135476Y-81936571D01*
X132230714Y-81984190D01*
X132611666Y-81984190D01*
X131659285Y-82174666D02*
X131183095Y-82174666D01*
X131754523Y-82460380D02*
X131421190Y-81460380D01*
X131087857Y-82460380D01*
X130849761Y-81460380D02*
X130183095Y-81460380D01*
X130611666Y-82460380D01*
G04 #@! TD*
M02*
